<?xml version="1.0" standalone="no"?>
<!DOCTYPE svg PUBLIC "-//W3C//DTD SVG 20010904//EN"
 "http://www.w3.org/TR/2001/REC-SVG-20010904/DTD/svg10.dtd">
<svg version="1.0" xmlns="http://www.w3.org/2000/svg"
 width="700.000000pt" height="700.000000pt" viewBox="0 0 700.000000 700.000000"
 preserveAspectRatio="xMidYMid meet">
<metadata>
Created by potrace 1.14, written by Peter Selinger 2001-2017
</metadata>
<g transform="translate(0.000000,700.000000) scale(0.100000,-0.100000)"
fill="#000000" stroke="none">
<path d="M3427 6723 c-2 -1 -46 -3 -98 -4 -89 -1 -415 -40 -459 -54 -11 -4
-32 -8 -46 -11 -132 -24 -344 -88 -511 -155 -790 -314 -1423 -923 -1763 -1694
-121 -276 -219 -622 -245 -865 -4 -36 -8 -67 -10 -70 -7 -12 -18 -243 -18
-385 0 -171 8 -287 29 -430 23 -156 30 -196 48 -272 2 -10 9 -39 15 -64 82
-358 294 -812 525 -1123 129 -172 178 -230 335 -386 354 -353 770 -610 1251
-774 80 -27 269 -79 335 -91 22 -5 45 -9 50 -11 24 -5 133 -24 170 -29 22 -3
49 -7 60 -10 91 -18 481 -26 678 -12 210 15 546 83 757 155 283 96 585 249
820 415 289 204 582 493 777 768 271 383 475 861 547 1284 3 17 7 44 10 60 49
286 56 681 16 965 -98 705 -408 1335 -903 1835 -73 73 -175 168 -227 212 -500
416 -1110 671 -1750 732 -101 10 -387 20 -393 14z m353 -659 c489 -54 938
-239 1326 -545 223 -175 460 -442 594 -669 60 -101 73 -124 120 -220 138 -278
235 -631 255 -935 5 -66 5 -328 1 -385 -7 -87 -24 -228 -31 -250 -3 -8 -7 -32
-11 -54 -3 -21 -8 -48 -10 -60 -3 -11 -7 -31 -9 -42 -24 -112 -110 -359 -172
-492 -283 -607 -808 -1095 -1423 -1325 -134 -49 -305 -100 -398 -117 -31 -5
-68 -12 -82 -15 -14 -3 -43 -8 -64 -10 -21 -2 -55 -7 -75 -10 -101 -15 -386
-21 -481 -11 -19 3 -64 7 -100 10 -198 18 -457 81 -663 163 -776 304 -1370
984 -1562 1788 -54 225 -70 360 -70 605 0 197 7 304 30 435 79 450 261 851
549 1208 86 106 277 296 386 382 170 136 403 274 610 363 157 67 379 133 550
162 36 6 76 13 90 15 14 3 59 8 100 11 41 4 76 8 78 9 10 9 358 0 462 -11z"/>
<path d="M3305 6041 c-2 -1 -41 -7 -87 -13 -46 -5 -96 -11 -113 -14 -16 -2
-45 -5 -62 -6 -18 -1 -33 -5 -33 -9 0 -5 -13 -7 -30 -5 -16 2 -30 0 -30 -4 0
-4 -24 -11 -52 -14 -29 -4 -57 -11 -63 -16 -5 -4 -13 -9 -17 -9 -5 -1 -9 -1
-10 -2 -2 0 -12 -2 -23 -4 -56 -10 -145 -39 -145 -47 0 -6 -7 -8 -15 -5 -8 4
-17 2 -20 -3 -4 -6 -15 -10 -25 -10 -10 0 -25 -7 -33 -15 -8 -8 -17 -11 -21
-8 -3 3 -12 1 -19 -5 -8 -7 -17 -9 -20 -5 -4 3 -7 2 -7 -4 0 -6 -20 -17 -45
-24 -25 -7 -45 -17 -45 -22 0 -4 -4 -5 -10 -2 -5 3 -10 1 -10 -4 0 -6 -6 -11
-14 -11 -7 0 -29 -11 -49 -24 -19 -13 -38 -22 -41 -18 -3 3 -6 0 -6 -6 0 -7
-7 -12 -15 -12 -8 0 -15 -6 -15 -12 0 -10 43 -105 58 -128 2 -2 7 2 12 10 6 8
10 12 10 8 0 -4 25 6 55 22 30 16 55 26 55 22 0 -4 4 -2 8 3 11 15 185 96 237
109 6 2 17 6 25 9 41 15 96 31 104 29 4 -2 14 2 22 9 7 6 18 8 24 4 5 -3 10
-2 10 3 0 5 23 13 52 16 28 4 56 10 62 13 10 7 31 10 91 16 17 2 37 6 45 10
36 14 231 28 415 28 181 0 329 -10 410 -28 17 -4 39 -8 50 -9 11 -1 29 -5 40
-8 65 -18 103 -27 129 -31 15 -2 34 -10 42 -16 8 -6 14 -9 14 -5 0 7 74 -19
115 -42 17 -9 31 -15 32 -14 4 2 34 -8 71 -24 17 -7 34 -14 37 -14 10 0 150
-73 176 -91 14 -10 29 -16 33 -12 3 3 6 1 6 -5 0 -7 5 -12 11 -12 6 0 24 -9
40 -21 16 -11 29 -18 29 -15 0 3 12 -6 26 -19 15 -14 33 -25 40 -25 8 0 14 -5
14 -10 0 -6 8 -14 18 -17 9 -4 50 -33 89 -65 40 -32 75 -58 79 -58 3 0 21 -17
41 -37 19 -21 38 -38 42 -38 10 0 211 -201 211 -211 0 -5 16 -24 35 -42 20
-17 33 -32 29 -32 -3 0 13 -21 36 -47 23 -27 47 -58 53 -70 6 -13 14 -23 19
-23 4 0 8 -7 8 -15 0 -8 5 -15 10 -15 6 0 10 -4 10 -10 0 -8 31 -60 57 -95 5
-6 9 -17 11 -25 2 -8 9 -18 15 -22 7 -4 8 -8 4 -8 -4 0 5 -17 20 -37 15 -20
27 -39 27 -42 -2 -8 11 -40 41 -106 13 -30 27 -66 31 -80 3 -14 10 -28 15 -30
4 -3 6 -12 2 -20 -3 -8 -1 -15 4 -15 5 0 15 -21 22 -47 7 -27 15 -55 19 -63 3
-8 6 -18 7 -22 2 -5 4 -11 5 -15 1 -5 3 -12 4 -18 1 -5 5 -17 8 -25 10 -24 29
-104 29 -120 1 -8 3 -22 6 -30 3 -8 6 -24 7 -35 1 -11 4 -24 7 -30 4 -5 6 -25
5 -43 0 -17 2 -32 5 -32 7 0 18 -106 24 -230 10 -198 2 -334 -29 -535 -3 -16
-7 -43 -9 -60 -3 -16 -6 -32 -8 -35 -1 -3 -3 -9 -4 -15 -4 -21 -17 -71 -22
-85 -3 -8 -7 -22 -8 -30 -7 -37 -48 -158 -69 -205 -8 -16 -19 -47 -26 -67 -6
-21 -16 -40 -21 -44 -5 -3 -7 -10 -4 -15 4 -5 1 -9 -4 -9 -6 0 -11 -7 -11 -15
0 -17 -43 -105 -72 -147 -11 -16 -17 -28 -13 -28 3 0 1 -6 -5 -13 -6 -6 -40
-59 -77 -117 -68 -108 -138 -201 -192 -256 -17 -17 -31 -34 -31 -38 0 -4 -49
-55 -110 -114 -129 -126 -190 -182 -190 -174 0 3 -8 -4 -17 -14 -10 -11 -38
-33 -63 -49 -25 -17 -50 -37 -57 -45 -7 -8 -13 -10 -13 -5 0 6 -3 6 -8 0 -10
-15 -106 -75 -119 -75 -6 0 -13 -7 -17 -15 -3 -8 -9 -14 -13 -13 -4 1 -28 -9
-53 -22 -25 -13 -47 -25 -50 -25 -3 -1 -29 -13 -57 -28 -29 -15 -55 -27 -58
-28 -2 0 -20 -6 -39 -14 -20 -8 -40 -15 -46 -15 -5 0 -10 -5 -10 -11 0 -5 -5
-7 -10 -4 -6 4 -18 1 -26 -6 -8 -6 -17 -9 -21 -6 -3 4 -11 3 -17 -2 -6 -5 -29
-14 -51 -20 -22 -7 -47 -15 -55 -18 -8 -3 -19 -7 -25 -9 -97 -25 -144 -36
-160 -37 -11 -1 -24 -4 -30 -7 -5 -3 -21 -5 -35 -5 -14 0 -27 -3 -30 -7 -11
-14 -245 -30 -445 -29 -188 0 -353 12 -395 29 -8 3 -26 6 -40 8 -14 1 -25 3
-25 4 0 2 -11 4 -25 5 -14 1 -38 7 -53 14 -16 6 -37 11 -48 11 -10 0 -19 4
-19 10 0 5 -7 7 -15 4 -8 -4 -21 -2 -28 4 -6 6 -16 11 -22 12 -5 0 -35 8 -65
17 -30 9 -58 16 -62 15 -5 -1 -8 3 -8 9 0 5 -4 7 -10 4 -5 -3 -10 -1 -10 4 0
6 -8 11 -18 11 -10 0 -27 7 -38 15 -12 8 -24 11 -28 8 -3 -3 -6 -1 -6 5 0 7
-3 11 -8 10 -4 -1 -24 6 -46 15 -21 9 -42 17 -47 17 -5 0 -9 5 -9 10 0 6 -5
10 -10 10 -6 0 -28 11 -49 24 -21 14 -41 22 -45 19 -3 -3 -8 2 -12 11 -3 9
-12 16 -19 16 -7 0 -24 9 -39 21 -14 11 -26 17 -26 12 0 -4 -5 0 -11 10 -5 9
-17 17 -24 17 -8 0 -15 4 -15 8 0 5 -10 13 -22 19 -13 6 -49 31 -80 57 -32 26
-58 44 -58 40 0 -3 -13 7 -28 22 -16 16 -60 56 -97 89 -38 33 -88 80 -112 105
-99 102 -133 140 -133 147 0 4 -9 16 -20 28 -56 57 -190 250 -190 273 0 5 -7
13 -16 16 -9 4 -14 9 -11 12 3 4 -8 29 -26 58 -32 51 -107 216 -107 235 0 6
-4 11 -9 11 -5 0 -7 9 -4 20 3 11 1 20 -5 20 -13 0 -46 103 -54 168 -1 6 -4
12 -8 12 -3 0 -12 30 -19 68 -8 37 -16 72 -20 77 -3 6 -6 21 -7 35 0 14 -4 33
-8 43 -5 9 -6 26 -3 37 3 11 1 23 -4 26 -5 3 -9 23 -9 45 0 21 -3 39 -8 39 -4
0 -6 29 -5 65 1 36 -1 65 -5 65 -4 0 -7 85 -7 190 0 104 2 190 5 190 3 0 7 21
7 48 1 26 7 79 13 117 7 39 11 78 11 88 0 9 4 17 8 17 4 0 7 10 6 23 -1 12 2
28 7 34 6 7 8 20 4 28 -3 8 -2 15 3 15 5 0 11 12 14 28 3 15 8 38 12 52 3 14
7 30 8 35 2 6 6 16 10 23 5 6 6 12 3 12 -3 0 5 25 19 55 13 30 21 55 18 55 -3
0 0 6 6 14 10 11 3 16 -39 27 -27 7 -50 16 -50 20 0 4 -9 6 -20 4 -11 -2 -20
0 -20 6 0 5 -4 9 -10 9 -5 0 -7 -7 -4 -15 4 -8 1 -15 -5 -15 -6 0 -10 -3 -9
-7 0 -5 -1 -15 -5 -23 -12 -31 -40 -135 -39 -142 1 -5 -2 -8 -7 -8 -6 0 -10
-8 -10 -17 -1 -32 -25 -133 -32 -133 -3 0 -5 -11 -4 -25 2 -14 0 -25 -5 -25
-4 0 -7 -12 -7 -27 0 -16 -3 -39 -7 -53 -16 -59 -26 -218 -26 -400 1 -212 3
-255 20 -375 7 -44 12 -90 11 -102 0 -13 3 -23 7 -23 5 0 9 -12 10 -27 0 -16
3 -37 6 -48 2 -11 8 -41 12 -67 3 -27 11 -48 16 -48 5 0 6 -4 3 -10 -3 -5 -3
-16 2 -22 4 -7 8 -20 9 -28 0 -8 6 -28 12 -43 7 -16 12 -34 12 -42 0 -7 9 -34
20 -60 11 -26 18 -51 14 -56 -3 -5 0 -9 5 -9 6 0 11 -8 11 -17 0 -10 9 -33 21
-52 11 -18 18 -35 15 -38 -2 -3 11 -31 30 -64 19 -33 33 -63 29 -68 -3 -5 -2
-11 2 -13 11 -4 63 -85 63 -97 0 -6 8 -15 18 -20 9 -6 13 -11 9 -11 -5 0 1
-13 12 -29 12 -16 21 -34 21 -40 0 -5 6 -14 13 -18 7 -4 21 -25 32 -45 11 -21
23 -38 27 -38 5 0 8 -5 8 -11 0 -7 12 -22 28 -35 15 -13 23 -24 18 -24 -5 0 4
-12 20 -27 16 -15 28 -30 27 -35 -4 -10 324 -338 338 -338 5 0 23 -12 39 -28
51 -46 68 -60 72 -57 2 3 23 -13 47 -35 23 -22 52 -42 64 -46 12 -4 24 -10 27
-13 7 -9 83 -58 93 -59 4 -1 17 -11 29 -22 12 -11 28 -20 35 -20 7 0 13 -4 13
-10 0 -5 3 -9 8 -8 9 2 85 -34 93 -45 3 -5 8 -8 10 -6 2 1 33 -12 67 -29 35
-18 68 -29 73 -26 5 3 9 1 9 -4 0 -6 11 -13 25 -16 14 -4 25 -11 25 -17 0 -6
5 -7 10 -4 6 4 16 2 23 -3 7 -5 36 -15 65 -23 28 -7 52 -15 52 -19 0 -3 8 -6
18 -7 9 -1 56 -13 104 -26 48 -13 90 -22 92 -20 3 3 11 1 18 -3 15 -10 45 -14
105 -17 24 -1 43 -5 43 -8 0 -31 631 -25 778 7 15 3 36 7 47 8 11 2 27 6 35 9
8 3 22 5 30 6 33 0 163 31 175 41 7 6 17 10 21 9 14 -4 127 32 143 45 8 6 15
9 15 7 1 -6 79 20 94 32 6 5 12 6 12 2 0 -4 6 -2 13 4 8 6 17 8 20 4 4 -3 7
-1 7 5 0 7 7 12 15 12 22 0 255 121 255 132 0 5 4 7 9 4 5 -3 20 3 34 14 14
11 30 20 35 20 5 0 13 7 16 16 4 9 9 14 13 11 3 -4 23 7 44 24 22 17 39 27 39
23 0 -5 7 2 16 14 8 12 20 22 26 22 5 0 19 11 30 25 11 14 24 25 29 25 24 0
393 368 394 393 0 4 5 11 11 15 15 10 94 117 94 128 0 5 9 15 20 22 11 7 20
19 20 27 0 8 5 15 10 15 6 0 10 4 10 9 0 9 59 110 70 121 11 11 145 285 142
293 -1 4 2 7 6 7 5 0 15 22 22 50 7 27 17 50 21 50 3 0 12 21 19 48 7 26 16
52 19 57 3 6 6 18 7 28 1 9 3 19 4 22 1 3 3 8 5 13 1 4 4 14 8 22 8 21 28 112
28 130 1 8 3 22 7 30 3 8 6 26 8 40 1 14 3 25 4 25 2 0 4 16 6 35 3 19 8 69
13 110 10 80 16 525 7 550 -5 14 -17 129 -18 160 0 8 -2 22 -5 30 -3 8 -7 24
-9 35 -9 55 -15 85 -30 140 -8 33 -17 69 -19 80 -2 11 -4 20 -5 20 -1 0 -3 8
-5 17 -3 18 -23 84 -32 108 -3 8 -7 20 -8 25 -8 29 -57 150 -85 206 -17 35
-32 66 -32 69 -2 16 -23 50 -30 50 -5 0 -7 4 -3 9 3 5 1 12 -5 16 -6 4 -8 11
-5 16 4 5 2 9 -3 9 -6 0 -15 14 -21 30 -5 17 -15 30 -22 30 -7 0 -9 3 -6 6 4
4 -2 19 -13 34 -11 16 -20 32 -20 37 0 9 -109 157 -135 184 -8 9 -15 18 -15
22 0 16 -285 308 -353 362 -21 17 -51 42 -67 58 -16 15 -32 27 -35 27 -5 0
-38 26 -67 53 -10 9 -18 14 -18 11 0 -5 -16 7 -76 56 -7 5 -14 7 -16 4 -3 -2
-17 7 -31 20 -15 14 -27 22 -27 19 0 -3 -9 2 -20 12 -11 10 -20 14 -20 9 0 -5
-4 -4 -8 2 -7 11 -41 31 -102 60 -19 9 -38 21 -41 26 -3 5 -10 10 -15 11 -5 0
-29 10 -54 21 -25 11 -47 21 -50 21 -3 1 -22 9 -42 18 -21 10 -39 17 -42 17
-3 0 -17 5 -33 12 -15 6 -30 12 -33 13 -3 1 -18 7 -33 13 -16 7 -35 12 -43 12
-8 0 -14 4 -14 8 0 4 -8 8 -17 9 -10 0 -27 4 -38 7 -11 3 -40 10 -65 16 -24 6
-49 15 -55 19 -5 5 -19 7 -29 5 -11 -1 -25 0 -30 4 -6 4 -22 8 -36 9 -14 0
-36 4 -50 8 -59 16 -190 25 -403 27 -126 2 -230 1 -232 -1z"/>
<path d="M3247 5814 c-4 -4 -27 -7 -52 -7 -25 0 -45 -3 -45 -7 0 -4 -20 -6
-45 -5 -25 1 -45 -2 -45 -5 0 -6 -99 -28 -140 -32 -8 0 -19 -4 -25 -8 -5 -4
-18 -6 -27 -5 -10 2 -18 0 -18 -5 0 -4 -27 -13 -60 -19 -33 -7 -62 -16 -65
-21 -3 -5 -12 -7 -20 -3 -8 3 -15 0 -15 -7 0 -7 -6 -10 -13 -7 -7 3 -21 -1
-32 -9 -10 -8 -27 -14 -37 -14 -10 0 -18 -5 -18 -12 0 -6 -3 -8 -7 -5 -3 4
-12 2 -20 -4 -7 -6 -13 -9 -13 -6 0 4 -45 -16 -100 -44 -55 -27 -103 -49 -106
-49 -4 1 -11 -5 -16 -14 -5 -9 -15 -16 -23 -16 -7 0 -20 -6 -27 -13 -7 -7 -31
-24 -53 -37 -22 -13 -45 -29 -52 -35 -35 -29 -43 -35 -48 -35 -7 0 -10 -3
-100 -78 -85 -72 -304 -295 -331 -337 -10 -16 -24 -34 -31 -38 -7 -4 -13 -14
-13 -22 0 -8 -8 -20 -18 -27 -10 -7 -46 -58 -81 -113 -35 -55 -68 -102 -72
-103 -5 -2 -6 -8 -3 -14 4 -6 3 -13 -2 -17 -5 -3 -17 -22 -26 -41 -10 -19 -31
-59 -47 -87 -16 -29 -27 -53 -24 -53 3 0 0 -7 -7 -15 -7 -8 -10 -15 -6 -15 3
0 -5 -18 -18 -39 -14 -21 -22 -41 -19 -45 3 -3 -1 -16 -10 -29 -8 -13 -23 -52
-33 -88 -10 -35 -20 -66 -23 -69 -7 -6 -12 -24 -15 -58 -2 -12 -6 -25 -9 -29
-4 -3 -7 -19 -7 -34 0 -15 -4 -30 -9 -34 -6 -3 -8 -14 -6 -25 2 -11 0 -20 -4
-20 -4 0 -8 -12 -9 -27 0 -16 -6 -62 -11 -103 -19 -131 -30 -369 -18 -377 4
-2 7 -34 8 -71 0 -37 4 -98 10 -137 5 -38 11 -83 13 -100 2 -16 4 -30 6 -30 1
0 3 -11 5 -25 2 -14 11 -56 20 -95 9 -38 17 -78 17 -87 -1 -10 4 -18 9 -18 5
0 9 -6 7 -12 -1 -7 9 -47 22 -88 13 -41 24 -77 25 -80 6 -19 18 -48 26 -62 5
-10 9 -27 9 -38 0 -11 5 -20 11 -20 5 0 7 -4 4 -10 -3 -5 -1 -10 4 -10 6 0 10
-3 9 -7 -1 -5 9 -28 22 -53 13 -25 24 -48 25 -51 0 -11 40 -84 48 -87 4 -2 7
-9 7 -16 0 -6 11 -28 25 -47 13 -20 21 -39 18 -43 -4 -3 -1 -6 6 -6 6 0 16
-11 21 -25 5 -14 13 -25 18 -25 5 0 17 -18 28 -40 10 -22 24 -40 30 -40 6 0
16 -11 22 -25 15 -34 33 -53 189 -208 150 -150 200 -197 209 -197 3 0 29 -18
58 -40 28 -22 56 -43 61 -47 37 -29 151 -98 157 -96 4 2 8 -1 8 -6 0 -5 14
-14 30 -21 17 -7 30 -17 30 -22 0 -5 4 -7 9 -3 5 3 12 1 16 -5 4 -6 11 -8 16
-5 5 4 9 1 9 -4 0 -6 7 -11 15 -11 8 0 15 -5 15 -12 0 -6 3 -9 6 -5 3 3 22 -3
41 -14 43 -24 183 -83 244 -102 84 -27 149 -45 184 -52 11 -2 31 -7 45 -11 14
-3 42 -9 63 -11 20 -3 37 -8 37 -12 0 -4 16 -6 36 -4 21 1 42 -1 48 -5 6 -3
31 -7 56 -7 25 0 50 -3 55 -6 16 -10 456 1 475 11 6 4 13 5 75 14 28 4 57 10
65 13 15 6 67 13 108 14 12 1 22 4 22 8 0 4 29 13 65 20 36 7 65 17 65 22 0 4
9 6 20 4 11 -2 20 0 20 6 0 5 3 8 8 7 9 -2 95 24 102 32 6 6 29 12 48 13 6 0
12 4 12 9 0 4 7 8 15 8 9 0 30 8 48 17 18 9 34 18 37 18 3 1 25 12 50 25 25
14 50 25 55 26 40 4 88 49 67 63 -9 6 -48 88 -49 105 -1 5 -5 12 -10 15 -12 9
-48 83 -46 93 2 4 -1 8 -6 8 -5 0 -11 6 -13 14 -2 12 -19 7 -73 -20 -38 -19
-70 -34 -70 -33 0 1 -22 -8 -50 -21 -27 -13 -54 -22 -59 -21 -5 1 -12 -2 -15
-7 -5 -7 -86 -38 -146 -56 -5 -1 -30 -8 -55 -15 -25 -7 -52 -16 -60 -19 -8 -3
-23 -6 -32 -7 -10 -2 -21 -4 -25 -5 -5 -2 -12 -4 -18 -5 -5 -2 -12 -4 -15 -5
-16 -7 -161 -30 -195 -31 -22 -1 -44 -4 -50 -8 -5 -5 -95 -6 -200 -5 -207 4
-265 7 -280 16 -6 3 -34 9 -62 13 -29 4 -55 11 -58 15 -3 5 -15 7 -27 5 -12
-3 -27 0 -35 6 -7 7 -13 8 -13 4 0 -4 -7 -1 -17 6 -9 8 -18 13 -19 12 -2 -1
-9 -1 -16 1 -7 3 -26 8 -43 12 -40 10 -44 11 -50 14 -3 1 -8 3 -12 5 -5 1 -21
7 -36 13 -16 7 -30 12 -31 12 -2 0 -38 16 -79 35 -42 20 -78 34 -79 33 -2 -1
-24 12 -49 29 -26 18 -49 29 -53 26 -3 -4 -6 -1 -6 5 0 7 -7 12 -15 12 -8 0
-15 5 -15 10 0 6 -5 10 -10 10 -6 0 -29 13 -52 30 -22 16 -45 30 -50 30 -4 0
-17 8 -27 17 -11 10 -30 26 -43 35 -113 84 -301 265 -375 363 -21 28 -41 52
-45 53 -5 2 -8 10 -8 17 0 8 -8 19 -18 24 -9 6 -13 11 -9 11 5 0 -5 17 -22 39
-17 21 -28 41 -24 45 3 3 2 6 -3 6 -12 0 -146 265 -149 295 -1 6 -9 27 -18 49
-9 21 -17 44 -17 52 0 7 -5 16 -10 19 -6 4 -8 15 -5 26 4 11 2 19 -5 19 -7 0
-10 7 -7 15 4 8 2 17 -2 19 -9 6 -35 120 -34 149 0 9 -3 17 -7 17 -4 0 -8 15
-9 33 -6 86 -9 108 -15 114 -3 3 -6 32 -6 63 0 31 -3 60 -7 63 -8 9 -10 287
-1 287 4 0 8 26 10 58 l3 57 19 -32 c11 -18 23 -30 26 -28 4 3 6 -10 4 -28 -3
-28 -2 -30 10 -14 17 22 36 22 36 -1 0 -10 6 -24 13 -31 10 -11 9 -12 -2 -6
-15 9 -9 -19 15 -69 8 -16 14 -37 14 -46 0 -9 3 -20 7 -24 8 -8 11 -22 18
-104 7 -74 19 -112 36 -112 7 0 9 -3 6 -6 -4 -4 3 -15 15 -25 19 -18 27 -20
44 -18 4 0 10 -3 13 -8 8 -11 124 -68 133 -65 4 1 5 -4 2 -12 -8 -20 27 -48
85 -69 35 -12 59 -29 78 -55 31 -41 74 -82 86 -82 5 0 5 5 1 12 -5 7 -3 8 5 4
7 -5 10 -10 7 -14 -6 -6 24 -31 38 -32 5 0 2 8 -5 17 -12 14 -12 15 0 9 8 -5
16 -4 21 4 5 8 13 9 23 4 26 -16 65 -69 68 -94 2 -14 13 -31 24 -38 19 -12 19
-13 -2 -7 -18 5 -23 2 -23 -13 0 -11 -6 -35 -13 -53 -8 -19 -13 -38 -13 -44 2
-23 29 -75 40 -75 6 -1 -4 -9 -21 -18 l-33 -17 21 -40 c12 -21 31 -46 43 -56
11 -9 32 -26 45 -38 13 -11 27 -18 32 -16 4 3 11 0 15 -6 5 -8 2 -10 -7 -4 -8
4 -1 -4 16 -18 16 -14 34 -23 39 -20 5 4 6 1 2 -5 -3 -5 -3 -12 2 -14 4 -1 15
-21 23 -43 12 -32 25 -45 69 -67 68 -34 117 -47 105 -28 -5 9 -4 11 4 6 6 -4
9 -11 6 -16 -7 -11 22 -33 33 -26 6 3 9 -2 8 -12 0 -9 5 -16 12 -14 8 1 11 -1
8 -6 -13 -21 50 -189 93 -247 6 -8 33 -92 36 -115 11 -69 34 -112 80 -150 16
-14 38 -35 49 -47 11 -13 25 -23 32 -23 6 0 14 -7 17 -14 8 -19 54 -43 106
-55 47 -10 54 -1 14 19 -16 8 -42 24 -59 37 -17 12 -35 19 -38 15 -4 -3 -4 1
-1 9 7 19 -19 44 -36 33 -7 -4 -9 -3 -5 4 3 6 1 14 -4 17 -7 5 -5 12 7 20 13
10 15 16 6 26 -19 25 -22 66 -4 66 43 0 51 4 51 23 0 12 -7 32 -16 45 -15 23
-15 24 5 20 12 -3 31 -7 42 -10 33 -7 52 9 55 48 2 22 14 47 32 67 28 30 38
71 24 94 -9 16 -8 55 1 49 5 -3 12 -2 16 3 9 13 65 48 57 36 -10 -16 87 7 105
26 28 28 46 100 45 172 -1 61 1 66 16 56 13 -8 22 -6 37 8 11 10 18 23 14 29
-3 5 -1 7 4 4 14 -9 63 63 63 90 0 25 -9 32 -43 35 -14 1 -24 5 -21 9 2 4 -8
15 -22 24 -18 12 -24 13 -19 4 4 -8 1 -8 -7 1 -21 25 -96 44 -114 29 -12 -10
-15 -10 -12 2 3 15 -3 16 -39 5 -16 -5 -23 -2 -28 14 -9 28 -52 37 -88 17 -39
-23 -45 -21 -42 8 4 31 -6 31 -60 0 -37 -22 -43 -23 -49 -10 -3 9 -10 14 -15
10 -5 -3 -13 0 -17 7 -4 7 -4 10 1 6 4 -4 15 -2 23 5 13 9 14 9 8 0 -10 -17
11 -17 21 0 4 7 20 20 36 30 33 21 34 37 4 69 -13 14 -22 29 -20 35 4 12 -25
26 -38 17 -5 -3 -9 0 -9 6 0 6 -4 9 -9 5 -5 -3 -12 -1 -15 4 -6 9 -41 18 -111
28 -22 3 -48 10 -58 15 -13 6 -24 5 -35 -3 -14 -11 -15 -11 -5 0 10 11 6 20
-18 42 -17 16 -28 33 -24 39 3 5 -2 13 -12 17 -10 3 -25 12 -34 20 -18 15 -69
8 -69 -9 0 -5 -4 -7 -8 -4 -5 3 -30 6 -56 7 -28 2 -58 10 -71 21 -25 19 -39
11 -47 -27 -2 -11 -10 -20 -18 -20 -11 0 -15 12 -14 48 l2 49 -27 -25 c-14
-13 -41 -30 -58 -37 -28 -11 -38 -25 -35 -51 1 -9 -70 -5 -85 4 -7 5 -17 6
-22 2 -5 -3 -12 -1 -15 3 -3 5 -16 7 -29 5 -36 -7 -57 21 -58 78 -1 27 -3 54
-4 59 -1 6 -3 17 -4 26 -1 10 -7 14 -17 10 -8 -3 -13 -2 -10 3 9 14 -46 28
-82 20 -25 -5 -30 -4 -22 5 6 9 6 17 -3 26 -7 8 -7 10 -1 7 7 -4 16 10 24 38
18 65 17 86 -3 99 -15 9 -22 6 -43 -17 -13 -16 -21 -34 -18 -40 4 -7 4 -9 0
-5 -5 4 -26 -4 -48 -18 -22 -14 -37 -21 -34 -15 4 6 1 11 -7 11 -24 0 -35 23
-47 95 -6 37 -14 73 -18 79 -18 30 -17 89 3 129 8 16 12 35 8 41 -3 6 -3 8 2
4 4 -4 21 4 38 18 30 25 38 26 96 8 20 -6 23 -4 18 9 -4 11 -2 14 9 10 7 -3
14 -1 14 5 0 5 13 12 29 14 17 2 28 1 25 -4 -6 -10 37 -21 67 -16 16 2 24 -2
25 -12 0 -8 2 -25 2 -38 1 -13 6 -20 12 -17 5 3 7 0 4 -9 -7 -19 42 -96 61
-96 22 0 18 29 -10 79 -14 24 -26 60 -27 80 0 20 -6 43 -12 51 -9 13 -8 13 4
3 13 -10 22 -5 50 29 19 23 43 49 54 57 10 9 24 22 31 29 8 6 18 12 24 12 8 0
10 28 7 84 -3 70 -2 84 10 79 8 -3 14 1 14 8 1 10 3 9 10 -2 8 -15 14 -13 44
14 23 21 32 35 26 43 -7 8 2 10 30 8 31 -2 43 2 55 19 9 12 11 25 6 31 -6 8 1
11 22 11 25 0 32 4 31 18 -2 15 1 16 14 5 13 -11 15 -10 10 2 -8 22 31 24 54
3 16 -14 19 -13 35 14 15 28 20 30 49 21 26 -7 41 -4 68 10 20 11 32 22 29 26
-4 4 1 4 11 0 14 -5 17 -3 14 12 -4 22 -27 24 -84 8 l-42 -12 -5 44 c-5 52 -6
53 -42 60 -19 3 -24 1 -19 -7 5 -8 2 -10 -8 -6 -20 7 -61 -21 -52 -35 4 -6 2
-8 -4 -4 -5 3 -13 0 -15 -6 -3 -7 -5 -1 -4 14 1 15 4 26 7 26 14 -3 39 15 33
25 -3 6 -1 7 5 3 7 -4 21 0 33 8 12 8 28 12 37 9 11 -5 13 -3 7 8 -7 11 -6 12
6 3 21 -17 101 -14 123 5 11 9 16 10 12 4 -9 -16 -4 -16 28 -2 14 7 23 16 19
22 -3 6 -2 7 4 4 13 -8 84 14 77 24 -3 5 1 6 9 4 7 -3 21 3 31 14 17 18 16 20
-6 35 -26 18 -49 21 -64 6 -7 -7 -17 -5 -30 6 -10 8 -13 13 -6 9 11 -5 16 6
13 27 0 4 5 5 13 2 8 -3 17 -1 20 4 3 5 -12 12 -33 16 -52 8 -75 30 -59 56 9
15 8 27 -7 59 -10 23 -20 41 -22 41 -15 0 -43 -23 -38 -31 4 -5 3 -9 -2 -8
-18 3 -34 -1 -30 -8 3 -5 -15 -8 -39 -9 -24 0 -41 3 -38 8 3 4 1 8 -5 8 -5 0
-9 9 -8 20 1 10 3 17 6 15 7 -7 31 16 31 30 0 19 -69 49 -121 52 l-46 3 -17
-45 c-10 -25 -22 -45 -27 -45 -5 0 -9 -11 -9 -25 0 -14 4 -25 9 -25 18 0 -4
-66 -25 -74 -9 -3 -12 -11 -8 -18 5 -7 2 -9 -9 -5 -19 7 -42 -17 -31 -34 4 -7
3 -9 -3 -6 -9 6 -37 -67 -38 -98 0 -14 -33 -19 -48 -7 -7 5 -20 8 -30 7 -9 -2
-15 1 -11 6 3 5 10 6 16 3 7 -5 9 1 5 17 -4 14 0 46 8 73 14 45 13 48 -3 41
-9 -5 -25 -7 -34 -6 -47 3 -56 6 -52 13 3 4 -4 8 -15 8 -12 0 -20 3 -20 8 3
20 -2 32 -15 32 -14 0 -15 28 -1 50 3 5 1 19 -5 30 -8 15 -8 20 1 20 6 0 9 7
6 15 -4 8 -1 17 5 21 7 4 8 3 4 -4 -13 -22 6 -12 34 16 15 15 33 28 40 30 17
4 51 42 46 51 -2 3 9 6 25 7 39 1 73 32 58 51 -9 11 -8 12 5 7 11 -4 16 -1 16
10 0 9 6 16 13 15 17 -3 48 12 43 20 -3 4 4 7 14 7 10 0 16 -4 14 -8 -3 -4 2
-8 11 -8 10 0 13 5 9 12 -4 7 -3 8 5 4 15 -10 77 37 84 64 3 11 2 22 -3 25
-12 7 -75 -40 -72 -54 1 -7 -2 -10 -8 -6 -5 3 -10 1 -10 -4 0 -6 -9 -11 -19
-11 -16 0 -19 6 -17 33 4 46 17 87 27 87 5 0 9 7 9 16 0 12 -6 11 -29 -8 -21
-17 -26 -26 -18 -36 7 -9 6 -11 -5 -7 -9 4 -19 -4 -28 -20 -7 -14 -17 -25 -22
-25 -5 0 -7 -4 -4 -8 5 -8 -49 -16 -99 -14 -16 1 -38 2 -48 3 -10 0 -26 -8
-35 -18 -9 -10 -16 -17 -14 -14 1 2 -5 12 -13 21 -17 19 -10 50 11 50 7 0 18
8 23 18 6 9 11 12 11 5 0 -6 -4 -15 -10 -18 -5 -3 -10 -11 -10 -17 0 -7 4 -7
13 0 13 11 17 12 43 12 9 0 12 5 8 13 -4 6 2 4 13 -6 14 -12 23 -15 28 -7 3 5
10 8 14 6 13 -9 53 25 47 40 -3 8 0 14 6 14 6 0 9 3 6 6 -7 6 35 49 62 64 12
6 20 7 20 1 0 -5 -6 -11 -12 -14 -9 -3 -7 -7 5 -12 12 -5 26 1 46 22 30 32 52
33 44 2 -4 -15 -2 -18 11 -13 9 3 14 9 12 13 -3 4 5 8 16 8 30 3 47 21 29 33
-10 5 -22 3 -35 -5 -13 -10 -24 -11 -32 -5 -13 12 -44 3 -44 -12 0 -6 -11 -7
-24 -4 -26 6 -76 -11 -76 -26 0 -4 -4 -8 -10 -8 -15 0 -7 23 13 38 9 7 14 19
11 25 -4 7 -3 9 1 4 5 -4 17 1 28 10 11 10 17 13 14 6 -4 -6 -3 -14 3 -18 5
-3 10 -2 10 3 0 6 10 8 22 4 14 -3 19 -1 14 6 -4 7 2 9 18 6 17 -3 28 3 40 21
15 23 10 35 -8 18 -7 -8 -36 -13 -36 -7 0 10 77 40 94 36 11 -2 16 0 12 7 -4
7 -1 9 8 5 12 -5 13 -11 6 -25 -6 -10 -16 -16 -24 -13 -7 3 -19 -2 -26 -11
-10 -12 -10 -15 1 -16 8 0 5 -4 -6 -9 -17 -7 -17 -9 -2 -9 9 -1 26 8 37 19 11
11 22 20 25 20 3 0 4 1 3 3 -1 1 4 12 11 25 9 17 9 22 0 20 -6 -2 -13 2 -15 8
-3 5 18 16 46 24 28 8 54 18 56 22 3 5 10 6 15 3 5 -4 9 -1 9 5 0 6 6 10 13 9
6 -1 25 3 40 9 16 7 35 12 43 12 8 0 14 4 14 8 0 4 10 9 23 10 36 3 62 8 72
14 6 3 30 9 55 13 25 4 49 10 55 13 5 3 19 7 30 9 11 2 38 5 60 8 145 21 330
27 456 17 74 -6 150 -13 169 -17 19 -3 45 -7 57 -8 12 -1 25 -6 29 -10 4 -4
20 -7 34 -7 15 0 46 -7 69 -15 22 -8 41 -12 41 -8 0 3 6 1 13 -4 6 -6 30 -16
52 -23 22 -7 45 -15 50 -19 6 -3 12 -6 15 -6 16 -1 136 -50 141 -58 3 -5 10
-9 15 -9 15 -1 79 -32 86 -43 4 -5 8 -7 8 -3 0 4 16 -4 36 -17 19 -13 44 -27
55 -30 10 -4 19 -11 19 -16 0 -5 7 -9 15 -9 7 0 19 -8 24 -17 6 -10 11 -14 11
-10 0 4 15 -3 33 -17 19 -15 37 -26 40 -26 4 0 15 -8 25 -17 33 -31 67 -58 74
-58 4 0 15 -9 26 -20 27 -28 82 -76 82 -71 0 13 177 -183 226 -249 16 -22 31
-42 34 -45 13 -13 80 -116 80 -124 0 -9 -27 25 -46 59 -7 11 -20 19 -30 17
-14 -2 -15 0 -6 6 19 13 -55 111 -199 264 -20 21 -39 35 -44 30 -5 -4 -5 -2
-2 4 4 7 0 14 -8 18 -19 7 -20 -25 -2 -42 16 -17 16 -59 0 -59 -6 0 -10 4 -7
9 3 4 -2 8 -10 8 -8 0 -20 9 -26 20 -6 11 -20 20 -31 20 -11 0 -18 4 -14 9 3
6 -4 15 -15 21 -11 6 -18 15 -15 21 4 5 11 7 16 4 5 -4 9 -1 9 5 0 6 5 8 13 4
8 -5 7 -2 -2 9 -8 10 -16 15 -18 13 -3 -3 -14 4 -26 14 -11 11 -49 29 -83 40
-35 12 -66 26 -69 31 -9 14 -45 11 -51 -6 -3 -8 -2 -20 2 -27 10 -16 12 -75 3
-115 -4 -19 -2 -36 5 -44 8 -9 8 -10 -3 -4 -10 6 -12 2 -6 -14 4 -14 -1 -36
-12 -59 -22 -43 -20 -77 5 -67 9 3 13 3 10 -1 -11 -10 18 -34 44 -36 17 -2 23
2 22 14 -1 10 2 15 7 12 5 -3 9 0 9 5 0 6 4 11 10 11 5 0 7 -7 3 -15 -7 -20
23 -53 66 -71 18 -8 42 -24 52 -35 17 -20 17 -23 1 -48 l-16 -26 22 19 c19 16
22 28 19 65 -3 49 -31 101 -53 101 -8 0 -14 5 -14 11 0 6 -7 9 -15 5 -8 -3
-14 -2 -13 2 1 4 -3 17 -10 30 -7 12 -10 22 -6 22 3 0 2 6 -5 13 -8 10 -7 17
2 27 10 10 9 11 -2 5 -10 -6 -12 -4 -6 6 11 18 14 49 4 49 -14 0 3 36 23 49
11 7 17 8 13 2 -5 -10 7 -15 27 -12 4 0 4 -7 1 -16 -4 -9 -2 -14 3 -10 5 3 8
-11 6 -34 -3 -24 0 -39 7 -39 6 0 10 -3 9 -7 -4 -17 14 -53 28 -53 8 0 13 -6
12 -12 -2 -8 6 -12 22 -10 19 1 21 0 10 -7 -25 -17 13 -24 65 -13 50 11 54 6
25 -28 -25 -29 -25 -45 1 -63 l21 -15 -21 -7 c-11 -3 -26 -3 -33 1 -7 4 -2 -6
10 -23 12 -17 22 -35 22 -40 0 -4 -29 -21 -64 -37 -36 -17 -63 -32 -61 -36 2
-3 -5 -6 -15 -6 -10 0 -16 4 -14 8 3 4 -1 8 -10 8 -8 0 -22 3 -32 7 -11 4 -15
3 -10 -5 3 -6 2 -13 -3 -17 -6 -3 -8 3 -6 15 2 11 0 22 -4 25 -13 8 -34 -23
-25 -37 6 -11 5 -11 -8 0 -25 20 -44 5 -65 -53 -15 -40 -17 -57 -9 -65 8 -8 7
-11 -4 -8 -9 2 -14 -4 -14 -14 1 -10 -2 -16 -6 -13 -5 3 -15 -2 -24 -10 -8 -9
-29 -21 -46 -26 -30 -11 -41 -29 -17 -29 6 -1 28 -8 47 -18 32 -15 38 -24 44
-57 1 -5 6 -16 10 -24 6 -9 5 -12 -1 -8 -6 4 -14 0 -17 -9 -3 -9 -12 -14 -19
-11 -6 2 -21 -3 -32 -12 -18 -15 -19 -15 -6 1 12 16 9 17 -31 11 -64 -8 -82
-10 -91 -12 -5 0 -5 -5 -2 -11 3 -5 1 -10 -5 -10 -6 0 -8 -5 -5 -10 4 -6 11
-7 17 -4 7 4 8 2 4 -5 -4 -6 -12 -8 -18 -5 -8 5 -9 1 -5 -10 4 -10 7 -27 7
-37 0 -11 3 -18 8 -16 4 3 8 -11 9 -31 2 -40 18 -60 52 -67 13 -2 32 -12 42
-21 11 -10 25 -13 40 -9 12 4 28 8 36 9 19 3 66 74 57 88 -4 6 -3 8 4 4 13 -8
27 48 16 65 -4 7 -3 9 3 6 17 -11 46 30 41 57 -3 14 -2 23 3 21 4 -3 11 0 15
6 4 7 21 9 46 5 29 -5 40 -3 44 9 5 13 9 13 34 0 16 -8 33 -21 37 -27 4 -7 16
-20 27 -28 13 -10 11 -4 -8 24 -30 44 -23 71 18 71 13 1 22 -3 20 -7 -6 -9 61
-41 84 -41 6 0 12 -6 12 -13 0 -6 6 -14 13 -17 6 -3 21 -22 32 -43 11 -22 22
-41 25 -44 9 -9 44 -85 42 -92 -1 -5 2 -8 7 -8 5 0 16 -3 25 -6 11 -4 16 -1
16 10 0 9 -4 16 -9 16 -16 0 -60 52 -55 65 3 7 20 16 39 19 48 9 53 37 26 157
-5 21 -5 42 -1 48 11 19 40 1 40 -26 0 -15 5 -23 13 -20 6 2 11 15 9 30 -3 20
0 25 15 21 10 -3 25 -18 32 -35 7 -16 17 -26 23 -23 6 4 8 2 5 -3 -4 -6 2 -21
13 -34 11 -13 24 -29 28 -34 5 -6 5 -21 1 -33 -8 -21 -10 -22 -44 -8 -38 16
-55 6 -33 -21 9 -12 9 -15 1 -9 -7 4 -13 2 -13 -3 0 -6 -6 -11 -12 -11 -29 -1
-51 -28 -44 -55 4 -14 10 -24 15 -21 4 3 6 -5 4 -17 -5 -32 7 -45 48 -48 38
-3 73 16 62 34 -3 5 -2 8 3 4 15 -8 18 -195 4 -212 -7 -8 -16 -12 -21 -9 -5 3
-9 0 -9 -6 0 -6 -4 -9 -9 -6 -5 3 -25 -1 -45 -9 -20 -9 -35 -12 -34 -8 4 21
-25 64 -53 78 -17 9 -29 13 -26 8 3 -5 2 -15 -3 -23 -5 -9 -4 -20 3 -30 6 -8
7 -12 3 -8 -5 5 -14 -2 -20 -15 -15 -28 -33 -28 -72 0 -21 15 -34 20 -42 13
-9 -7 -9 -7 -2 2 14 17 12 28 -5 28 -8 0 -14 5 -13 11 4 14 -70 41 -86 32 -6
-3 -8 -3 -4 2 4 4 -2 21 -13 36 -11 16 -17 29 -12 29 5 0 9 9 10 20 1 11 -2
18 -8 15 -5 -4 -9 -1 -9 4 0 6 7 11 16 11 9 0 14 5 12 12 -7 19 -41 18 -76 -4
-24 -15 -54 -22 -99 -23 -36 -2 -68 -7 -72 -11 -3 -5 -19 -10 -36 -10 -71 -3
-122 -25 -108 -47 3 -6 1 -7 -6 -3 -6 4 -19 2 -27 -5 -18 -15 -50 -74 -35 -65
5 4 4 -6 -4 -20 -8 -15 -12 -31 -10 -34 2 -4 -8 -13 -23 -19 -15 -7 -37 -19
-50 -27 -20 -13 -21 -18 -10 -32 11 -15 11 -15 -3 -4 -14 10 -22 5 -59 -34
-71 -78 -98 -170 -57 -196 9 -6 9 -8 0 -8 -9 0 -10 -7 -3 -25 6 -16 6 -24 0
-22 -5 1 -21 -16 -34 -38 -19 -31 -22 -43 -13 -54 9 -11 9 -13 0 -8 -8 5 -11
-3 -10 -28 1 -19 6 -35 10 -35 5 0 5 -5 2 -10 -10 -16 15 -81 27 -74 7 4 8 2
4 -4 -7 -12 23 -72 36 -72 4 0 29 -22 56 -50 27 -27 54 -50 60 -50 7 0 12 -4
12 -9 0 -12 47 -28 100 -35 25 -3 58 -8 74 -12 22 -5 27 -4 21 6 -5 9 -4 11 3
6 6 -4 34 5 61 19 65 33 118 34 123 3 2 -13 10 -23 18 -24 41 -3 48 -5 54 -20
3 -8 2 -13 -3 -10 -10 7 -23 -22 -16 -34 3 -5 1 -12 -5 -15 -8 -5 -7 -12 2
-23 7 -9 8 -13 2 -9 -7 4 -11 -2 -11 -18 0 -14 4 -25 9 -25 5 0 7 -4 4 -9 -8
-12 4 -42 13 -37 7 5 10 -9 15 -81 2 -24 9 -51 17 -60 12 -16 12 -17 -2 -6
-13 11 -18 7 -32 -23 -10 -19 -14 -41 -11 -47 4 -7 4 -9 -1 -5 -4 4 -14 0 -21
-10 -17 -21 -18 -36 -2 -26 7 4 8 3 4 -5 -4 -6 -11 -9 -16 -6 -4 3 -13 -2 -20
-10 -7 -8 -9 -15 -6 -15 4 0 0 -7 -8 -16 -9 -8 -13 -20 -10 -26 4 -6 2 -8 -3
-5 -6 4 -17 -1 -24 -10 -12 -14 -12 -16 1 -9 8 4 6 0 -4 -8 -11 -9 -16 -16
-10 -16 5 0 4 -4 -2 -8 -15 -10 -47 -72 -37 -72 5 0 2 -4 -5 -9 -8 -5 -15 -20
-15 -34 -1 -14 -5 -23 -8 -21 -10 6 -30 -46 -23 -58 4 -7 2 -8 -4 -4 -11 6
-16 -6 -13 -26 0 -5 -4 -8 -10 -8 -6 0 -8 -7 -5 -16 3 -8 2 -12 -4 -9 -6 3
-10 2 -10 -4 0 -11 -27 -53 -73 -113 -33 -42 -29 -59 14 -56 21 2 28 6 24 17
-4 11 -2 11 8 2 11 -8 18 -6 32 9 10 11 24 20 31 20 7 0 14 3 16 8 2 4 17 15
33 24 17 10 29 22 27 28 -1 7 2 9 7 5 11 -6 91 42 104 62 4 7 13 13 20 13 24
0 166 162 160 182 -2 4 1 7 6 5 5 -1 25 15 45 35 20 20 36 34 36 31 0 -4 6 2
14 12 8 11 12 24 9 29 -4 5 -1 6 5 2 10 -6 44 44 41 60 0 4 3 10 8 13 4 3 25
31 45 61 20 30 55 74 77 98 23 23 39 47 36 52 -3 5 0 12 6 16 8 4 9 3 5 -4 -4
-7 -5 -12 -3 -12 11 0 47 73 41 82 -4 7 -2 8 4 4 7 -4 12 -6 12 -3 0 2 11 31
24 65 14 34 19 59 13 55 -7 -3 -5 2 4 13 22 26 33 57 16 48 -6 -4 -3 2 7 14
11 12 16 22 12 22 -4 0 -2 8 3 18 7 13 6 23 -2 32 -8 8 -8 11 -1 7 19 -11 -11
65 -33 83 -17 14 -18 20 -8 60 20 78 25 121 13 114 -7 -5 -8 -2 -2 7 13 20 11
32 -6 47 -10 9 -11 11 -1 6 12 -6 13 6 7 72 -9 112 -15 143 -37 192 -18 39
-31 113 -19 109 3 -1 17 5 31 15 20 13 26 13 26 3 0 -8 -5 -11 -10 -8 -7 4 -7
-1 -3 -13 5 -10 9 -25 9 -31 0 -7 4 -13 8 -13 4 0 6 -6 6 -12 -2 -21 15 -88
22 -88 3 0 7 -16 8 -37 2 -36 19 -57 37 -46 5 3 6 1 2 -6 -4 -6 -12 -9 -17 -6
-5 4 -6 -3 -1 -17 5 -13 8 -40 8 -60 -1 -21 3 -38 9 -38 5 0 4 -4 -4 -9 -8 -5
-12 -19 -9 -35 3 -14 2 -26 -2 -26 -4 0 -6 -36 -3 -80 2 -43 0 -87 -6 -98 -16
-31 -4 -39 74 -45 17 -2 35 -6 41 -9 8 -6 139 -22 179 -23 5 0 11 14 12 30 1
17 9 71 18 120 9 50 17 115 18 145 1 30 5 60 8 65 11 17 -2 423 -14 455 -7 21
-28 170 -28 198 1 12 -3 22 -8 22 -6 0 -10 8 -9 18 0 9 -2 26 -5 37 -3 11 -10
42 -17 70 -6 27 -16 55 -22 62 -6 7 -8 13 -5 13 5 0 -21 82 -40 130 -3 8 -7
20 -9 25 -8 34 -86 198 -97 206 -5 3 -8 9 -8 13 1 7 -41 98 -49 106 -15 15
-59 90 -53 90 5 0 3 4 -2 8 -6 4 -28 32 -50 62 -21 30 -50 69 -64 86 -15 17
-44 52 -66 79 -54 66 -179 195 -188 195 -4 0 -23 15 -41 33 -44 42 -179 146
-188 144 -3 -1 -18 12 -32 28 -14 17 -26 26 -26 22 0 -5 -24 8 -52 29 -58 42
-337 187 -380 198 -16 3 -28 11 -28 16 0 5 -7 7 -15 4 -8 -3 -21 0 -29 8 -7 8
-39 20 -70 28 -31 7 -56 17 -56 21 0 4 -8 6 -17 4 -10 -1 -26 2 -35 7 -18 8
-106 28 -193 42 -11 2 -27 6 -36 10 -9 4 -32 5 -52 3 -20 -2 -37 0 -37 4 0 10
-513 12 -523 3z m-980 -717 c0 -8 -6 -14 -14 -14 -9 0 -10 4 -2 14 6 7 12 13
14 13 1 0 2 -6 2 -13z m40 -2 c0 -8 -4 -12 -9 -9 -5 3 -6 10 -3 15 9 13 12 11
12 -6z m2280 -110 c0 -8 -4 -12 -9 -9 -5 3 -6 10 -3 15 9 13 12 11 12 -6z
m-2307 -1 c0 -8 -19 -13 -24 -6 -3 5 1 9 9 9 8 0 15 -2 15 -3z m146 -6 c4 -7
4 -10 -1 -6 -4 4 -15 2 -24 -5 -14 -11 -14 -10 -2 6 16 20 18 21 27 5z m-256
-32 c0 -3 -4 -8 -10 -11 -5 -3 -10 -1 -10 4 0 6 5 11 10 11 6 0 10 -2 10 -4z
m54 -4 c3 -5 -1 -9 -9 -9 -8 0 -12 4 -9 9 3 4 7 8 9 8 2 0 6 -4 9 -8z m2386
-2 c0 -5 -2 -10 -4 -10 -3 0 -8 5 -11 10 -3 6 -1 10 4 10 6 0 11 -4 11 -10z
m-2325 -39 c-9 -8 -36 -10 -30 -2 2 4 11 8 20 8 8 0 13 -3 10 -6z m2315 3 c0
-8 -19 -13 -24 -6 -3 5 1 9 9 9 8 0 15 -2 15 -3z m310 -24 c0 -5 -2 -10 -4
-10 -3 0 -8 5 -11 10 -3 6 -1 10 4 10 6 0 11 -4 11 -10z m-2686 -18 c3 -5 -1
-9 -9 -9 -8 0 -12 4 -9 9 3 4 7 8 9 8 2 0 6 -4 9 -8z m-124 -16 c0 -2 -8 -10
-17 -17 -16 -13 -17 -12 -4 4 13 16 21 21 21 13z m2766 -28 c3 -4 -1 -5 -10
-4 -8 1 -18 5 -22 8 -3 4 1 5 10 4 8 -1 18 -5 22 -8z m-2716 -12 c0 -3 -4 -8
-10 -11 -5 -3 -10 -1 -10 4 0 6 5 11 10 11 6 0 10 -2 10 -4z m475 -15 c3 -5 2
-12 -3 -15 -5 -3 -9 1 -9 9 0 17 3 19 12 6z m-655 -11 c0 -5 -2 -10 -4 -10 -3
0 -8 5 -11 10 -3 6 -1 10 4 10 6 0 11 -4 11 -10z m573 -15 c-7 -21 -12 -19
-10 4 0 11 5 18 9 15 4 -3 5 -11 1 -19z m2387 21 c0 -3 -4 -8 -10 -11 -5 -3
-10 -1 -10 4 0 6 5 11 10 11 6 0 10 -2 10 -4z m54 -4 c3 -5 -1 -9 -9 -9 -8 0
-12 4 -9 9 3 4 7 8 9 8 2 0 6 -4 9 -8z m-2380 -20 c3 -5 -1 -9 -9 -9 -8 0 -12
4 -9 9 3 4 7 8 9 8 2 0 6 -4 9 -8z m2436 -18 c0 -8 -19 -13 -24 -6 -3 5 1 9 9
9 8 0 15 -2 15 -3z m-3054 -29 c-1 -8 -5 -17 -8 -21 -5 -4 -4 16 1 34 3 9 9
-1 7 -13z m-92 -33 c3 -5 -1 -9 -9 -9 -8 0 -12 4 -9 9 3 4 7 8 9 8 2 0 6 -4 9
-8z m256 4 c0 -3 -4 -8 -10 -11 -5 -3 -10 -1 -10 4 0 6 5 11 10 11 6 0 10 -2
10 -4z m-86 -24 c2 -4 -5 -9 -17 -9 -17 -2 -19 0 -7 7 18 12 18 12 24 2z m479
-17 c-7 -21 -12 -19 -10 4 0 11 5 18 9 15 4 -3 5 -11 1 -19z m2484 10 c0 -8
-4 -12 -9 -9 -5 3 -6 10 -3 15 9 13 12 11 12 -6z m-2897 -30 c0 -7 -30 -13
-34 -7 -3 4 4 9 15 9 10 1 19 0 19 -2z m655 -4 c-9 -8 -36 -10 -30 -2 2 4 11
8 20 8 8 0 13 -3 10 -6z m-755 -15 c0 -3 -4 -8 -10 -11 -5 -3 -10 -1 -10 4 0
6 5 11 10 11 6 0 10 -2 10 -4z m40 -6 c0 -5 -5 -10 -11 -10 -5 0 -7 5 -4 10 3
6 8 10 11 10 2 0 4 -4 4 -10z m520 0 c0 -5 -2 -10 -4 -10 -3 0 -8 5 -11 10 -3
6 -1 10 4 10 6 0 11 -4 11 -10z m2477 -10 c-1 -21 -10 -18 -13 5 -1 8 2 15 6
15 5 0 8 -9 7 -20z m63 6 c-7 -7 -13 -7 -20 0 -6 6 -3 10 10 10 13 0 16 -4 10
-10z m-2980 -12 c0 -8 -19 -13 -24 -6 -3 5 1 9 9 9 8 0 15 -2 15 -3z m-304
-19 c-1 -8 -5 -17 -8 -21 -5 -4 -4 16 1 34 3 9 9 -1 7 -13z m740 -10 c-1 -8
-5 -17 -8 -21 -5 -4 -4 16 1 34 3 9 9 -1 7 -13z m280 -11 c1 -9 0 -13 -4 -10
-3 4 -7 14 -8 22 -1 9 0 13 4 10 3 -4 7 -14 8 -22z m-959 -9 c0 -8 -4 -12 -9
-9 -5 3 -6 10 -3 15 9 13 12 11 12 -6z m139 3 c3 -4 -1 -5 -10 -4 -8 1 -18 5
-22 8 -3 4 1 5 10 4 8 -1 18 -5 22 -8z m220 -14 c1 -9 0 -13 -4 -10 -3 4 -7
14 -8 22 -1 9 0 13 4 10 3 -4 7 -14 8 -22z m2824 16 c0 -5 -2 -10 -4 -10 -3 0
-8 5 -11 10 -3 6 -1 10 4 10 6 0 11 -4 11 -10z m64 2 c3 -5 -1 -9 -9 -9 -8 0
-12 4 -9 9 3 4 7 8 9 8 2 0 6 -4 9 -8z m76 -23 c0 -14 -17 -10 -23 5 -4 10 -1
13 9 9 7 -3 14 -9 14 -14z m-2563 -14 c0 -8 -4 -12 -9 -9 -5 3 -6 10 -3 15 9
13 12 11 12 -6z m118 6 c3 -5 2 -12 -3 -15 -5 -3 -9 1 -9 9 0 17 3 19 12 6z
m2280 0 c3 -5 2 -12 -3 -15 -5 -3 -9 1 -9 9 0 17 3 19 12 6z m-3201 -9 c3 -5
-1 -9 -9 -9 -8 0 -12 4 -9 9 3 4 7 8 9 8 2 0 6 -4 9 -8z m320 0 c3 -5 -1 -9
-9 -9 -8 0 -12 4 -9 9 3 4 7 8 9 8 2 0 6 -4 9 -8z m-279 -22 c3 -5 1 -10 -4
-10 -6 0 -11 5 -11 10 0 6 2 10 4 10 3 0 8 -4 11 -10z m78 -5 c4 -8 3 -16 -1
-19 -4 -3 -9 4 -9 15 -2 23 3 25 10 4z m242 5 c3 -5 1 -10 -4 -10 -6 0 -11 5
-11 10 0 6 2 10 4 10 3 0 8 -4 11 -10z m45 0 c0 -5 -5 -10 -11 -10 -5 0 -7 5
-4 10 3 6 8 10 11 10 2 0 4 -4 4 -10z m276 -5 c-1 -8 -5 -17 -8 -21 -5 -4 -4
16 1 34 3 9 9 -1 7 -13z m-79 -10 c0 -8 -4 -12 -9 -9 -5 3 -6 10 -3 15 9 13
12 11 12 -6z m167 -3 c3 -5 -1 -9 -9 -9 -8 0 -12 4 -9 9 3 4 7 8 9 8 2 0 6 -4
9 -8z m56 -2 c0 -5 -2 -10 -4 -10 -3 0 -8 5 -11 10 -3 6 -1 10 4 10 6 0 11 -4
11 -10z m80 6 c0 -3 -4 -8 -10 -11 -5 -3 -10 -1 -10 4 0 6 5 11 10 11 6 0 10
-2 10 -4z m54 -4 c3 -5 -1 -9 -9 -9 -8 0 -12 4 -9 9 3 4 7 8 9 8 2 0 6 -4 9
-8z m2106 4 c0 -3 -4 -8 -10 -11 -5 -3 -10 -1 -10 4 0 6 5 11 10 11 6 0 10 -2
10 -4z m56 -8 c3 -4 -1 -5 -10 -4 -8 1 -18 5 -22 8 -3 4 1 5 10 4 8 -1 18 -5
22 -8z m239 3 c-9 -8 -36 -10 -30 -2 2 4 11 8 20 8 8 0 13 -3 10 -6z m55 -45
c0 -6 -7 -1 -15 10 -8 10 -15 23 -15 28 0 6 7 1 15 -10 8 -10 15 -23 15 -28z
m-3424 22 c3 -4 -1 -5 -10 -4 -8 1 -18 5 -22 8 -3 4 1 5 10 4 8 -1 18 -5 22
-8z m545 -11 c-10 -9 -11 -8 -5 6 3 10 9 15 12 12 3 -3 0 -11 -7 -18z m264 4
c3 -5 2 -12 -3 -15 -5 -3 -9 1 -9 9 0 17 3 19 12 6z m-879 -27 c1 -9 0 -13 -4
-10 -3 4 -7 14 -8 22 -1 9 0 13 4 10 3 -4 7 -14 8 -22z m361 11 c0 -8 -4 -12
-9 -9 -5 3 -6 10 -3 15 9 13 12 11 12 -6z m76 -10 c-7 -21 -12 -19 -10 4 0 11
5 18 9 15 4 -3 5 -11 1 -19z m2582 15 c3 -5 1 -10 -4 -10 -6 0 -11 5 -11 10 0
6 2 10 4 10 3 0 8 -4 11 -10z m65 4 c0 -8 -19 -13 -24 -6 -3 5 1 9 9 9 8 0 15
-2 15 -3z m175 -4 c3 -5 1 -10 -4 -10 -6 0 -11 5 -11 10 0 6 2 10 4 10 3 0 8
-4 11 -10z m60 1 c-9 -8 -36 -10 -30 -2 2 4 11 8 20 8 8 0 13 -3 10 -6z m55 3
c0 -8 -19 -13 -24 -6 -3 5 1 9 9 9 8 0 15 -2 15 -3z m50 -4 c0 -5 -5 -10 -11
-10 -5 0 -7 5 -4 10 3 6 8 10 11 10 2 0 4 -4 4 -10z m-3460 -14 c0 -3 -4 -8
-10 -11 -5 -3 -10 -1 -10 4 0 6 5 11 10 11 6 0 10 -2 10 -4z m720 0 c0 -3 -4
-8 -10 -11 -5 -3 -10 -1 -10 4 0 6 5 11 10 11 6 0 10 -2 10 -4z m2276 -22 c1
-9 0 -13 -4 -10 -3 4 -7 14 -8 22 -1 9 0 13 4 10 3 -4 7 -14 8 -22z m519 7 c3
-5 2 -12 -3 -15 -5 -3 -9 1 -9 9 0 17 3 19 12 6z m-3001 -9 c3 -5 -1 -9 -9 -9
-8 0 -12 4 -9 9 3 4 7 8 9 8 2 0 6 -4 9 -8z m160 -1 c-9 -9 -34 -9 -34 -1 0 5
9 8 20 7 10 -1 17 -3 14 -6z m80 1 c3 -5 -1 -9 -9 -9 -8 0 -12 4 -9 9 3 4 7 8
9 8 2 0 6 -4 9 -8z m-714 -22 c0 -5 -5 -10 -11 -10 -5 0 -7 5 -4 10 3 6 8 10
11 10 2 0 4 -4 4 -10z m116 -5 c-1 -8 -5 -17 -8 -21 -5 -4 -4 16 1 34 3 9 9
-1 7 -13z m84 -11 c0 -8 -19 -13 -24 -6 -3 5 1 9 9 9 8 0 15 -2 15 -3z m60 -9
c0 -2 -9 -3 -19 -2 -11 0 -18 5 -15 9 4 6 34 0 34 -7z m240 5 c0 -5 -5 -10
-11 -10 -5 0 -7 5 -4 10 3 6 8 10 11 10 2 0 4 -4 4 -10z m76 -2 c3 -4 -1 -5
-10 -4 -8 1 -18 5 -22 8 -3 4 1 5 10 4 8 -1 18 -5 22 -8z m2324 -3 c0 -2 -9
-3 -19 -2 -11 0 -18 5 -15 9 4 6 34 0 34 -7z m214 7 c3 -5 -1 -9 -9 -9 -8 0
-12 4 -9 9 3 4 7 8 9 8 2 0 6 -4 9 -8z m41 -22 c3 -5 1 -10 -4 -10 -6 0 -11 5
-11 10 0 6 2 10 4 10 3 0 8 -4 11 -10z m45 0 c0 -5 -2 -10 -4 -10 -3 0 -8 5
-11 10 -3 6 -1 10 4 10 6 0 11 -4 11 -10z m280 6 c0 -3 -4 -8 -10 -11 -5 -3
-10 -1 -10 4 0 6 5 11 10 11 6 0 10 -2 10 -4z m55 -5 c3 -5 2 -12 -3 -15 -5
-3 -9 1 -9 9 0 17 3 19 12 6z m-3435 -15 c0 -3 -4 -8 -10 -11 -5 -3 -10 -1
-10 4 0 6 5 11 10 11 6 0 10 -2 10 -4z m175 -5 c3 -5 2 -12 -3 -15 -5 -3 -9 1
-9 9 0 17 3 19 12 6z m202 -13 c2 -17 0 -19 -7 -8 -5 8 -6 18 -4 22 8 12 10
10 11 -14z m283 12 c0 -5 -5 -10 -11 -10 -5 0 -7 5 -4 10 3 6 8 10 11 10 2 0
4 -4 4 -10z m100 6 c0 -3 -4 -8 -10 -11 -5 -3 -10 -1 -10 4 0 6 5 11 10 11 6
0 10 -2 10 -4z m1916 -8 c3 -4 -1 -5 -10 -4 -8 1 -18 5 -22 8 -3 4 1 5 10 4 8
-1 18 -5 22 -8z m480 0 c3 -4 -1 -5 -10 -4 -8 1 -18 5 -22 8 -3 4 1 5 10 4 8
-1 18 -5 22 -8z m178 0 c-3 -4 -11 -5 -19 -1 -21 7 -19 12 4 10 11 0 18 -5 15
-9z m-3518 -23 c-1 -8 -5 -17 -8 -21 -5 -4 -4 16 1 34 3 9 9 -1 7 -13z m320
-11 c1 -9 0 -13 -4 -10 -3 4 -7 14 -8 22 -1 9 0 13 4 10 3 -4 7 -14 8 -22z
m304 22 c0 -2 -7 -7 -16 -10 -8 -3 -12 -2 -9 4 6 10 25 14 25 6z m2380 0 c0
-3 -4 -8 -10 -11 -5 -3 -10 -1 -10 4 0 6 5 11 10 11 6 0 10 -2 10 -4z m-2790
-22 c0 -8 -19 -13 -24 -6 -3 5 1 9 9 9 8 0 15 -2 15 -3z m200 0 c0 -8 -19 -13
-24 -6 -3 5 1 9 9 9 8 0 15 -2 15 -3z m50 -4 c0 -5 -5 -10 -11 -10 -5 0 -7 5
-4 10 3 6 8 10 11 10 2 0 4 -4 4 -10z m2435 0 c3 -5 1 -10 -4 -10 -6 0 -11 5
-11 10 0 6 2 10 4 10 3 0 8 -4 11 -10z m380 1 c-9 -8 -36 -10 -30 -2 2 4 11 8
20 8 8 0 13 -3 10 -6z m175 3 c0 -8 -19 -13 -24 -6 -3 5 1 9 9 9 8 0 15 -2 15
-3z m-3394 -19 c-1 -8 -5 -17 -8 -21 -5 -4 -4 16 1 34 3 9 9 -1 7 -13z m-101
-5 c3 -5 1 -10 -4 -10 -6 0 -11 5 -11 10 0 6 2 10 4 10 3 0 8 -4 11 -10z m558
-5 c4 -8 3 -16 -1 -19 -4 -3 -9 4 -9 15 -2 23 3 25 10 4z m-396 -20 c0 -8 -4
-12 -9 -9 -5 3 -6 10 -3 15 9 13 12 11 12 -6z m223 5 c0 -5 -2 -10 -4 -10 -3
0 -8 5 -11 10 -3 6 -1 10 4 10 6 0 11 -4 11 -10z m334 2 c3 -5 -1 -9 -9 -9 -8
0 -12 4 -9 9 3 4 7 8 9 8 2 0 6 -4 9 -8z m50 0 c3 -5 -1 -9 -9 -9 -8 0 -12 4
-9 9 3 4 7 8 9 8 2 0 6 -4 9 -8z m2376 -2 c0 -5 -2 -10 -4 -10 -3 0 -8 5 -11
10 -3 6 -1 10 4 10 6 0 11 -4 11 -10z m255 1 c3 -5 2 -12 -3 -15 -5 -3 -9 1
-9 9 0 17 3 19 12 6z m-2417 -26 c-3 -3 -9 2 -12 12 -6 14 -5 15 5 6 7 -7 10
-15 7 -18z m2052 11 c0 -2 -8 -10 -17 -17 -16 -13 -17 -12 -4 4 13 16 21 21
21 13z m-2675 -15 c3 -5 2 -12 -3 -15 -5 -3 -9 1 -9 9 0 17 3 19 12 6z m-359
-16 c-1 -8 -5 -17 -8 -21 -5 -4 -4 16 1 34 3 9 9 -1 7 -13z m139 5 c3 -5 1
-10 -4 -10 -6 0 -11 5 -11 10 0 6 2 10 4 10 3 0 8 -4 11 -10z m418 -15 c-7
-21 -12 -19 -10 4 0 11 5 18 9 15 4 -3 5 -11 1 -19z m2867 15 c0 -5 -5 -10
-11 -10 -5 0 -7 5 -4 10 3 6 8 10 11 10 2 0 4 -4 4 -10z m-505 -29 c3 -5 2
-12 -3 -15 -5 -3 -9 1 -9 9 0 17 3 19 12 6z m-2955 -7 c0 -8 -19 -13 -24 -6
-3 5 1 9 9 9 8 0 15 -2 15 -3z m73 -19 c-7 -21 -12 -19 -10 4 0 11 5 18 9 15
4 -3 5 -11 1 -19z m241 17 c3 -5 -1 -9 -9 -9 -8 0 -12 4 -9 9 3 4 7 8 9 8 2 0
6 -4 9 -8z m240 -4 c-3 -4 -11 -5 -19 -1 -21 7 -19 12 4 10 11 0 18 -5 15 -9z
m201 3 c-9 -8 -36 -10 -30 -2 2 4 11 8 20 8 8 0 13 -3 10 -6z m61 -3 c3 -4 -1
-5 -10 -4 -8 1 -18 5 -22 8 -3 4 1 5 10 4 8 -1 18 -5 22 -8z m2724 7 c0 -7
-30 -13 -34 -7 -3 4 4 9 15 9 10 1 19 0 19 -2z m-3315 -25 c-3 -5 -12 -10 -18
-10 -7 0 -6 4 3 10 19 12 23 12 15 0z m-68 -15 c0 -8 -4 -12 -9 -9 -5 3 -6 10
-3 15 9 13 12 11 12 -6z m183 -5 c0 -5 -5 -10 -11 -10 -5 0 -7 5 -4 10 3 6 8
10 11 10 2 0 4 -4 4 -10z m190 4 c0 -8 -19 -13 -24 -6 -3 5 1 9 9 9 8 0 15 -2
15 -3z m50 -4 c0 -5 -5 -10 -11 -10 -5 0 -7 5 -4 10 3 6 8 10 11 10 2 0 4 -4
4 -10z m70 4 c0 -8 -19 -13 -24 -6 -3 5 1 9 9 9 8 0 15 -2 15 -3z m50 -4 c0
-5 -5 -10 -11 -10 -5 0 -7 5 -4 10 3 6 8 10 11 10 2 0 4 -4 4 -10z m2177 -12
c2 -17 0 -19 -7 -8 -5 8 -6 18 -4 22 8 12 10 10 11 -14z m78 13 c3 -5 2 -12
-3 -15 -5 -3 -9 1 -9 9 0 17 3 19 12 6z m815 3 c0 -8 -19 -13 -24 -6 -3 5 1 9
9 9 8 0 15 -2 15 -3z m-3755 -43 c-9 -8 -36 -10 -30 -2 2 4 11 8 20 8 8 0 13
-3 10 -6z m165 -1 c0 -5 -2 -10 -4 -10 -3 0 -8 5 -11 10 -3 6 -1 10 4 10 6 0
11 -4 11 -10z m80 6 c0 -3 -4 -8 -10 -11 -5 -3 -10 -1 -10 4 0 6 5 11 10 11 6
0 10 -2 10 -4z m177 -11 c0 -8 -4 -12 -9 -9 -5 3 -6 10 -3 15 9 13 12 11 12
-6z m120 0 c0 -8 -4 -12 -9 -9 -5 3 -6 10 -3 15 9 13 12 11 12 -6z m68 -15 c3
-6 -1 -7 -9 -4 -18 7 -21 14 -7 14 6 0 13 -4 16 -10z m3055 0 c0 -5 -2 -10 -4
-10 -3 0 -8 5 -11 10 -3 6 -1 10 4 10 6 0 11 -4 11 -10z m-3525 -19 c-9 -8
-36 -10 -30 -2 2 4 11 8 20 8 8 0 13 -3 10 -6z m135 3 c0 -8 -19 -13 -24 -6
-3 5 1 9 9 9 8 0 15 -2 15 -3z m186 -20 c1 -9 0 -13 -4 -10 -3 4 -7 14 -8 22
-1 9 0 13 4 10 3 -4 7 -14 8 -22z m-41 -4 c3 -5 1 -10 -4 -10 -6 0 -11 5 -11
10 0 6 2 10 4 10 3 0 8 -4 11 -10z m3240 -9 c3 -5 2 -12 -3 -15 -5 -3 -9 1 -9
9 0 17 3 19 12 6z m-3735 -11 c0 -5 -2 -10 -4 -10 -3 0 -8 5 -11 10 -3 6 -1
10 4 10 6 0 11 -4 11 -10z m716 -2 c3 -4 -1 -5 -10 -4 -8 1 -18 5 -22 8 -3 4
1 5 10 4 8 -1 18 -5 22 -8z m-466 -14 c0 -8 -19 -13 -24 -6 -3 5 1 9 9 9 8 0
15 -2 15 -3z m-116 -22 c2 -4 -5 -9 -17 -9 -17 -2 -19 0 -7 7 18 12 18 12 24
2z m83 -14 c2 -17 0 -19 -7 -8 -5 8 -6 18 -4 22 8 12 10 10 11 -14z m239 7
c-1 -8 -5 -17 -8 -21 -5 -4 -4 16 1 34 3 9 9 -1 7 -13z m64 5 c0 -5 -2 -10 -4
-10 -3 0 -8 5 -11 10 -3 6 -1 10 4 10 6 0 11 -4 11 -10z m-345 -20 c3 -5 1
-10 -4 -10 -6 0 -11 5 -11 10 0 6 2 10 4 10 3 0 8 -4 11 -10z m3685 4 c0 -8
-19 -13 -24 -6 -3 5 1 9 9 9 8 0 15 -2 15 -3z m-3904 -16 c-1 -7 -6 -23 -10
-36 -5 -14 -3 -28 4 -37 8 -10 8 -15 -2 -21 -7 -4 -10 -4 -6 1 4 4 3 14 -3 21
-6 8 -7 23 -3 36 4 13 7 29 6 36 -2 6 1 12 7 12 5 0 8 -6 7 -12z m44 -8 c0 -5
-2 -10 -4 -10 -3 0 -8 5 -11 10 -3 6 -1 10 4 10 6 0 11 -4 11 -10z m515 0 c3
-5 1 -10 -4 -10 -6 0 -11 5 -11 10 0 6 2 10 4 10 3 0 8 -4 11 -10z m189 2 c3
-5 -1 -9 -9 -9 -8 0 -12 4 -9 9 3 4 7 8 9 8 2 0 6 -4 9 -8z m3110 0 c3 -5 -1
-9 -9 -9 -8 0 -12 4 -9 9 3 4 7 8 9 8 2 0 6 -4 9 -8z m41 -22 c3 -5 1 -10 -4
-10 -6 0 -11 5 -11 10 0 6 2 10 4 10 3 0 8 -4 11 -10z m-3679 -36 c1 -9 0 -13
-4 -10 -3 4 -7 14 -8 22 -1 9 0 13 4 10 3 -4 7 -14 8 -22z m238 18 c2 -4 -5
-9 -17 -9 -17 -2 -19 0 -7 7 18 12 18 12 24 2z m56 2 c0 -8 -19 -13 -24 -6 -3
5 1 9 9 9 8 0 15 -2 15 -3z m170 -4 c0 -5 -5 -10 -11 -10 -5 0 -7 5 -4 10 3 6
8 10 11 10 2 0 4 -4 4 -10z m2576 -16 c1 -9 0 -13 -4 -10 -3 4 -7 14 -8 22 -1
9 0 13 4 10 3 -4 7 -14 8 -22z m-3202 -22 c3 -5 -1 -9 -9 -9 -8 0 -12 4 -9 9
3 4 7 8 9 8 2 0 6 -4 9 -8z m50 0 c3 -5 -1 -9 -9 -9 -8 0 -12 4 -9 9 3 4 7 8
9 8 2 0 6 -4 9 -8z m56 -2 c0 -5 -2 -10 -4 -10 -3 0 -8 5 -11 10 -3 6 -1 10 4
10 6 0 11 -4 11 -10z m497 -5 c0 -8 -4 -12 -9 -9 -5 3 -6 10 -3 15 9 13 12 11
12 -6z m2487 7 c3 -5 -1 -9 -9 -9 -8 0 -12 4 -9 9 3 4 7 8 9 8 2 0 6 -4 9 -8z
m56 -2 c0 -5 -2 -10 -4 -10 -3 0 -8 5 -11 10 -3 6 -1 10 4 10 6 0 11 -4 11
-10z m-2855 -20 c-3 -5 -12 -10 -18 -10 -7 0 -6 4 3 10 19 12 23 12 15 0z m80
0 c3 -6 -1 -7 -9 -4 -18 7 -21 14 -7 14 6 0 13 -4 16 -10z m2752 -15 c0 -8 -4
-12 -9 -9 -5 3 -6 10 -3 15 9 13 12 11 12 -6z m-2683 -3 c2 -4 -5 -9 -17 -9
-17 -2 -19 0 -7 7 18 12 18 12 24 2z m176 2 c0 -8 -19 -13 -24 -6 -3 5 1 9 9
9 8 0 15 -2 15 -3z m3255 -4 c-3 -5 -12 -10 -18 -10 -7 0 -6 4 3 10 19 12 23
12 15 0z m-3390 -20 c3 -5 1 -10 -4 -10 -6 0 -11 5 -11 10 0 6 2 10 4 10 3 0
8 -4 11 -10z m2685 0 c0 -5 -5 -10 -11 -10 -5 0 -7 5 -4 10 3 6 8 10 11 10 2
0 4 -4 4 -10z m-3086 -22 c-3 -4 -11 -5 -19 -1 -21 7 -19 12 4 10 11 0 18 -5
15 -9z m240 0 c-3 -4 -11 -5 -19 -1 -21 7 -19 12 4 10 11 0 18 -5 15 -9z
m2899 -13 c-3 -9 -8 -14 -10 -11 -3 3 -2 9 2 15 9 16 15 13 8 -4z m-340 -10
c4 -8 3 -16 -1 -19 -4 -3 -9 4 -9 15 -2 23 3 25 10 4z m-2693 -9 c0 -3 -4 -8
-10 -11 -5 -3 -10 -1 -10 4 0 6 5 11 10 11 6 0 10 -2 10 -4z m3140 -2 c0 -8
-19 -13 -24 -6 -3 5 1 9 9 9 8 0 15 -2 15 -3z m450 0 c0 -8 -19 -13 -24 -6 -3
5 1 9 9 9 8 0 15 -2 15 -3z m-3653 -33 c0 -11 -5 -18 -9 -15 -4 3 -5 11 -1 19
7 21 12 19 10 -4z m3043 9 c0 -5 -2 -10 -4 -10 -3 0 -8 5 -11 10 -3 6 -1 10 4
10 6 0 11 -4 11 -10z m115 0 c3 -5 1 -10 -4 -10 -6 0 -11 5 -11 10 0 6 2 10 4
10 3 0 8 -4 11 -10z m-3095 -20 c0 -5 -5 -10 -11 -10 -5 0 -7 5 -4 10 3 6 8
10 11 10 2 0 4 -4 4 -10z m2854 -2 c-3 -4 -11 -5 -19 -1 -21 7 -19 12 4 10 11
0 18 -5 15 -9z m82 -3 c-1 -8 -5 -17 -8 -21 -5 -4 -4 16 1 34 3 9 9 -1 7 -13z
m94 9 c0 -8 -19 -13 -24 -6 -3 5 1 9 9 9 8 0 15 -2 15 -3z m370 2 c0 -3 -4 -8
-10 -11 -5 -3 -10 -1 -10 4 0 6 5 11 10 11 6 0 10 -2 10 -4z m54 -4 c3 -5 -1
-9 -9 -9 -8 0 -12 4 -9 9 3 4 7 8 9 8 2 0 6 -4 9 -8z m-423 -35 c-10 -9 -11
-8 -5 6 3 10 9 15 12 12 3 -3 0 -11 -7 -18z m-414 -2 c0 -8 -4 -12 -9 -9 -5 3
-6 10 -3 15 9 13 12 11 12 -6z m159 -7 c3 -4 -1 -5 -10 -4 -8 1 -18 5 -22 8
-3 4 1 5 10 4 8 -1 18 -5 22 -8z m59 2 c3 -5 1 -10 -4 -10 -6 0 -11 5 -11 10
0 6 2 10 4 10 3 0 8 -4 11 -10z m440 0 c3 -5 1 -10 -4 -10 -6 0 -11 5 -11 10
0 6 2 10 4 10 3 0 8 -4 11 -10z m60 1 c-9 -8 -36 -10 -30 -2 2 4 11 8 20 8 8
0 13 -3 10 -6z m201 -17 c1 -9 0 -13 -4 -10 -3 4 -7 14 -8 22 -1 9 0 13 4 10
3 -4 7 -14 8 -22z m-876 -4 c0 -5 -5 -10 -11 -10 -5 0 -7 5 -4 10 3 6 8 10 11
10 2 0 4 -4 4 -10z m440 6 c0 -3 -4 -8 -10 -11 -5 -3 -10 -1 -10 4 0 6 5 11
10 11 6 0 10 -2 10 -4z m355 -15 c3 -5 2 -12 -3 -15 -5 -3 -9 1 -9 9 0 17 3
19 12 6z m-602 -26 c-7 -21 -12 -19 -10 4 0 11 5 18 9 15 4 -3 5 -11 1 -19z
m281 17 c3 -5 -1 -9 -9 -9 -8 0 -12 4 -9 9 3 4 7 8 9 8 2 0 6 -4 9 -8z m266 3
c0 -7 -30 -13 -34 -7 -3 4 4 9 15 9 10 1 19 0 19 -2z m-3424 -30 c-1 -8 -5
-17 -8 -21 -5 -4 -4 16 1 34 3 9 9 -1 7 -13z m2764 5 c0 -5 -2 -10 -4 -10 -3
0 -8 5 -11 10 -3 6 -1 10 4 10 6 0 11 -4 11 -10z m796 -5 c-1 -8 -5 -17 -8
-21 -5 -4 -4 16 1 34 3 9 9 -1 7 -13z m-79 -27 c2 -17 0 -19 -7 -8 -5 8 -6 18
-4 22 8 12 10 10 11 -14z m243 16 c0 -8 -19 -13 -24 -6 -3 5 1 9 9 9 8 0 15
-2 15 -3z m-1000 -18 c0 -3 -4 -8 -10 -11 -5 -3 -10 -1 -10 4 0 6 5 11 10 11
6 0 10 -2 10 -4z m276 -11 c-1 -8 -5 -17 -8 -21 -5 -4 -4 16 1 34 3 9 9 -1 7
-13z m244 5 c0 -5 -2 -10 -4 -10 -3 0 -8 5 -11 10 -3 6 -1 10 4 10 6 0 11 -4
11 -10z m-485 -9 c3 -5 2 -12 -3 -15 -5 -3 -9 1 -9 9 0 17 3 19 12 6z m-2775
-5 c0 -3 -4 -8 -10 -11 -5 -3 -10 -1 -10 4 0 6 5 11 10 11 6 0 10 -2 10 -4z
m2574 -8 c-3 -4 -11 -5 -19 -1 -21 7 -19 12 4 10 11 0 18 -5 15 -9z m120 0
c-3 -4 -11 -5 -19 -1 -21 7 -19 12 4 10 11 0 18 -5 15 -9z m522 -13 c-1 -13
-4 -27 -7 -30 -5 -4 -4 41 0 53 4 10 8 -2 7 -23z m100 13 c3 -4 -1 -5 -10 -4
-8 1 -18 5 -22 8 -3 4 1 5 10 4 8 -1 18 -5 22 -8z m244 8 c0 -3 -4 -8 -10 -11
-5 -3 -10 -1 -10 4 0 6 5 11 10 11 6 0 10 -2 10 -4z m-487 -21 c-3 -9 -8 -14
-10 -11 -3 3 -2 9 2 15 9 16 15 13 8 -4z m92 -5 c-3 -5 -12 -10 -18 -10 -7 0
-6 4 3 10 19 12 23 12 15 0z m-3170 -20 c3 -5 1 -10 -4 -10 -6 0 -11 5 -11 10
0 6 2 10 4 10 3 0 8 -4 11 -10z m2600 1 c-9 -8 -36 -10 -30 -2 2 4 11 8 20 8
8 0 13 -3 10 -6z m960 -1 c3 -5 1 -10 -4 -10 -6 0 -11 5 -11 10 0 6 2 10 4 10
3 0 8 -4 11 -10z m-1015 -20 c0 -5 -5 -10 -11 -10 -5 0 -7 5 -4 10 3 6 8 10
11 10 2 0 4 -4 4 -10z m240 0 c0 -5 -2 -10 -4 -10 -3 0 -8 5 -11 10 -3 6 -1
10 4 10 6 0 11 -4 11 -10z m240 0 c0 -5 -2 -10 -4 -10 -3 0 -8 5 -11 10 -3 6
-1 10 4 10 6 0 11 -4 11 -10z m477 -9 c0 -11 -5 -18 -9 -15 -4 3 -5 11 -1 19
7 21 12 19 10 -4z m-3484 -26 c-7 -21 -12 -19 -10 4 0 11 5 18 9 15 4 -3 5
-11 1 -19z m2971 17 c3 -5 -1 -9 -9 -9 -8 0 -12 4 -9 9 3 4 7 8 9 8 2 0 6 -4
9 -8z m96 3 c0 -7 -30 -13 -34 -7 -3 4 4 9 15 9 10 1 19 0 19 -2z m56 -7 c3
-4 -1 -5 -10 -4 -8 1 -18 5 -22 8 -3 4 1 5 10 4 8 -1 18 -5 22 -8z m64 8 c0
-3 -4 -8 -10 -11 -5 -3 -10 -1 -10 4 0 6 5 11 10 11 6 0 10 -2 10 -4z m174 -4
c3 -5 -1 -9 -9 -9 -8 0 -12 4 -9 9 3 4 7 8 9 8 2 0 6 -4 9 -8z m-3413 -19 c13
-16 12 -17 -3 -4 -10 7 -18 15 -18 17 0 8 8 3 21 -13z m2639 13 c0 -2 -8 -10
-17 -17 -16 -13 -17 -12 -4 4 13 16 21 21 21 13z m176 -21 c-1 -8 -5 -17 -8
-21 -5 -4 -4 16 1 34 3 9 9 -1 7 -13z m319 -14 c-9 -8 -36 -10 -30 -2 2 4 11
8 20 8 8 0 13 -3 10 -6z m141 -3 c3 -4 -1 -5 -10 -4 -8 1 -18 5 -22 8 -3 4 1
5 10 4 8 -1 18 -5 22 -8z m199 3 c-9 -8 -36 -10 -30 -2 2 4 11 8 20 8 8 0 13
-3 10 -6z m60 0 c3 -5 2 -12 -3 -15 -5 -3 -9 1 -9 9 0 17 3 19 12 6z m-839
-37 c1 -9 0 -13 -4 -10 -3 4 -7 14 -8 22 -1 9 0 13 4 10 3 -4 7 -14 8 -22z
m224 2 c0 -3 -4 -8 -10 -11 -5 -3 -10 -1 -10 4 0 6 5 11 10 11 6 0 10 -2 10
-4z m53 -21 c-7 -21 -12 -19 -10 4 0 11 5 18 9 15 4 -3 5 -11 1 -19z m442 16
c-9 -8 -36 -10 -30 -2 2 4 11 8 20 8 8 0 13 -3 10 -6z m-395 -21 c0 -5 -5 -10
-11 -10 -5 0 -7 5 -4 10 3 6 8 10 11 10 2 0 4 -4 4 -10z m220 4 c0 -8 -19 -13
-24 -6 -3 5 1 9 9 9 8 0 15 -2 15 -3z m256 -9 c-3 -23 -12 -26 -13 -5 -1 11 2
20 7 20 4 0 7 -7 6 -15z m-3425 -28 c-10 -9 -11 -8 -5 6 3 10 9 15 12 12 3 -3
0 -11 -7 -18z m2799 17 c0 -8 -19 -13 -24 -6 -3 5 1 9 9 9 8 0 15 -2 15 -3z
m50 -4 c0 -5 -5 -10 -11 -10 -5 0 -7 5 -4 10 3 6 8 10 11 10 2 0 4 -4 4 -10z
m257 -5 c0 -8 -4 -12 -9 -9 -5 3 -6 10 -3 15 9 13 12 11 12 -6z m76 -10 c-7
-21 -12 -19 -10 4 0 11 5 18 9 15 4 -3 5 -11 1 -19z m107 10 c0 -2 -9 -3 -19
-2 -11 0 -18 5 -15 9 4 6 34 0 34 -7z m-784 -20 c-1 -8 -5 -17 -8 -21 -5 -4
-4 16 1 34 3 9 9 -1 7 -13z m124 11 c0 -3 -4 -8 -10 -11 -5 -3 -10 -1 -10 4 0
6 5 11 10 11 6 0 10 -2 10 -4z m597 -15 c0 -11 -5 -18 -9 -15 -4 3 -5 11 -1
19 7 21 12 19 10 -4z m-3160 -6 c0 -8 -4 -12 -9 -9 -5 3 -6 10 -3 15 9 13 12
11 12 -6z m2918 6 c3 -5 2 -12 -3 -15 -5 -3 -9 1 -9 9 0 17 3 19 12 6z m-2855
-11 c0 -5 -2 -10 -4 -10 -3 0 -8 5 -11 10 -3 6 -1 10 4 10 6 0 11 -4 11 -10z
m80 6 c0 -3 -4 -8 -10 -11 -5 -3 -10 -1 -10 4 0 6 5 11 10 11 6 0 10 -2 10 -4z
m2240 0 c0 -3 -4 -8 -10 -11 -5 -3 -10 -1 -10 4 0 6 5 11 10 11 6 0 10 -2 10
-4z m140 -2 c0 -8 -19 -13 -24 -6 -3 5 1 9 9 9 8 0 15 -2 15 -3z m237 -9 c0
-8 -4 -12 -9 -9 -5 3 -6 10 -3 15 9 13 12 11 12 -6z m583 11 c0 -3 -4 -8 -10
-11 -5 -3 -10 -1 -10 4 0 6 5 11 10 11 6 0 10 -2 10 -4z m-943 -41 c0 -8 -4
-12 -9 -9 -5 3 -6 10 -3 15 9 13 12 11 12 -6z m-2337 -5 c0 -5 -5 -10 -11 -10
-5 0 -7 5 -4 10 3 6 8 10 11 10 2 0 4 -4 4 -10z m2375 1 c3 -5 2 -12 -3 -15
-5 -3 -9 1 -9 9 0 17 3 19 12 6z m241 -17 c1 -9 0 -13 -4 -10 -3 4 -7 14 -8
22 -1 9 0 13 4 10 3 -4 7 -14 8 -22z m481 4 c2 -17 0 -19 -7 -8 -5 8 -6 18 -4
22 8 12 10 10 11 -14z m-237 -8 c0 -5 -2 -10 -4 -10 -3 0 -8 5 -11 10 -3 6 -1
10 4 10 6 0 11 -4 11 -10z m-2796 -18 c3 -5 -1 -9 -9 -9 -8 0 -12 4 -9 9 3 4
7 8 9 8 2 0 6 -4 9 -8z m2856 3 c0 -7 -30 -13 -34 -7 -3 4 4 9 15 9 10 1 19 0
19 -2z m240 1 c0 -3 -4 -8 -10 -11 -5 -3 -10 -1 -10 4 0 6 5 11 10 11 6 0 10
-2 10 -4z m240 0 c0 -3 -4 -8 -10 -11 -5 -3 -10 -1 -10 4 0 6 5 11 10 11 6 0
10 -2 10 -4z m56 -8 c3 -4 -1 -5 -10 -4 -8 1 -18 5 -22 8 -3 4 1 5 10 4 8 -1
18 -5 22 -8z m-3279 -33 c0 -8 -4 -12 -9 -9 -5 3 -6 10 -3 15 9 13 12 11 12
-6z m2278 6 c3 -5 2 -12 -3 -15 -5 -3 -9 1 -9 9 0 17 3 19 12 6z m240 0 c3 -5
2 -12 -3 -15 -5 -3 -9 1 -9 9 0 17 3 19 12 6z m240 0 c3 -5 2 -12 -3 -15 -5
-3 -9 1 -9 9 0 17 3 19 12 6z m240 0 c3 -5 2 -12 -3 -15 -5 -3 -9 1 -9 9 0 17
3 19 12 6z m-799 -13 c3 -4 -1 -5 -10 -4 -8 1 -18 5 -22 8 -3 4 1 5 10 4 8 -1
18 -5 22 -8z m480 0 c3 -4 -1 -5 -10 -4 -8 1 -18 5 -22 8 -3 4 1 5 10 4 8 -1
18 -5 22 -8z m544 -3 c0 -2 -9 -3 -19 -2 -11 0 -18 5 -15 9 4 6 34 0 34 -7z
m-1075 -15 c3 -6 -1 -7 -9 -4 -18 7 -21 14 -7 14 6 0 13 -4 16 -10z m90 0 c3
-5 1 -10 -4 -10 -6 0 -11 5 -11 10 0 6 2 10 4 10 3 0 8 -4 11 -10z m241 -16
c1 -9 0 -13 -4 -10 -3 4 -7 14 -8 22 -1 9 0 13 4 10 3 -4 7 -14 8 -22z m239
16 c3 -5 1 -10 -4 -10 -6 0 -11 5 -11 10 0 6 2 10 4 10 3 0 8 -4 11 -10z m240
0 c3 -5 1 -10 -4 -10 -6 0 -11 5 -11 10 0 6 2 10 4 10 3 0 8 -4 11 -10z m202
-9 c0 -11 -5 -18 -9 -15 -4 3 -5 11 -1 19 7 21 12 19 10 -4z m-983 -41 c-6 -6
-10 -3 -10 10 0 13 4 16 10 10 7 -7 7 -13 0 -20z m244 5 c-3 -3 -9 2 -12 12
-6 14 -5 15 5 6 7 -7 10 -15 7 -18z m480 0 c-3 -3 -9 2 -12 12 -6 14 -5 15 5
6 7 -7 10 -15 7 -18z m-568 -11 c0 -8 -19 -13 -24 -6 -3 5 1 9 9 9 8 0 15 -2
15 -3z m74 -2 c3 -5 -1 -9 -9 -9 -8 0 -12 4 -9 9 3 4 7 8 9 8 2 0 6 -4 9 -8z
m406 2 c0 -8 -19 -13 -24 -6 -3 5 1 9 9 9 8 0 15 -2 15 -3z m285 -3 c-9 -8
-36 -10 -30 -2 2 4 11 8 20 8 8 0 13 -3 10 -6z m60 0 c3 -5 2 -12 -3 -15 -5
-3 -9 1 -9 9 0 17 3 19 12 6z m-795 -21 c0 -5 -5 -10 -11 -10 -5 0 -7 5 -4 10
3 6 8 10 11 10 2 0 4 -4 4 -10z m120 6 c0 -3 -4 -8 -10 -11 -5 -3 -10 -1 -10
4 0 6 5 11 10 11 6 0 10 -2 10 -4z m360 -6 c0 -5 -5 -10 -11 -10 -5 0 -7 5 -4
10 3 6 8 10 11 10 2 0 4 -4 4 -10z m120 6 c0 -3 -4 -8 -10 -11 -5 -3 -10 -1
-10 4 0 6 5 11 10 11 6 0 10 -2 10 -4z m317 -21 c0 -8 -4 -12 -9 -9 -5 3 -6
10 -3 15 9 13 12 11 12 -6z m38 6 c3 -5 2 -12 -3 -15 -5 -3 -9 1 -9 9 0 17 3
19 12 6z m-875 -7 c0 -8 -19 -13 -24 -6 -3 5 1 9 9 9 8 0 15 -2 15 -3z m175
-3 c-9 -8 -36 -10 -30 -2 2 4 11 8 20 8 8 0 13 -3 10 -6z m45 -1 c0 -5 -2 -10
-4 -10 -3 0 -8 5 -11 10 -3 6 -1 10 4 10 6 0 11 -4 11 -10z m260 4 c0 -8 -19
-13 -24 -6 -3 5 1 9 9 9 8 0 15 -2 15 -3z m75 -3 c3 -5 2 -12 -3 -15 -5 -3 -9
1 -9 9 0 17 3 19 12 6z m70 -21 c-3 -5 -12 -10 -18 -10 -7 0 -6 4 3 10 19 12
23 12 15 0z m51 -5 c-3 -23 -12 -26 -13 -5 -1 11 2 20 7 20 4 0 7 -7 6 -15z
m-2722 -13 c3 -5 -1 -9 -9 -9 -8 0 -12 4 -9 9 3 4 7 8 9 8 2 0 6 -4 9 -8z
m176 2 c0 -8 -19 -13 -24 -6 -3 5 1 9 9 9 8 0 15 -2 15 -3z m50 -4 c0 -5 -5
-10 -11 -10 -5 0 -7 5 -4 10 3 6 8 10 11 10 2 0 4 -4 4 -10z m1657 -12 c2 -17
0 -19 -7 -8 -5 8 -6 18 -4 22 8 12 10 10 11 -14z m253 16 c0 -8 -19 -13 -24
-6 -3 5 1 9 9 9 8 0 15 -2 15 -3z m225 -3 c3 -5 2 -12 -3 -15 -5 -3 -9 1 -9 9
0 17 3 19 12 6z m-98 -16 c0 -8 -4 -12 -9 -9 -5 3 -6 10 -3 15 9 13 12 11 12
-6z m-2060 -30 c0 -8 -4 -12 -9 -9 -5 3 -6 10 -3 15 9 13 12 11 12 -6z m87 7
c3 -5 -1 -9 -9 -9 -8 0 -12 4 -9 9 3 4 7 8 9 8 2 0 6 -4 9 -8z m1951 -1 c-9
-8 -36 -10 -30 -2 2 4 11 8 20 8 8 0 13 -3 10 -6z m401 -3 c3 -4 -1 -5 -10 -4
-8 1 -18 5 -22 8 -3 4 1 5 10 4 8 -1 18 -5 22 -8z m64 8 c0 -3 -4 -8 -10 -11
-5 -3 -10 -1 -10 4 0 6 5 11 10 11 6 0 10 -2 10 -4z m-602 -31 c-3 -3 -9 2
-12 12 -6 14 -5 15 5 6 7 -7 10 -15 7 -18z m-2141 -4 c0 -11 -5 -18 -9 -15 -4
3 -5 11 -1 19 7 21 12 19 10 -4z m2403 9 c0 -5 -5 -10 -11 -10 -5 0 -7 5 -4
10 3 6 8 10 11 10 2 0 4 -4 4 -10z m113 -5 c4 -8 3 -16 -1 -19 -4 -3 -9 4 -9
15 -2 23 3 25 10 4z m244 -10 c0 -8 -4 -12 -9 -9 -5 3 -6 10 -3 15 9 13 12 11
12 -6z m-2662 -4 c-9 -8 -36 -10 -30 -2 2 4 11 8 20 8 8 0 13 -3 10 -6z m61
-17 c1 -9 0 -13 -4 -10 -3 4 -7 14 -8 22 -1 9 0 13 4 10 3 -4 7 -14 8 -22z
m341 -9 c0 -8 -4 -12 -9 -9 -5 3 -6 10 -3 15 9 13 12 11 12 -6z m1617 -1 c3
-8 2 -12 -4 -9 -6 3 -10 10 -10 16 0 14 7 11 14 -7z m-2080 -16 c-3 -4 -11 -5
-19 -1 -21 7 -19 12 4 10 11 0 18 -5 15 -9z m416 6 c0 -8 -19 -13 -24 -6 -3 5
1 9 9 9 8 0 15 -2 15 -3z m1984 -6 c-3 -4 -11 -5 -19 -1 -21 7 -19 12 4 10 11
0 18 -5 15 -9z m66 8 c0 -3 -4 -8 -10 -11 -5 -3 -10 -1 -10 4 0 6 5 11 10 11
6 0 10 -2 10 -4z m355 -5 c-9 -8 -36 -10 -30 -2 2 4 11 8 20 8 8 0 13 -3 10
-6z m45 -1 c0 -5 -2 -10 -4 -10 -3 0 -8 5 -11 10 -3 6 -1 10 4 10 6 0 11 -4
11 -10z m-2780 -14 c0 -3 -4 -8 -10 -11 -5 -3 -10 -1 -10 4 0 6 5 11 10 11 6
0 10 -2 10 -4z m40 -6 c0 -5 -5 -10 -11 -10 -5 0 -7 5 -4 10 3 6 8 10 11 10 2
0 4 -4 4 -10z m357 -9 c0 -11 -5 -18 -9 -15 -4 3 -5 11 -1 19 7 21 12 19 10
-4z m1973 -7 c0 -8 -19 -13 -24 -6 -3 5 1 9 9 9 8 0 15 -2 15 -3z m50 -4 c0
-5 -5 -10 -11 -10 -5 0 -7 5 -4 10 3 6 8 10 11 10 2 0 4 -4 4 -10z m195 0 c3
-5 1 -10 -4 -10 -6 0 -11 5 -11 10 0 6 2 10 4 10 3 0 8 -4 11 -10z m65 4 c0
-8 -19 -13 -24 -6 -3 5 1 9 9 9 8 0 15 -2 15 -3z m-2244 -29 c-1 -8 -5 -17 -8
-21 -5 -4 -4 16 1 34 3 9 9 -1 7 -13z m2040 0 c-1 -8 -5 -17 -8 -21 -5 -4 -4
16 1 34 3 9 9 -1 7 -13z m-2479 -10 c0 -8 -4 -12 -9 -9 -5 3 -6 10 -3 15 9 13
12 11 12 -6z m240 0 c0 -8 -4 -12 -9 -9 -5 3 -6 10 -3 15 9 13 12 11 12 -6z
m-403 -7 c-3 -4 -11 -5 -19 -1 -21 7 -19 12 4 10 11 0 18 -5 15 -9z m481 3
c-9 -8 -36 -10 -30 -2 2 4 11 8 20 8 8 0 13 -3 10 -6z m1999 -3 c-3 -4 -11 -5
-19 -1 -21 7 -19 12 4 10 11 0 18 -5 15 -9z m321 3 c3 -5 2 -12 -3 -15 -5 -3
-9 1 -9 9 0 17 3 19 12 6z m120 0 c3 -5 2 -12 -3 -15 -5 -3 -9 1 -9 9 0 17 3
19 12 6z m-2255 -15 c0 -3 -4 -8 -10 -11 -5 -3 -10 -1 -10 4 0 6 5 11 10 11 6
0 10 -2 10 -4z m-585 -15 c3 -5 2 -12 -3 -15 -5 -3 -9 1 -9 9 0 17 3 19 12 6z
m260 -10 c-9 -8 -36 -10 -30 -2 2 4 11 8 20 8 8 0 13 -3 10 -6z m58 -16 c-7
-21 -12 -19 -10 4 0 11 5 18 9 15 4 -3 5 -11 1 -19z m2091 17 c3 -5 -1 -9 -9
-9 -8 0 -12 4 -9 9 3 4 7 8 9 8 2 0 6 -4 9 -8z m230 0 c2 -4 -5 -9 -17 -9 -17
-2 -19 0 -7 7 18 12 18 12 24 2z m162 -7 c-1 -8 -5 -17 -8 -21 -5 -4 -4 16 1
34 3 9 9 -1 7 -13z m-2596 -15 c0 -5 -5 -10 -11 -10 -5 0 -7 5 -4 10 3 6 8 10
11 10 2 0 4 -4 4 -10z m320 0 c0 -5 -2 -10 -4 -10 -3 0 -8 5 -11 10 -3 6 -1
10 4 10 6 0 11 -4 11 -10z m2320 0 c0 -5 -5 -10 -11 -10 -5 0 -7 5 -4 10 3 6
8 10 11 10 2 0 4 -4 4 -10z m-2860 -14 c0 -3 -4 -8 -10 -11 -5 -3 -10 -1 -10
4 0 6 5 11 10 11 6 0 10 -2 10 -4z m271 -19 c-10 -9 -11 -8 -5 6 3 10 9 15 12
12 3 -3 0 -11 -7 -18z m226 8 c0 -8 -4 -12 -9 -9 -5 3 -6 10 -3 15 9 13 12 11
12 -6z m-561 -31 c1 -9 0 -13 -4 -10 -3 4 -7 14 -8 22 -1 9 0 13 4 10 3 -4 7
-14 8 -22z m2684 16 c0 -5 -4 -10 -10 -10 -5 0 -10 5 -10 10 0 6 5 10 10 10 6
0 10 -4 10 -10z m220 -4 c0 -2 -6 -9 -14 -15 -11 -9 -16 -9 -22 0 -4 7 -3 9 4
5 6 -3 13 -2 17 4 6 10 15 14 15 6z m-2840 -16 c0 -5 -5 -10 -11 -10 -5 0 -7
5 -4 10 3 6 8 10 11 10 2 0 4 -4 4 -10z m257 -5 c0 -8 -4 -12 -9 -9 -5 3 -6
10 -3 15 9 13 12 11 12 -6z m403 -9 c0 -3 -4 -8 -10 -11 -5 -3 -10 -1 -10 4 0
6 5 11 10 11 6 0 10 -2 10 -4z m160 0 c0 -3 -4 -8 -10 -11 -5 -3 -10 -1 -10 4
0 6 5 11 10 11 6 0 10 -2 10 -4z m-844 -31 c-1 -8 -5 -17 -8 -21 -5 -4 -4 16
1 34 3 9 9 -1 7 -13z m488 7 c3 -5 -1 -9 -9 -9 -8 0 -12 4 -9 9 3 4 7 8 9 8 2
0 6 -4 9 -8z m310 -1 c-9 -9 -34 -9 -34 -1 0 5 9 8 20 7 10 -1 17 -3 14 -6z
m80 1 c3 -5 -1 -9 -9 -9 -8 0 -12 4 -9 9 3 4 7 8 9 8 2 0 6 -4 9 -8z m1576 2
c0 -8 -19 -13 -24 -6 -3 5 1 9 9 9 8 0 15 -2 15 -3z m224 -6 c-3 -4 -11 -5
-19 -1 -21 7 -19 12 4 10 11 0 18 -5 15 -9z m83 -3 c0 -8 -4 -12 -9 -9 -5 3
-6 10 -3 15 9 13 12 11 12 -6z m-2637 -9 c0 -3 -4 -8 -10 -11 -5 -3 -10 -1
-10 4 0 6 5 11 10 11 6 0 10 -2 10 -4z m37 -15 c0 -11 -5 -18 -9 -15 -4 3 -5
11 -1 19 7 21 12 19 10 -4z m118 9 c3 -5 1 -10 -4 -10 -6 0 -11 5 -11 10 0 6
2 10 4 10 3 0 8 -4 11 -10z m362 -9 c0 -11 -5 -18 -9 -15 -4 3 -5 11 -1 19 7
21 12 19 10 -4z m279 4 c-1 -8 -5 -17 -8 -21 -5 -4 -4 16 1 34 3 9 9 -1 7 -13z
m119 -4 c3 -5 2 -12 -3 -15 -5 -3 -9 1 -9 9 0 17 3 19 12 6z m-1144 -18 c13
-16 12 -17 -3 -4 -10 7 -18 15 -18 17 0 8 8 3 21 -13z m845 5 c3 -4 -1 -5 -10
-4 -8 1 -18 5 -22 8 -3 4 1 5 10 4 8 -1 18 -5 22 -8z m1860 -14 c1 -9 0 -13
-4 -10 -3 4 -7 14 -8 22 -1 9 0 13 4 10 3 -4 7 -14 8 -22z m139 16 c3 -5 1
-10 -4 -10 -6 0 -11 5 -11 10 0 6 2 10 4 10 3 0 8 -4 11 -10z m60 1 c3 -5 2
-12 -3 -15 -5 -3 -9 1 -9 9 0 17 3 19 12 6z m-2679 -37 c1 -9 0 -13 -4 -10 -3
4 -7 14 -8 22 -1 9 0 13 4 10 3 -4 7 -14 8 -22z m64 -4 c0 -5 -2 -10 -4 -10
-3 0 -8 5 -11 10 -3 6 -1 10 4 10 6 0 11 -4 11 -10z m76 -2 c3 -4 -1 -5 -10
-4 -8 1 -18 5 -22 8 -3 4 1 5 10 4 8 -1 18 -5 22 -8z m178 0 c-3 -4 -11 -5
-19 -1 -21 7 -19 12 4 10 11 0 18 -5 15 -9z m62 0 c3 -4 -1 -5 -10 -4 -8 1
-18 5 -22 8 -3 4 1 5 10 4 8 -1 18 -5 22 -8z m178 0 c-3 -4 -11 -5 -19 -1 -21
7 -19 12 4 10 11 0 18 -5 15 -9z m226 8 c0 -3 -4 -8 -10 -11 -5 -3 -10 -1 -10
4 0 6 5 11 10 11 6 0 10 -2 10 -4z m54 -4 c3 -5 -1 -9 -9 -9 -8 0 -12 4 -9 9
3 4 7 8 9 8 2 0 6 -4 9 -8z m1530 0 c3 -5 -1 -9 -9 -9 -8 0 -12 4 -9 9 3 4 7
8 9 8 2 0 6 -4 9 -8z m56 -2 c0 -5 -2 -10 -4 -10 -3 0 -8 5 -11 10 -3 6 -1 10
4 10 6 0 11 -4 11 -10z m215 1 c3 -5 2 -12 -3 -15 -5 -3 -9 1 -9 9 0 17 3 19
12 6z m-2805 -17 c0 -8 -19 -13 -24 -6 -3 5 1 9 9 9 8 0 15 -2 15 -3z m594 -2
c3 -5 -1 -9 -9 -9 -8 0 -12 4 -9 9 3 4 7 8 9 8 2 0 6 -4 9 -8z m61 -2 c-3 -5
-12 -10 -18 -10 -7 0 -6 4 3 10 19 12 23 12 15 0z m-250 -9 c3 -5 2 -12 -3
-15 -5 -3 -9 1 -9 9 0 17 3 19 12 6z m580 -11 c3 -5 1 -10 -4 -10 -6 0 -11 5
-11 10 0 6 2 10 4 10 3 0 8 -4 11 -10z m65 4 c0 -8 -19 -13 -24 -6 -3 5 1 9 9
9 8 0 15 -2 15 -3z m55 -4 c3 -5 1 -10 -4 -10 -6 0 -11 5 -11 10 0 6 2 10 4
10 3 0 8 -4 11 -10z m65 4 c0 -8 -19 -13 -24 -6 -3 5 1 9 9 9 8 0 15 -2 15 -3z
m1434 -2 c2 -4 -5 -9 -17 -9 -17 -2 -19 0 -7 7 18 12 18 12 24 2z m181 -2 c3
-5 1 -10 -4 -10 -6 0 -11 5 -11 10 0 6 2 10 4 10 3 0 8 -4 11 -10z m-1858 -29
c0 -11 -5 -18 -9 -15 -4 3 -5 11 -1 19 7 21 12 19 10 -4z m1718 9 c3 -5 1 -10
-4 -10 -6 0 -11 5 -11 10 0 6 2 10 4 10 3 0 8 -4 11 -10z m-1960 -9 c3 -5 2
-12 -3 -15 -5 -3 -9 1 -9 9 0 17 3 19 12 6z m-500 -10 c-9 -8 -36 -10 -30 -2
2 4 11 8 20 8 8 0 13 -3 10 -6z m205 5 c0 -3 -4 -8 -10 -11 -5 -3 -10 -1 -10
4 0 6 5 11 10 11 6 0 10 -2 10 -4z m174 -4 c3 -5 -1 -9 -9 -9 -8 0 -12 4 -9 9
3 4 7 8 9 8 2 0 6 -4 9 -8z m66 3 c0 -7 -30 -13 -34 -7 -3 4 4 9 15 9 10 1 19
0 19 -2z m137 -40 c0 -8 -4 -12 -9 -9 -5 3 -6 10 -3 15 9 13 12 11 12 -6z
m-622 -5 c3 -5 1 -10 -4 -10 -6 0 -11 5 -11 10 0 6 2 10 4 10 3 0 8 -4 11 -10z
m180 1 c-9 -8 -36 -10 -30 -2 2 4 11 8 20 8 8 0 13 -3 10 -6z m185 -1 c0 -5
-2 -10 -4 -10 -3 0 -8 5 -11 10 -3 6 -1 10 4 10 6 0 11 -4 11 -10z m360 -5 c0
-2 -9 -3 -19 -2 -11 0 -18 5 -15 9 4 6 34 0 34 -7z m-307 -20 c4 -8 3 -16 -1
-19 -4 -3 -9 4 -9 15 -2 23 3 25 10 4z m1883 -11 c1 -9 0 -13 -4 -10 -3 4 -7
14 -8 22 -1 9 0 13 4 10 3 -4 7 -14 8 -22z m79 7 c3 -5 2 -12 -3 -15 -5 -3 -9
1 -9 9 0 17 3 19 12 6z m-2362 -26 c-7 -21 -12 -19 -10 4 0 11 5 18 9 15 4 -3
5 -11 1 -19z m342 15 c3 -5 1 -10 -4 -10 -6 0 -11 5 -11 10 0 6 2 10 4 10 3 0
8 -4 11 -10z m299 -2 c-3 -4 -11 -5 -19 -1 -21 7 -19 12 4 10 11 0 18 -5 15
-9z m1777 -15 c-12 -20 -14 -14 -5 12 4 9 9 14 11 11 3 -2 0 -13 -6 -23z
m-2375 -19 c1 -9 0 -13 -4 -10 -3 4 -7 14 -8 22 -1 9 0 13 4 10 3 -4 7 -14 8
-22z m55 9 c13 -16 12 -17 -3 -4 -17 13 -22 21 -14 21 2 0 10 -8 17 -17z m106
-2 c0 -11 -5 -18 -9 -15 -4 3 -5 11 -1 19 7 21 12 19 10 -4z m519 4 c-3 -23
-12 -26 -13 -5 -1 11 2 20 7 20 4 0 7 -7 6 -15z m-426 -11 c0 -8 -19 -13 -24
-6 -3 5 1 9 9 9 8 0 15 -2 15 -3z m106 -9 c-1 -8 -5 -17 -8 -21 -5 -4 -4 16 1
34 3 9 9 -1 7 -13z m179 5 c3 -5 1 -10 -4 -10 -6 0 -11 5 -11 10 0 6 2 10 4
10 3 0 8 -4 11 -10z m65 4 c0 -8 -19 -13 -24 -6 -3 5 1 9 9 9 8 0 15 -2 15 -3z
m-124 -40 c1 -9 0 -13 -4 -10 -3 4 -7 14 -8 22 -1 9 0 13 4 10 3 -4 7 -14 8
-22z m1844 16 c0 -5 -2 -10 -4 -10 -3 0 -8 5 -11 10 -3 6 -1 10 4 10 6 0 11
-4 11 -10z m76 -5 c-1 -8 -5 -17 -8 -21 -5 -4 -4 16 1 34 3 9 9 -1 7 -13z
m-2376 -15 c0 -5 -2 -10 -4 -10 -3 0 -8 5 -11 10 -3 6 -1 10 4 10 6 0 11 -4
11 -10z m160 0 c0 -5 -2 -10 -4 -10 -3 0 -8 5 -11 10 -3 6 -1 10 4 10 6 0 11
-4 11 -10z m214 2 c3 -5 -1 -9 -9 -9 -8 0 -12 4 -9 9 3 4 7 8 9 8 2 0 6 -4 9
-8z m266 3 c0 -7 -30 -13 -34 -7 -3 4 4 9 15 9 10 1 19 0 19 -2z m1516 -7 c3
-4 -1 -5 -10 -4 -8 1 -18 5 -22 8 -3 4 1 5 10 4 8 -1 18 -5 22 -8z m108 4 c3
-5 -1 -9 -9 -9 -8 0 -12 4 -9 9 3 4 7 8 9 8 2 0 6 -4 9 -8z m86 2 c0 -8 -19
-13 -24 -6 -3 5 1 9 9 9 8 0 15 -2 15 -3z m-1573 -33 c0 -11 -5 -18 -9 -15 -4
3 -5 11 -1 19 7 21 12 19 10 -4z m-593 -9 c3 -5 -1 -9 -9 -9 -8 0 -12 4 -9 9
3 4 7 8 9 8 2 0 6 -4 9 -8z m512 -7 c-1 -8 -5 -17 -8 -21 -5 -4 -4 16 1 34 3
9 9 -1 7 -13z m-236 -15 c0 -5 -2 -10 -4 -10 -3 0 -8 5 -11 10 -3 6 -1 10 4
10 6 0 11 -4 11 -10z m1633 -5 c4 -8 3 -16 -1 -19 -4 -3 -9 4 -9 15 -2 23 3
25 10 4z m-1295 -20 c-3 -3 -9 2 -12 12 -6 14 -5 15 5 6 7 -7 10 -15 7 -18z
m-382 -10 c-1 -13 -4 -27 -7 -30 -5 -4 -4 41 0 53 4 10 8 -2 7 -23z m104 20
c0 -7 -30 -13 -34 -7 -3 4 4 9 15 9 10 1 19 0 19 -2z m240 1 c0 -3 -4 -8 -10
-11 -5 -3 -10 -1 -10 4 0 6 5 11 10 11 6 0 10 -2 10 -4z m1455 -5 c3 -5 2 -12
-3 -15 -5 -3 -9 1 -9 9 0 17 3 19 12 6z m-118 -46 c0 -8 -4 -12 -9 -9 -5 3 -6
10 -3 15 9 13 12 11 12 -6z m76 -10 c-7 -21 -12 -19 -10 4 0 11 5 18 9 15 4
-3 5 -11 1 -19z m67 15 c0 -5 -5 -10 -11 -10 -5 0 -7 5 -4 10 3 6 8 10 11 10
2 0 4 -4 4 -10z m-1920 -40 c0 -5 -2 -10 -4 -10 -3 0 -8 5 -11 10 -3 6 -1 10
4 10 6 0 11 -4 11 -10z m80 6 c0 -3 -4 -8 -10 -11 -5 -3 -10 -1 -10 4 0 6 5
11 10 11 6 0 10 -2 10 -4z m176 -8 c3 -4 -1 -5 -10 -4 -8 1 -18 5 -22 8 -3 4
1 5 10 4 8 -1 18 -5 22 -8z m-276 -34 c0 -8 -19 -13 -24 -6 -3 5 1 9 9 9 8 0
15 -2 15 -3z m136 -6 c3 -4 -1 -5 -10 -4 -8 1 -18 5 -22 8 -3 4 1 5 10 4 8 -1
18 -5 22 -8z m-196 -32 c0 -3 -4 -8 -10 -11 -5 -3 -10 -1 -10 4 0 6 5 11 10
11 6 0 10 -2 10 -4z m1774 -5 c3 -5 -2 -15 -12 -22 -15 -12 -16 -12 -5 2 7 9
10 19 6 22 -3 4 -4 7 0 7 3 0 8 -4 11 -9z m-1744 -37 c0 -8 -19 -13 -24 -6 -3
5 1 9 9 9 8 0 15 -2 15 -3z m147 -9 c0 -8 -4 -12 -9 -9 -5 3 -6 10 -3 15 9 13
12 11 12 -6z m103 0 c0 -2 -9 -3 -19 -2 -11 0 -18 5 -15 9 4 6 34 0 34 -7z
m1556 3 c3 -4 -1 -5 -10 -4 -8 1 -18 5 -22 8 -3 4 1 5 10 4 8 -1 18 -5 22 -8z
m59 3 c-9 -8 -36 -10 -30 -2 2 4 11 8 20 8 8 0 13 -3 10 -6z m-1675 -21 c0 -5
-5 -10 -11 -10 -5 0 -7 5 -4 10 3 6 8 10 11 10 2 0 4 -4 4 -10z m-163 -49 c0
-11 -5 -18 -9 -15 -4 3 -5 11 -1 19 7 21 12 19 10 -4z m118 9 c3 -5 1 -10 -4
-10 -6 0 -11 5 -11 10 0 6 2 10 4 10 3 0 8 -4 11 -10z m1625 6 c0 -3 -4 -8
-10 -11 -5 -3 -10 -1 -10 4 0 6 5 11 10 11 6 0 10 -2 10 -4z m-100 -40 c0 -3
-4 -8 -10 -11 -5 -3 -10 -1 -10 4 0 6 5 11 10 11 6 0 10 -2 10 -4z m-1620 -26
c0 -5 -2 -10 -4 -10 -3 0 -8 5 -11 10 -3 6 -1 10 4 10 6 0 11 -4 11 -10z m76
-2 c3 -4 -1 -5 -10 -4 -8 1 -18 5 -22 8 -3 4 1 5 10 4 8 -1 18 -5 22 -8z m18
-36 c2 -4 -5 -9 -17 -9 -17 -2 -19 0 -7 7 18 12 18 12 24 2z"/>
<path d="M3086 5445 c-18 -10 -26 -10 -30 -2 -3 8 -5 8 -5 -1 -1 -7 -5 -10
-11 -7 -5 3 -23 -1 -40 -10 -16 -8 -33 -15 -37 -16 -5 0 -8 -8 -7 -18 0 -12
-5 -17 -13 -14 -9 3 -11 13 -7 27 6 21 6 21 -11 1 -9 -11 -14 -14 -10 -7 3 6
1 12 -4 12 -6 0 -11 -5 -11 -11 0 -5 -3 -8 -8 -5 -12 7 -74 -23 -67 -34 3 -5
-2 -10 -11 -10 -13 0 -15 -3 -7 -11 14 -14 36 -2 29 16 -3 9 5 12 30 9 20 -2
32 1 29 6 -3 6 1 7 9 4 19 -7 21 -24 4 -25 -43 -4 -79 -19 -73 -29 3 -4 -4 -6
-15 -3 -11 3 -20 0 -20 -6 0 -6 -5 -11 -11 -11 -5 0 -7 5 -4 11 4 6 -2 5 -14
-3 -29 -18 -26 -25 7 -23 15 1 37 -2 49 -6 22 -8 79 12 67 24 -3 3 -3 11 1 17
5 8 11 8 21 -1 10 -8 14 -8 14 -1 0 7 7 9 17 5 11 -4 14 -3 9 6 -5 8 -3 12 5
10 31 -4 41 1 35 17 -4 11 -2 15 8 11 8 -3 17 1 21 10 4 12 9 13 17 5 12 -12
41 -5 33 8 -3 5 5 6 17 3 19 -4 20 -3 8 7 -12 9 -11 10 7 5 19 -5 22 -3 16 12
-3 10 -3 15 1 11 4 -3 8 -12 10 -20 1 -7 5 -20 10 -28 7 -12 6 -13 -4 -3 -10
10 -20 7 -44 -10 -17 -12 -32 -21 -33 -19 -10 9 -53 -1 -53 -12 0 -10 7 -13
20 -11 11 2 18 0 15 -6 -4 -5 -19 -9 -36 -9 -30 0 -34 -6 -20 -28 12 -20 44
-21 66 -3 18 15 19 15 6 -1 -8 -11 -9 -18 -3 -18 6 0 16 8 21 18 6 9 11 11 11
5 0 -8 13 -13 30 -13 17 0 29 -3 28 -7 0 -5 2 -16 7 -26 4 -11 1 -34 -8 -57
-14 -36 -14 -40 4 -59 11 -12 17 -21 13 -21 -3 0 -1 -7 6 -15 9 -11 17 -12 31
-4 11 5 16 15 13 21 -4 7 -3 8 4 4 9 -5 8 -13 -3 -30 -8 -12 -12 -25 -9 -29 3
-3 -3 -3 -15 0 -17 4 -24 -2 -36 -28 -8 -19 -15 -29 -15 -24 0 6 -5 3 -9 -5
-11 -17 -3 -70 10 -70 5 0 6 -7 3 -15 -4 -9 0 -15 9 -15 8 0 19 -17 26 -42 7
-24 18 -50 24 -59 16 -20 113 -52 138 -44 18 6 57 65 43 65 -4 0 3 9 15 19 13
11 20 25 16 30 -3 6 -1 11 4 11 6 0 11 9 11 20 0 14 7 20 21 20 11 0 18 3 15
8 -2 4 14 8 37 8 27 0 41 4 39 12 -1 7 2 11 7 10 5 -2 23 15 41 37 27 34 37
40 73 41 23 1 48 2 55 3 19 2 64 50 57 61 -3 5 0 7 8 4 8 -3 19 1 25 9 9 11 6
19 -13 37 -14 13 -25 20 -25 16 0 -4 -7 0 -16 9 -9 9 -23 14 -31 11 -8 -3 -11
-1 -8 4 3 6 20 10 36 10 20 0 29 4 26 13 -2 6 -11 11 -18 9 -9 -1 -8 3 4 11
21 17 22 40 2 57 -9 7 -13 15 -10 18 3 3 -5 10 -18 16 -13 7 -23 23 -25 39 -2
15 -8 25 -13 21 -17 -10 -5 20 16 39 20 18 19 18 -37 14 -50 -5 -57 -3 -61 15
-5 19 -12 19 -115 16 -60 -3 -115 -9 -123 -14 -8 -5 -23 -9 -34 -9 -12 -1 -19
-7 -17 -15 2 -13 0 -13 -10 0 -17 20 -61 22 -53 2 4 -12 3 -13 -9 -3 -8 7 -13
18 -10 25 3 8 -8 12 -36 12 -32 0 -40 -3 -35 -14 4 -11 2 -12 -7 -5 -23 18
-56 21 -82 8z m139 -24 c-7 -13 -75 -15 -75 -3 0 5 14 7 30 6 17 -1 33 2 36 8
3 5 8 7 11 4 3 -2 2 -9 -2 -15z m180 10 c3 -5 2 -12 -3 -15 -5 -3 -9 1 -9 9 0
17 3 19 12 6z m59 -9 c3 -5 -1 -9 -9 -9 -8 0 -12 4 -9 9 3 4 7 8 9 8 2 0 6 -4
9 -8z m-444 -17 c-7 -8 -16 -13 -20 -10 -5 3 -10 -1 -13 -7 -3 -10 -8 -10 -18
1 -8 8 -9 11 -2 7 6 -3 14 -2 18 4 4 6 10 8 15 5 5 -3 11 -1 15 5 3 5 9 10 12
10 3 0 0 -7 -7 -15z m246 -27 c3 -4 -1 -5 -10 -4 -8 1 -18 5 -22 8 -3 4 1 5
10 4 8 -1 18 -5 22 -8z m59 2 c3 -5 1 -10 -4 -10 -6 0 -11 5 -11 10 0 6 2 10
4 10 3 0 8 -4 11 -10z m301 -2 c3 -4 -1 -5 -10 -4 -8 1 -18 5 -22 8 -3 4 1 5
10 4 8 -1 18 -5 22 -8z m39 -18 c3 -5 1 -10 -4 -10 -6 0 -11 5 -11 10 0 6 2
10 4 10 3 0 8 -4 11 -10z m-322 -35 c-7 -21 -12 -19 -10 4 0 11 5 18 9 15 4
-3 5 -11 1 -19z m-113 -5 c0 -5 -2 -10 -4 -10 -3 0 -8 5 -11 10 -3 6 -1 10 4
10 6 0 11 -4 11 -10z m-389 -28 c-7 -2 -18 1 -23 6 -8 8 -4 9 13 5 13 -4 18
-8 10 -11z m303 10 c3 -5 -1 -9 -9 -9 -8 0 -12 4 -9 9 3 4 7 8 9 8 2 0 6 -4 9
-8z m361 -1 c-9 -8 -36 -10 -30 -2 2 4 11 8 20 8 8 0 13 -3 10 -6z m-280 -30
c3 -5 2 -12 -3 -15 -5 -3 -9 1 -9 9 0 17 3 19 12 6z m340 -10 c-9 -8 -36 -10
-30 -2 2 4 11 8 20 8 8 0 13 -3 10 -6z m45 -1 c0 -5 -2 -10 -4 -10 -3 0 -8 5
-11 10 -3 6 -1 10 4 10 6 0 11 -4 11 -10z m-145 -29 c3 -5 2 -12 -3 -15 -5 -3
-9 1 -9 9 0 17 3 19 12 6z m-159 -27 c1 -9 0 -13 -4 -10 -3 4 -7 14 -8 22 -1
9 0 13 4 10 3 -4 7 -14 8 -22z m78 18 c3 -5 -1 -9 -9 -9 -8 0 -12 4 -9 9 3 4
7 8 9 8 2 0 6 -4 9 -8z m181 -2 c3 -5 1 -10 -4 -10 -6 0 -11 5 -11 10 0 6 2
10 4 10 3 0 8 -4 11 -10z m-375 -14 c0 -3 -4 -8 -10 -11 -5 -3 -10 -1 -10 4 0
6 5 11 10 11 6 0 10 -2 10 -4z m235 -6 c3 -5 1 -10 -4 -10 -6 0 -11 5 -11 10
0 6 2 10 4 10 3 0 8 -4 11 -10z m-151 -18 c3 -5 -1 -9 -9 -9 -8 0 -12 4 -9 9
3 4 7 8 9 8 2 0 6 -4 9 -8z m311 -1 c3 -5 2 -12 -3 -15 -5 -3 -9 1 -9 9 0 17
3 19 12 6z m-399 -37 c1 -9 0 -13 -4 -10 -3 4 -7 14 -8 22 -1 9 0 13 4 10 3
-4 7 -14 8 -22z m175 3 c-10 -9 -11 -8 -5 6 3 10 9 15 12 12 3 -3 0 -11 -7
-18z m306 -12 c0 -8 -4 -12 -9 -9 -5 3 -6 10 -3 15 9 13 12 11 12 -6z m79 3
c3 -4 -1 -5 -10 -4 -8 1 -18 5 -22 8 -3 4 1 5 10 4 8 -1 18 -5 22 -8z m-316
-12 c0 -3 -4 -8 -10 -11 -5 -3 -10 -1 -10 4 0 6 5 11 10 11 6 0 10 -2 10 -4z
m35 -25 c3 -5 2 -12 -3 -15 -5 -3 -9 1 -9 9 0 17 3 19 12 6z m-202 -26 c4 -8
3 -16 -1 -19 -4 -3 -9 4 -9 15 -2 23 3 25 10 4z m447 11 c0 -3 -4 -8 -10 -11
-5 -3 -10 -1 -10 4 0 6 5 11 10 11 6 0 10 -2 10 -4z m37 -15 c0 -11 -5 -18 -9
-15 -4 3 -5 11 -1 19 7 21 12 19 10 -4z m-160 -46 c0 -8 -4 -12 -9 -9 -5 3 -6
10 -3 15 9 13 12 11 12 -6z m-163 -3 c3 -5 -1 -9 -9 -9 -8 0 -12 4 -9 9 3 4 7
8 9 8 2 0 6 -4 9 -8z m-55 -46 c-3 -3 -11 5 -18 17 -13 21 -12 21 5 5 10 -10
16 -20 13 -22z m-63 -12 c1 -9 0 -13 -4 -10 -3 4 -7 14 -8 22 -1 9 0 13 4 10
3 -4 7 -14 8 -22z m219 17 c-9 -8 -36 -10 -30 -2 2 4 11 8 20 8 8 0 13 -3 10
-6z m-355 -41 c0 -5 -2 -10 -4 -10 -3 0 -8 5 -11 10 -3 6 -1 10 4 10 6 0 11
-4 11 -10z m96 -15 c-1 -13 -4 -27 -7 -30 -5 -4 -4 41 0 53 4 10 8 -2 7 -23z
m119 -24 c3 -5 2 -12 -3 -15 -5 -3 -9 1 -9 9 0 17 3 19 12 6z m-135 -35 c0 -3
-4 -8 -10 -11 -5 -3 -10 -1 -10 4 0 6 5 11 10 11 6 0 10 -2 10 -4z m17 -41 c0
-8 -4 -12 -9 -9 -5 3 -6 10 -3 15 9 13 12 11 12 -6z m37 -43 c3 -5 -1 -9 -9
-9 -8 0 -12 4 -9 9 3 4 7 8 9 8 2 0 6 -4 9 -8z"/>
<path d="M4012 5398 c-18 -18 -15 -41 4 -34 8 3 12 2 9 -4 -5 -9 42 -16 70
-10 6 1 7 -2 2 -6 -15 -16 26 -44 65 -44 68 0 38 48 -56 89 -55 24 -77 26 -94
9z"/>
<path d="M2735 5350 c-3 -5 -10 -8 -15 -5 -4 3 -11 -2 -14 -11 -5 -13 -1 -15
19 -12 14 3 22 1 18 -4 -3 -6 4 -5 15 1 29 16 35 28 16 35 -12 5 -15 2 -10
-11 6 -17 5 -17 -8 0 -9 12 -16 14 -21 7z"/>
<path d="M4210 5326 c0 -3 4 -17 10 -31 12 -31 30 -24 30 11 0 17 -5 24 -20
24 -11 0 -20 -2 -20 -4z"/>
<path d="M2688 5292 c-11 -13 -11 -14 2 -7 12 7 13 6 3 -7 -7 -8 -9 -18 -5
-22 4 -4 1 -6 -7 -4 -19 4 -25 -18 -6 -26 9 -3 14 -2 11 2 -2 4 21 7 51 5 58
-2 98 11 87 28 -4 6 -12 5 -22 -3 -10 -8 -13 -9 -9 -1 10 17 -25 22 -43 7 -13
-11 -18 -10 -28 6 -8 14 -9 21 0 26 6 4 8 3 4 -4 -3 -6 -1 -14 5 -17 7 -5 10
-1 7 10 -4 24 -34 27 -50 7z"/>
<path d="M3797 5273 c-4 -3 -2 -12 4 -20 9 -10 8 -13 0 -13 -7 0 -9 -5 -6 -10
4 -6 11 -8 16 -5 5 4 9 1 9 -4 0 -6 11 -11 25 -11 30 0 31 5 8 28 -31 30 -50
42 -56 35z"/>
<path d="M2637 5253 c-4 -3 -7 -11 -7 -17 0 -6 5 -5 12 2 6 6 9 14 7 17 -3 3
-9 2 -12 -2z"/>
<path d="M2614 5177 c-28 -18 -48 -40 -48 -49 1 -10 -4 -14 -12 -11 -10 3 -12
0 -9 -10 5 -12 41 -22 113 -29 14 -2 15 -10 5 -24 -5 -5 0 -1 10 10 18 19 18
19 48 -13 33 -36 32 -65 -2 -74 -12 -3 -18 -10 -15 -15 3 -5 -2 -9 -12 -8 -11
1 -16 -5 -14 -16 1 -9 -3 -20 -9 -24 -7 -4 -9 -3 -6 3 9 15 -40 13 -76 -2 -29
-12 -29 -13 -10 -23 14 -8 31 -8 54 -2 42 12 39 13 39 -5 0 -8 5 -15 11 -15 5
0 8 -4 5 -9 -9 -13 4 -42 18 -39 6 1 28 -4 49 -11 46 -16 54 -11 32 22 -16 25
-16 25 4 20 12 -3 18 -9 15 -14 -8 -14 26 -11 40 4 10 10 13 37 7 66 -1 2 -7
-2 -15 -8 -11 -9 -16 -9 -22 0 -5 8 -3 9 6 4 9 -5 10 -2 6 11 -3 11 -1 25 3
33 8 12 12 12 25 2 9 -8 16 -19 16 -26 0 -7 7 -15 15 -19 9 -3 15 0 15 7 0 8
16 21 35 30 30 14 34 19 23 31 -7 8 -15 12 -17 10 -2 -2 -10 5 -17 15 -7 10
-28 21 -45 25 -29 5 -34 21 -7 21 6 0 15 7 21 16 15 23 -17 56 -37 40 -11 -9
-16 -9 -22 0 -4 8 -3 9 4 5 8 -5 12 1 12 15 0 15 -5 20 -17 17 -10 -2 -28 6
-40 19 -20 21 -20 22 -2 25 28 4 29 21 2 23 -12 1 -31 -9 -43 -22 -11 -13 -25
-23 -31 -23 -6 0 -3 7 5 16 24 23 19 35 -9 22 -14 -6 -25 -15 -25 -20 0 -5 -4
-7 -9 -4 -5 3 -14 -1 -21 -9 -7 -8 -17 -15 -23 -15 -5 0 -2 9 8 20 10 11 24
20 31 20 7 0 16 5 19 10 14 22 -36 8 -81 -23z m109 -52 c-3 -9 -8 -14 -10 -11
-3 3 -2 9 2 15 9 16 15 13 8 -4z m-37 -27 c3 -4 -1 -5 -10 -4 -8 1 -18 5 -22
8 -3 4 1 5 10 4 8 -1 18 -5 22 -8z m138 -36 c2 -4 -5 -9 -17 -9 -17 -2 -19 0
-7 7 18 12 18 12 24 2z m-40 -160 c2 -4 -5 -9 -17 -9 -17 -2 -19 0 -7 7 18 12
18 12 24 2z"/>
<path d="M3104 5078 c1 -27 30 -36 52 -17 14 12 14 14 -2 26 -28 21 -51 16
-50 -9z"/>
<path d="M2694 5041 c3 -4 -6 -13 -19 -19 -28 -13 -32 -27 -10 -36 8 -3 21 4
30 17 17 25 20 47 4 47 -5 0 -8 -4 -5 -9z"/>
<path d="M3830 4942 c0 -6 4 -22 10 -37 7 -17 7 -24 0 -20 -6 3 -10 2 -10 -3
0 -11 24 -22 46 -22 9 0 12 5 8 12 -5 7 -3 8 6 3 12 -7 40 -9 81 -6 5 1 7 5 4
11 -3 5 0 7 8 5 16 -7 51 30 42 44 -3 7 -36 10 -78 9 -40 -1 -82 2 -94 6 -15
5 -23 4 -23 -2z m95 -41 c-9 -8 -36 -10 -30 -2 2 4 11 8 20 8 8 0 13 -3 10 -6z"/>
<path d="M2422 4894 c-30 -32 -29 -60 1 -30 8 8 17 12 21 9 3 -4 6 0 6 7 0 10
5 9 18 -3 30 -27 42 -21 26 12 -21 42 -36 43 -72 5z"/>
<path d="M2430 4830 c-8 -5 -10 -10 -5 -10 6 0 17 5 25 10 8 5 11 10 5 10 -5
0 -17 -5 -25 -10z"/>
<path d="M2483 4813 c-18 -7 -16 -23 2 -23 8 0 15 7 15 15 0 8 -1 15 -2 14 -2
0 -9 -3 -15 -6z"/>
<path d="M4277 4671 c-4 -17 -3 -21 5 -13 5 5 8 16 6 23 -3 8 -7 3 -11 -10z"/>
<path d="M4316 4665 c-10 -28 34 -85 82 -105 12 -5 22 -17 22 -25 0 -9 4 -14
8 -11 4 2 8 -4 8 -14 0 -10 -5 -16 -11 -14 -18 7 -10 -47 8 -58 14 -7 14 -12
5 -28 -7 -10 -16 -16 -22 -13 -5 3 -6 1 -2 -5 8 -13 36 -5 36 10 0 7 14 8 35
5 26 -4 34 -3 28 6 -4 7 0 6 10 -2 28 -23 60 19 34 45 -4 4 -7 -5 -7 -21 0
-33 -12 -27 -15 7 -1 13 -3 27 -4 32 0 4 -7 6 -15 3 -9 -4 -18 4 -24 21 -5 15
-28 43 -51 62 -30 26 -41 42 -41 64 0 25 -3 28 -25 24 -19 -4 -25 -1 -25 12 0
19 -27 23 -34 5z"/>
<path d="M4654 4642 c4 -7 3 -12 -2 -12 -15 0 -10 -34 10 -60 17 -22 19 -22
16 -5 -1 11 -7 23 -13 27 -6 5 -6 8 2 8 13 0 6 37 -10 47 -6 3 -7 1 -3 -5z"/>
<path d="M4294 4554 c3 -17 -1 -20 -20 -18 -16 1 -22 -2 -17 -9 9 -15 10 -19
12 -62 0 -19 6 -35 12 -35 5 0 7 6 3 13 -5 9 -4 9 6 0 9 -8 19 -9 36 -1 30 14
38 38 18 52 -15 11 -15 14 0 29 15 15 15 17 -4 27 -11 6 -24 8 -29 5 -5 -3
-12 1 -15 7 -4 7 -5 4 -2 -8z m12 -70 c1 -9 0 -13 -4 -10 -3 4 -7 14 -8 22 -1
9 0 13 4 10 3 -4 7 -14 8 -22z"/>
<path d="M2916 4531 c-4 -5 3 -7 14 -4 23 6 26 13 6 13 -8 0 -17 -4 -20 -9z"/>
<path d="M2964 4430 c-27 -11 -55 -50 -47 -64 3 -6 3 -8 -1 -4 -5 4 -21 -7
-37 -25 -21 -22 -25 -33 -16 -39 18 -12 39 -10 31 4 -5 7 -3 8 7 2 8 -5 22 -9
32 -10 34 -3 37 -4 35 -13 -2 -5 2 -8 7 -7 6 0 9 4 8 7 -1 3 4 6 12 6 8 0 12
-4 9 -9 -3 -4 2 -8 10 -8 9 0 16 -4 16 -10 0 -5 7 -10 15 -10 12 0 14 9 10 41
-7 54 -23 82 -41 75 -8 -3 -23 0 -34 6 -17 11 -17 14 -4 40 8 15 13 28 12 27
-2 0 -13 -4 -24 -9z m70 -88 c3 -5 -1 -9 -9 -9 -8 0 -12 4 -9 9 3 4 7 8 9 8 2
0 6 -4 9 -8z"/>
<path d="M2742 4139 c-72 -7 -132 -25 -132 -39 0 -4 14 -25 31 -46 l30 -38 -3
-182 -3 -183 -30 -31 c-26 -27 -27 -32 -14 -45 24 -24 174 -35 279 -20 25 3
51 7 57 7 10 1 10 5 1 16 -10 11 -8 13 7 10 13 -2 20 3 22 17 1 15 1 16 -3 3
-4 -14 -10 -16 -24 -8 -16 8 -18 7 -15 -9 2 -11 -3 -22 -11 -25 -11 -4 -12 -1
-5 12 5 9 10 22 12 27 2 6 10 9 19 7 13 -2 13 -2 0 7 -8 6 -22 8 -30 6 -27 -8
-46 43 -46 120 l1 70 85 0 85 0 1 -70 c1 -64 -17 -125 -37 -125 -3 0 -11 -11
-17 -24 -10 -22 -8 -24 30 -35 35 -11 172 -15 248 -8 27 2 50 18 44 29 -2 4 1
10 7 14 7 4 9 3 6 -3 -4 -6 0 -16 8 -23 12 -10 14 -8 10 8 -2 12 3 23 12 26
12 5 13 9 3 21 -14 17 -31 11 -24 -10 3 -8 0 -13 -8 -11 -25 3 -37 17 -31 33
4 10 2 14 -4 10 -6 -4 -16 0 -23 8 -7 8 -9 15 -4 15 5 0 2 5 -6 10 -8 5 -10
10 -4 10 6 0 10 15 9 35 -2 19 1 32 6 29 5 -3 9 0 9 5 0 6 -6 11 -12 11 -9 0
-8 3 2 9 22 14 31 2 18 -22 -13 -25 -18 -58 -8 -52 4 3 6 -9 5 -25 -1 -17 2
-28 9 -27 6 1 10 -6 10 -15 -1 -10 2 -18 6 -18 12 0 18 36 9 51 -7 11 -9 11
-9 1 0 -7 -5 -10 -12 -6 -8 5 -6 11 7 20 17 13 17 15 1 40 -18 26 -17 26 6 19
12 -3 18 -3 12 2 -6 4 -10 20 -9 36 1 15 -2 27 -7 27 -5 0 -6 5 -3 10 4 6 12
7 18 3 9 -5 9 -3 1 8 -12 16 -12 48 -1 67 5 7 5 11 0 10 -4 -2 -8 2 -8 7 0 6
4 9 9 7 5 -2 5 3 -1 10 -6 7 -9 23 -7 36 4 24 -5 29 -24 10 -8 -8 -12 -8 -12
-1 0 14 25 34 33 26 4 -3 7 -1 7 5 0 6 -9 10 -19 9 -11 0 -17 -5 -14 -11 3 -5
2 -6 -4 -3 -5 3 -9 -7 -9 -23 0 -16 4 -26 9 -23 6 3 7 1 3 -5 -14 -23 -24 -11
-21 26 2 20 4 38 5 40 1 1 3 5 4 10 0 4 11 21 22 37 26 36 28 42 13 58 -15 16
-200 19 -260 5 -24 -6 -52 -10 -61 -10 -12 1 -15 -3 -8 -11 64 -79 63 -78 66
-149 3 -75 -10 -93 -48 -69 -11 7 -17 8 -14 3 3 -5 -6 -12 -19 -15 -14 -2 -28
-1 -30 4 -3 4 -14 6 -25 4 -11 -2 -22 1 -26 6 -10 16 -12 109 -2 103 5 -3 6 7
2 23 -4 16 -3 25 2 20 9 -8 10 -12 13 -38 1 -8 5 -8 14 0 10 8 17 7 27 -2 12
-10 12 -9 1 5 -7 9 -19 14 -28 11 -13 -5 -13 -3 -2 15 8 13 16 17 20 10 4 -6
10 -2 14 11 3 12 11 19 16 16 5 -3 6 1 3 10 -5 11 -2 14 12 9 15 -5 14 -2 -4
10 -12 10 -20 22 -17 27 4 5 1 9 -5 9 -6 0 -8 -13 -5 -32 4 -26 3 -30 -5 -18
-9 12 -10 10 -5 -10 4 -17 3 -21 -3 -11 -8 11 -11 9 -17 -9 -5 -17 -9 -19 -15
-9 -6 8 0 22 17 38 13 14 20 27 14 29 -6 2 -9 7 -6 12 3 4 -2 11 -11 14 -10 4
-13 2 -8 -7 4 -6 -2 -4 -13 6 -12 10 -24 14 -27 9 -5 -9 -34 -10 -51 -1 -6 3
-43 2 -83 -2z m574 -184 c-1 -13 -5 -27 -9 -31 -3 -4 -3 -12 0 -18 13 -20 10
-56 -4 -56 -8 0 -11 -5 -8 -10 4 -6 12 -7 18 -4 9 5 9 4 0 -6 -9 -9 -9 -19 -2
-34 8 -17 6 -16 -10 4 -14 16 -19 18 -15 8 3 -10 2 -18 -3 -18 -13 0 -12 33 1
42 7 5 7 8 -3 8 -8 0 -4 8 10 21 13 11 18 17 10 13 -10 -5 -12 -3 -6 6 5 9 4
11 -4 6 -6 -4 -9 -12 -6 -17 4 -5 2 -9 -3 -9 -16 0 -9 64 8 77 8 6 16 16 16
22 4 31 11 28 10 -4z m-6 -234 c7 -15 7 -22 -2 -27 -7 -4 -10 -4 -6 1 4 4 3
16 -3 26 -5 11 -7 19 -5 19 3 0 10 -9 16 -19z"/>
<path d="M3293 3928 c-13 -21 -12 -35 3 -35 9 0 11 4 4 12 -6 7 -5 16 2 23 7
7 9 12 6 12 -4 0 -10 -6 -15 -12z"/>
<path d="M3353 4143 c4 -6 2 -13 -3 -15 -6 -2 -12 -10 -13 -18 -2 -8 -6 -21
-10 -27 -5 -7 -5 -13 -1 -13 3 0 -4 -8 -17 -18 -23 -20 -14 -38 11 -21 13 7
13 9 0 10 -10 0 -8 3 5 8 11 5 25 6 30 2 6 -3 3 1 -7 10 -20 19 -14 30 10 22
13 -4 12 -1 -3 11 -16 13 -17 15 -2 10 13 -5 16 -2 14 15 -2 11 -7 24 -12 28
-4 5 -5 3 -2 -4z"/>
<path d="M4995 4025 c2 -21 7 -41 11 -44 4 -3 5 6 2 21 -3 15 -1 29 5 31 5 1
2 9 -7 16 -15 12 -16 10 -11 -24z"/>
<path d="M2899 3985 c-6 -2 -3 -67 3 -71 5 -3 6 -8 4 -12 -2 -4 12 -7 31 -8
32 -1 33 0 14 10 -15 9 -18 15 -10 23 8 8 8 17 0 31 -6 10 -8 21 -6 24 3 3
-29 6 -36 3z m35 -32 c4 -9 2 -21 -4 -28 -5 -6 -8 -15 -5 -19 3 -3 -1 -2 -7 4
-17 14 -18 69 -2 63 7 -2 15 -12 18 -20z"/>
<path d="M2895 3735 c1 -78 17 -114 40 -95 9 8 15 8 20 0 8 -14 25 -13 25 2 0
6 -3 8 -7 5 -9 -10 -34 14 -26 26 3 5 1 7 -4 4 -6 -4 -13 0 -17 8 -6 18 10 30
18 13 2 -7 4 -4 3 7 -2 11 -6 25 -10 32 -4 6 -1 14 5 16 10 4 10 8 -1 15 -9 7
-10 12 -2 16 6 4 11 12 11 19 0 6 -6 2 -14 -9 -13 -16 -17 -17 -28 -5 -8 8 -8
11 -1 7 6 -3 14 -3 17 2 2 4 -3 8 -13 9 -16 1 -18 -7 -16 -72z m31 19 c-3 -7
-1 -16 5 -20 7 -4 5 -12 -5 -22 -20 -23 -20 -32 0 -46 11 -9 13 -15 6 -20 -17
-10 -26 14 -27 75 -1 44 2 56 12 52 8 -3 12 -12 9 -19z"/>
<path d="M2913 3725 c0 -8 4 -12 9 -9 5 3 6 10 3 15 -9 13 -12 11 -12 -6z"/>
<path d="M3840 3653 c0 -6 -8 -10 -17 -9 -60 9 -187 -44 -241 -101 -93 -100
-92 -265 3 -371 73 -81 184 -114 304 -89 25 5 52 9 59 10 6 0 12 4 12 9 0 4 7
8 15 8 8 0 15 4 15 9 0 14 37 20 51 7 9 -8 10 -8 6 0 -7 13 16 38 26 28 8 -8
3 18 -6 34 -5 7 -2 14 7 18 9 3 14 9 12 13 -7 11 12 36 21 28 4 -5 1 -12 -7
-17 -8 -6 -10 -10 -5 -10 6 0 3 -6 -6 -13 -15 -11 -15 -14 -1 -27 14 -13 15
-12 9 3 -5 13 0 20 18 27 14 5 25 12 25 14 0 3 -7 3 -15 0 -11 -5 -13 -2 -9
10 3 9 11 13 17 9 5 -3 7 -1 3 5 -3 5 0 12 6 15 10 4 11 7 1 18 -18 18 -16 34
1 20 9 -8 16 -8 20 -2 4 5 1 13 -5 17 -8 5 -8 9 1 14 8 5 9 13 4 21 -12 20
-14 39 -3 39 5 0 9 5 9 11 0 5 -4 7 -10 4 -5 -3 -10 3 -10 15 0 13 4 19 12 14
7 -4 8 -3 4 5 -4 6 -11 9 -16 6 -5 -3 -11 -1 -15 5 -3 5 -1 10 4 10 13 0 15
27 2 34 -4 3 -17 -2 -27 -10 -10 -9 -13 -12 -5 -8 10 5 12 3 7 -7 -4 -8 0 -5
8 5 9 11 16 15 16 9 0 -7 -5 -15 -10 -18 -6 -4 -7 -12 -3 -18 13 -18 9 -50 -5
-55 -9 -3 -13 3 -11 14 2 11 -1 26 -6 34 -16 26 -15 68 2 66 9 0 17 7 18 17 2
9 -1 15 -6 11 -9 -5 -13 10 -9 31 1 6 -4 4 -11 -2 -19 -19 -34 -16 -18 4 10
11 10 14 2 9 -8 -4 -13 -2 -13 6 0 9 -3 9 -10 -2 -9 -14 -15 -6 -10 15 1 5 -2
7 -6 2 -4 -4 -18 3 -31 15 -13 12 -23 18 -23 14 0 -5 -7 -2 -17 5 -15 13 -15
12 -4 -10 9 -17 15 -20 21 -11 5 8 10 8 14 2 12 -19 -22 -20 -42 -1 -12 10
-28 16 -36 13 -9 -3 -16 -1 -16 6 0 6 5 8 12 4 7 -4 8 -3 4 5 -6 9 -11 9 -22
0 -13 -11 -18 -6 -15 16 1 6 -5 2 -13 -8 -14 -18 -15 -18 -25 0 -6 10 -11 13
-11 6z m224 -86 c4 5 6 1 4 -7 -2 -9 4 -14 15 -13 10 0 16 -1 13 -5 -3 -3 2
-11 12 -18 15 -12 15 -13 -8 -12 -27 1 -103 66 -94 80 4 5 16 0 28 -11 12 -12
26 -18 30 -14z m-239 -17 c87 -82 131 -405 55 -405 -8 0 -18 -4 -22 -10 -5 -6
-8 -5 -8 4 0 7 -6 11 -14 8 -11 -4 -13 -1 -9 10 4 11 2 14 -5 9 -12 -7 -59 50
-54 67 2 5 -3 14 -10 20 -9 6 -8 7 4 3 10 -3 17 -2 17 2 -3 20 2 33 11 27 6
-3 7 1 4 9 -3 9 -10 16 -14 16 -5 0 -7 8 -5 18 1 9 -4 25 -13 35 -17 19 -3 24
17 5 10 -11 11 -10 6 5 -4 9 -15 17 -24 17 -14 0 -14 2 -1 10 13 9 13 10 0 10
-13 0 -13 1 0 10 13 8 12 10 -2 10 -10 0 -18 4 -18 9 0 5 10 7 23 5 18 -4 19
-3 4 4 -23 10 -25 15 -10 34 11 12 9 18 -6 32 -11 10 -21 13 -25 7 -4 -5 -2
-12 2 -15 5 -3 8 -26 7 -51 -1 -25 1 -45 5 -45 4 0 6 -13 5 -30 -1 -16 1 -27
6 -25 4 3 6 -4 4 -15 -2 -11 -1 -19 3 -16 4 2 8 -9 8 -25 2 -28 -19 -38 -22
-11 -1 7 -3 14 -4 17 -1 3 -4 10 -5 15 -1 6 -4 12 -5 15 -1 3 -3 13 -4 23 -1
9 -4 22 -8 28 -4 5 -5 19 -4 30 2 10 0 24 -5 29 -9 12 -7 41 3 51 4 3 4 12 1
20 -3 8 0 14 7 14 7 0 10 6 7 14 -15 38 59 43 98 6z m-76 -44 c9 -11 9 -16 -1
-22 -7 -4 -10 -4 -6 1 4 4 3 14 -3 22 -6 7 -9 13 -6 13 2 0 10 -6 16 -14z
m396 -123 c-1 -10 2 -23 7 -30 6 -7 5 -14 -2 -18 -8 -5 -7 -12 2 -23 10 -14
10 -15 -1 -5 -7 6 -20 9 -27 6 -15 -6 -15 21 -1 45 5 7 3 12 -4 12 -9 0 16 27
28 30 1 0 0 -8 -2 -17z m-16 -119 c-6 -8 -15 -12 -19 -9 -7 4 -7 13 -1 44 1 2
8 -2 16 -9 12 -10 13 -16 4 -26z m-74 -104 c-10 -11 -20 -18 -23 -16 -5 6 21
35 32 36 5 0 1 -9 -9 -20z"/>
<path d="M4042 3555 c21 -22 39 -37 41 -34 2 2 -15 19 -37 38 l-41 35 37 -39z"/>
<path d="M3735 3559 c-3 -3 3 -13 12 -20 14 -12 16 -12 8 0 -6 11 -4 13 8 8
10 -4 14 -2 11 7 -5 14 -32 17 -39 5z"/>
<path d="M3719 3498 c-6 -23 -7 -48 -1 -48 4 0 8 11 8 25 0 21 -4 33 -7 23z"/>
<path d="M3720 3401 c0 -6 4 -13 10 -16 6 -3 7 1 4 9 -7 18 -14 21 -14 7z"/>
<path d="M3782 3246 c-8 -19 -6 -28 14 -52 13 -16 23 -25 24 -20 0 5 9 1 19
-8 11 -10 21 -13 25 -7 8 13 -23 43 -37 34 -7 -4 -8 0 -3 12 4 11 2 22 -6 26
-9 6 -9 11 0 21 8 11 7 14 -7 15 -10 1 -23 -9 -29 -21z m23 4 c-3 -5 -3 -16 1
-22 5 -7 9 -21 9 -31 2 -17 0 -16 -16 4 -12 17 -15 28 -8 41 5 10 12 18 15 18
3 0 2 -4 -1 -10z m46 -77 c13 -16 12 -17 -3 -4 -17 13 -22 21 -14 21 2 0 10
-8 17 -17z"/>
<path d="M4129 3358 c0 -2 -2 -11 -4 -21 -3 -15 -1 -16 11 -6 7 6 11 15 8 20
-5 9 -13 12 -15 7z"/>
<path d="M4113 3275 c0 -8 4 -12 9 -9 5 3 6 10 3 15 -9 13 -12 11 -12 -6z"/>
<path d="M3380 3595 c-7 -9 -11 -17 -9 -20 3 -2 10 5 17 15 14 24 10 26 -8 5z"/>
<path d="M4100 3456 c0 -2 8 -10 18 -17 15 -13 16 -12 3 4 -13 16 -21 21 -21
13z"/>
<path d="M2062 3427 c-6 -7 -7 -19 -3 -26 7 -11 14 -10 35 4 25 17 27 17 46 0
15 -14 20 -15 20 -4 0 9 3 10 8 3 4 -6 24 -17 45 -24 31 -9 38 -16 34 -31 -7
-27 7 -32 64 -24 51 7 59 20 24 39 -11 6 -26 17 -34 24 -32 30 -133 55 -152
38 -9 -8 -10 -8 -5 2 10 17 -68 16 -82 -1z m38 -1 c0 -2 -7 -7 -16 -10 -8 -3
-12 -2 -9 4 6 10 25 14 25 6z m150 -20 c0 -2 -7 -7 -16 -10 -8 -3 -12 -2 -9 4
6 10 25 14 25 6z"/>
<path d="M2380 3321 c-6 -12 -18 -21 -26 -21 -31 0 -7 -25 27 -28 27 -2 31 0
19 8 -13 10 -13 11 0 7 8 -2 14 -11 12 -21 -4 -22 21 -20 43 4 10 11 26 20 36
20 24 0 30 12 13 28 -11 10 -14 10 -14 0 0 -10 -2 -10 -8 0 -5 6 -27 15 -49
18 -35 5 -43 2 -53 -15z m90 -15 c0 -3 -4 -8 -10 -11 -5 -3 -10 -1 -10 4 0 6
5 11 10 11 6 0 10 -2 10 -4z"/>
<path d="M2220 3291 c0 -5 13 -19 29 -30 24 -17 31 -18 46 -7 18 13 18 14 -1
23 -31 16 -74 24 -74 14z"/>
<path d="M2570 3275 c32 -18 40 -18 40 0 0 10 -10 15 -32 15 l-33 -1 25 -14z"/>
</g>
</svg>
