<?xml version="1.0" standalone="no"?>
<!DOCTYPE svg PUBLIC "-//W3C//DTD SVG 20010904//EN"
 "http://www.w3.org/TR/2001/REC-SVG-20010904/DTD/svg10.dtd">
<svg version="1.0" xmlns="http://www.w3.org/2000/svg"
 width="700.000000pt" height="700.000000pt" viewBox="0 0 700.000000 700.000000"
 preserveAspectRatio="xMidYMid meet">
<metadata>
Created by potrace 1.14, written by Peter Selinger 2001-2017
</metadata>
<g transform="translate(0.000000,700.000000) scale(0.100000,-0.100000)"
fill="#000000" stroke="none">
<path d="M3279 6996 c-2 -2 -40 -6 -84 -10 -87 -7 -143 -13 -190 -21 -16 -2
-48 -7 -70 -10 -22 -3 -62 -10 -90 -16 -27 -5 -60 -11 -73 -14 -13 -2 -78 -18
-145 -35 -969 -248 -1789 -906 -2248 -1805 -128 -251 -251 -593 -294 -816 -3
-12 -13 -66 -24 -118 -44 -217 -59 -399 -56 -686 2 -137 6 -270 9 -295 10 -75
16 -122 22 -175 16 -140 82 -417 143 -603 322 -968 1066 -1758 2016 -2140 150
-60 360 -128 455 -147 8 -2 33 -8 55 -14 117 -31 334 -65 522 -81 96 -8 549
-6 588 3 11 3 52 8 90 11 39 4 81 8 95 11 14 2 54 9 90 15 36 6 79 13 95 16
141 24 424 108 590 174 1066 425 1848 1315 2120 2413 19 75 37 156 40 179 4
24 8 45 10 48 2 3 6 30 10 60 4 30 8 57 10 60 2 3 6 39 10 80 4 41 9 89 12
105 3 17 6 138 8 270 4 299 -4 392 -61 730 -13 77 -71 293 -109 410 -366 1110
-1270 1971 -2394 2280 -164 45 -367 84 -516 100 -33 4 -71 9 -85 12 -29 5
-545 14 -551 9z m511 -710 c14 -2 48 -7 75 -11 154 -18 386 -72 535 -123 807
-277 1445 -903 1733 -1702 41 -114 87 -268 102 -345 21 -111 46 -274 54 -355
9 -94 7 -487 -3 -545 -3 -16 -10 -66 -16 -110 -91 -646 -432 -1273 -925 -1700
-38 -33 -78 -68 -89 -77 -37 -34 -245 -178 -255 -178 -6 0 -11 -4 -11 -10 0
-5 -5 -10 -10 -10 -6 0 -36 -16 -67 -36 -78 -50 -320 -166 -436 -208 -105 -39
-315 -101 -372 -110 -19 -3 -54 -10 -77 -15 -66 -15 -144 -25 -288 -40 -87 -9
-511 -8 -526 2 -5 3 -38 8 -74 12 -36 4 -72 8 -80 10 -8 1 -35 6 -60 10 -25 4
-61 11 -80 15 -19 5 -57 14 -85 20 -182 43 -427 134 -610 228 -751 384 -1296
1097 -1464 1916 -16 78 -32 168 -36 201 -4 33 -10 92 -15 130 -9 78 -6 462 5
540 33 251 79 454 150 651 300 837 988 1487 1840 1738 119 35 178 49 245 61
19 3 42 8 50 10 8 2 38 7 65 11 28 3 52 7 55 9 3 2 50 6 105 10 55 4 102 9
104 11 6 5 430 -4 461 -10z"/>
<path d="M3262 6252 c-7 -5 -35 -8 -62 -7 -28 1 -50 -2 -50 -7 0 -5 -17 -8
-37 -8 -54 1 -143 -11 -143 -20 0 -4 -12 -6 -27 -5 -16 1 -34 -2 -40 -8 -7 -5
-24 -7 -38 -5 -13 3 -26 1 -28 -5 -2 -6 -16 -12 -33 -14 -16 -2 -37 -4 -46 -5
-10 -1 -18 -5 -18 -9 0 -3 -19 -9 -42 -13 -23 -4 -47 -11 -54 -17 -7 -5 -16
-9 -20 -7 -12 3 -87 -22 -98 -33 -6 -5 -16 -9 -23 -9 -7 0 -44 -14 -81 -32
-37 -17 -70 -32 -74 -33 -5 -2 -10 -4 -13 -5 -3 -1 -8 -3 -12 -4 -8 -2 -110
-53 -168 -85 -17 -9 -30 -23 -30 -31 0 -12 49 -115 60 -128 4 -5 100 41 103
50 2 5 8 6 13 2 5 -3 9 -1 9 4 0 5 18 15 40 22 22 7 40 16 40 20 0 5 56 30 80
35 6 2 56 23 95 41 17 7 44 16 60 20 17 4 35 11 42 16 7 5 17 7 23 3 5 -3 10
-1 10 4 0 6 11 11 24 11 13 0 39 7 59 15 19 8 44 12 56 10 11 -2 21 0 21 4 0
8 49 19 90 22 8 0 22 3 30 7 8 3 26 7 40 8 76 9 127 16 140 21 8 3 35 6 60 7
25 0 50 4 55 7 6 3 116 4 245 2 250 -3 336 -7 360 -16 14 -5 70 -14 135 -22
17 -2 30 -4 30 -5 0 -2 9 -4 20 -6 11 -2 38 -8 60 -14 22 -6 47 -12 55 -14 9
-1 21 -5 28 -10 6 -4 16 -5 21 -1 5 3 12 1 16 -5 3 -5 17 -10 31 -10 13 0 24
-4 24 -10 0 -5 3 -9 8 -8 6 1 29 -7 82 -29 8 -3 21 -8 28 -10 12 -3 17 -5 60
-18 12 -4 22 -11 22 -16 0 -5 7 -6 15 -3 8 4 15 1 15 -5 0 -6 9 -11 19 -11 11
0 27 -7 35 -16 9 -8 20 -12 26 -9 5 3 10 2 10 -3 0 -9 50 -33 73 -36 4 -1 11
-5 15 -11 4 -5 27 -21 52 -34 25 -14 47 -27 50 -30 3 -4 18 -13 34 -21 56 -29
66 -35 66 -42 0 -5 5 -8 10 -8 6 0 16 -5 23 -10 7 -6 30 -24 52 -40 22 -16 47
-36 56 -45 9 -8 19 -15 22 -15 4 0 20 -12 36 -26 16 -14 32 -26 34 -26 12 0
327 -303 327 -314 0 -7 103 -128 113 -132 4 -2 7 -10 7 -18 0 -8 3 -14 8 -14
4 0 20 -21 37 -48 16 -26 32 -49 35 -52 4 -3 20 -27 35 -55 16 -27 32 -52 35
-55 9 -8 34 -64 32 -72 -1 -5 2 -8 7 -8 13 0 61 -102 57 -121 0 -4 6 -15 15
-25 19 -23 33 -55 30 -71 -1 -7 2 -13 8 -13 5 0 13 -15 16 -32 4 -18 12 -39
17 -45 6 -7 7 -13 3 -13 -4 0 -3 -6 2 -12 11 -13 36 -85 38 -103 0 -10 21 -75
32 -105 7 -18 6 -10 22 -90 7 -36 15 -72 19 -80 3 -8 6 -26 6 -40 1 -14 5 -31
9 -38 5 -7 7 -22 6 -35 -2 -12 0 -28 5 -35 4 -7 8 -34 8 -60 0 -25 3 -51 6
-57 17 -27 16 -521 -1 -565 -3 -8 -8 -44 -11 -80 -6 -63 -12 -105 -17 -105 -1
0 -3 -11 -4 -25 -1 -14 -7 -43 -13 -65 -6 -22 -13 -51 -16 -65 -2 -14 -6 -27
-7 -30 -1 -3 -3 -9 -4 -15 -4 -22 -29 -101 -35 -110 -4 -5 -13 -31 -20 -58 -7
-26 -17 -47 -22 -47 -6 0 -8 -9 -5 -20 3 -11 1 -20 -4 -20 -5 0 -9 -7 -9 -15
0 -9 -14 -42 -30 -75 -17 -33 -31 -63 -31 -67 -3 -16 -24 -58 -32 -64 -5 -3
-9 -10 -9 -15 0 -5 -11 -27 -23 -49 -13 -22 -29 -52 -36 -67 -7 -16 -16 -28
-21 -28 -4 0 -8 -6 -8 -13 0 -7 -13 -31 -30 -53 -16 -21 -30 -44 -30 -51 0 -6
-3 -13 -7 -15 -5 -2 -21 -23 -38 -48 -16 -25 -36 -49 -42 -53 -7 -4 -13 -14
-13 -20 0 -7 -8 -20 -17 -28 -10 -9 -40 -44 -68 -78 -77 -95 -349 -362 -366
-357 -3 0 -18 -14 -33 -32 -15 -17 -34 -32 -42 -32 -8 0 -17 -7 -20 -15 -4 -8
-11 -15 -18 -15 -6 -1 -27 -14 -46 -30 -19 -17 -40 -30 -47 -30 -7 0 -13 -3
-13 -7 0 -5 -10 -13 -23 -19 -67 -34 -87 -46 -87 -55 0 -5 -4 -8 -8 -6 -4 1
-57 -22 -118 -52 -60 -29 -122 -59 -139 -66 -50 -21 -100 -40 -107 -40 -3 0
-10 -3 -14 -7 -4 -5 -16 -8 -26 -8 -10 0 -18 -4 -18 -9 0 -5 -9 -7 -20 -4 -11
3 -20 0 -20 -6 0 -6 -3 -10 -7 -9 -5 1 -28 -5 -53 -12 -25 -7 -49 -13 -54 -11
-4 1 -14 -3 -21 -9 -7 -6 -19 -8 -28 -4 -8 3 -18 1 -22 -5 -3 -6 -17 -11 -31
-11 -13 0 -24 -4 -24 -9 0 -4 -12 -7 -27 -5 -15 1 -32 -1 -38 -5 -5 -5 -22 -8
-37 -7 -16 1 -28 -1 -28 -5 0 -8 -66 -17 -150 -21 -30 -2 -59 -6 -65 -9 -12
-7 -501 -2 -565 5 -83 10 -125 17 -140 23 -8 3 -26 8 -40 10 -58 9 -66 11 -95
18 -16 4 -34 10 -40 13 -5 4 -18 7 -27 9 -52 9 -109 23 -123 32 -5 3 -12 6
-15 6 -10 1 -85 27 -105 35 -66 30 -101 43 -107 42 -5 -1 -8 2 -8 7 0 5 -10
12 -22 16 -31 10 -37 12 -43 15 -3 1 -8 4 -12 5 -33 10 -73 31 -73 37 0 7 -75
43 -75 36 0 -2 -7 3 -15 10 -8 7 -67 47 -130 89 -63 42 -118 81 -122 87 -4 6
-11 11 -16 11 -6 0 -36 23 -68 51 -33 28 -63 53 -69 55 -5 2 -35 29 -66 59
-31 30 -71 66 -88 79 -17 13 -31 29 -31 37 0 8 -7 14 -15 14 -8 0 -15 5 -15
11 0 6 -21 33 -47 58 -27 26 -73 80 -103 119 -30 40 -58 72 -62 72 -5 0 -8 6
-8 13 0 6 -11 25 -25 41 -14 16 -25 35 -25 42 0 7 -4 14 -8 16 -11 4 -57 81
-54 90 1 5 -2 8 -8 8 -5 0 -21 25 -35 55 -15 30 -30 55 -34 55 -4 0 -14 18
-21 40 -7 22 -16 40 -20 40 -4 0 -7 6 -7 13 0 6 -7 28 -16 47 -40 90 -55 129
-49 134 3 3 0 6 -6 6 -6 0 -14 15 -17 33 -4 17 -10 37 -13 42 -8 13 -14 35
-16 63 0 12 -4 22 -8 22 -5 0 -8 8 -8 18 0 10 -3 22 -7 26 -7 7 -13 36 -16 79
-1 15 -5 27 -9 27 -5 0 -8 10 -8 23 0 13 -3 27 -7 31 -4 3 -8 19 -10 34 -1 15
-5 41 -8 57 -22 135 -26 168 -31 225 -9 105 -12 480 -5 480 4 0 7 29 6 66 -1
36 2 67 6 69 4 3 7 23 7 46 1 23 5 46 11 52 5 5 7 16 4 23 -3 8 -2 22 3 32 4
9 8 25 8 34 1 9 4 20 9 24 4 4 7 18 7 31 0 13 4 23 9 23 5 0 7 9 4 20 -3 11 0
26 6 34 7 8 11 18 10 22 -1 5 0 16 4 24 3 8 9 29 13 45 10 40 11 44 14 50 1 3
3 8 5 13 1 4 7 21 14 37 26 67 27 68 9 71 -27 4 -43 9 -48 14 -6 8 -91 32 -95
28 -2 -3 -67 -195 -71 -213 -2 -5 -5 -19 -8 -30 -2 -11 -9 -32 -14 -46 -6 -14
-13 -41 -16 -60 -3 -19 -9 -45 -12 -59 -4 -14 -9 -44 -11 -67 -3 -24 -8 -43
-13 -43 -4 0 -6 -18 -4 -40 2 -22 0 -40 -4 -40 -5 0 -9 -30 -11 -67 -6 -111
-5 -513 2 -578 4 -33 9 -85 12 -115 8 -84 17 -134 24 -145 4 -5 6 -22 5 -37
-2 -16 1 -28 5 -28 4 0 7 -10 8 -22 0 -13 6 -45 12 -73 7 -27 12 -56 13 -62 1
-7 5 -13 10 -13 5 0 8 -6 7 -12 -4 -20 12 -88 20 -88 4 0 7 -10 7 -22 0 -13 8
-41 18 -62 10 -21 18 -47 19 -57 1 -11 5 -19 9 -19 4 0 8 -8 8 -18 0 -10 8
-29 17 -42 10 -14 17 -27 17 -30 -1 -3 2 -16 7 -30 14 -38 16 -44 17 -53 1 -4
8 -15 17 -23 8 -9 15 -22 15 -30 0 -8 4 -14 10 -14 5 0 10 -3 9 -7 -2 -16 14
-53 23 -53 5 0 7 -4 3 -9 -3 -5 -1 -12 4 -15 10 -6 75 -118 73 -126 0 -3 6 -9
14 -13 8 -4 14 -13 14 -18 0 -6 11 -25 25 -43 14 -18 25 -38 25 -44 0 -7 5
-12 10 -12 6 0 14 -8 17 -17 4 -10 19 -30 35 -46 15 -15 28 -30 29 -35 2 -11
49 -67 97 -117 23 -24 42 -46 42 -50 0 -4 38 -44 84 -89 131 -127 186 -176
186 -169 0 4 16 -8 35 -27 19 -19 35 -30 35 -26 0 5 9 -3 21 -18 11 -14 24
-24 28 -22 4 3 15 -6 25 -20 11 -13 23 -24 28 -24 6 0 23 -11 40 -25 16 -14
36 -25 43 -25 7 0 15 -3 17 -7 6 -15 125 -92 132 -86 3 3 6 2 6 -4 0 -8 39
-33 60 -38 3 0 39 -19 80 -40 41 -21 77 -40 80 -40 3 -1 35 -16 72 -33 37 -18
72 -32 78 -32 5 0 10 -5 10 -11 0 -6 9 -9 20 -6 11 3 20 1 20 -4 0 -5 8 -9 18
-9 10 0 22 -3 26 -7 7 -7 31 -14 59 -16 9 -1 17 -5 17 -9 0 -4 8 -8 18 -8 10
0 22 -3 26 -7 3 -4 12 -8 19 -10 7 -1 35 -7 62 -13 28 -6 57 -14 65 -18 8 -3
24 -7 35 -8 11 -1 23 -3 28 -4 20 -7 104 -22 142 -26 17 -2 53 -7 80 -10 75
-10 595 -14 595 -5 0 4 24 7 53 6 28 -1 57 0 62 4 6 3 24 7 40 8 64 5 125 16
125 23 0 4 12 8 28 8 15 1 36 3 47 5 11 2 38 8 60 12 22 4 45 10 50 14 6 3 15
7 20 8 6 1 28 7 50 13 22 6 47 13 55 15 8 2 16 4 18 5 1 2 5 3 10 4 4 1 12 4
17 8 6 3 27 9 48 13 20 4 37 11 37 16 0 4 9 6 20 4 11 -2 20 0 20 4 0 5 10 12
23 16 81 26 129 46 167 70 22 14 40 23 40 20 0 -3 18 6 40 20 22 14 40 23 40
19 0 -3 13 4 29 15 16 12 34 21 40 21 6 0 11 5 11 10 0 6 5 10 12 10 6 0 57
30 112 67 122 82 112 74 164 119 23 20 42 33 42 30 0 -4 14 9 31 29 17 19 35
35 40 35 17 0 320 317 343 358 5 9 18 23 28 30 10 7 18 19 18 25 0 7 9 19 20
27 11 8 20 18 20 23 0 11 42 70 58 80 6 4 12 15 12 23 0 8 7 17 15 20 8 4 15
11 15 16 0 5 16 37 36 71 68 115 85 147 77 147 -4 0 -3 4 2 8 15 10 88 152 79
152 -4 0 3 11 16 25 13 14 20 25 16 25 -5 0 -3 7 4 15 7 8 10 15 6 15 -4 0 1
15 11 32 10 18 18 38 19 43 0 6 6 21 12 35 10 25 22 56 28 75 4 12 24 86 27
100 1 6 5 15 8 20 4 6 5 18 4 28 -2 9 0 17 5 17 7 0 26 86 21 104 -1 4 3 14 9
21 6 7 9 25 6 39 -3 14 0 26 5 26 5 0 9 23 9 50 0 28 4 50 8 50 4 0 7 24 6 53
0 28 2 57 5 62 8 14 10 527 2 540 -3 6 -7 30 -8 55 -1 25 -7 77 -13 115 -6 39
-11 77 -12 85 0 8 -4 20 -9 25 -4 6 -6 23 -5 38 2 15 0 30 -4 32 -8 5 -25 74
-21 89 1 4 -3 14 -10 22 -6 8 -9 20 -6 29 4 8 2 17 -3 20 -6 4 -10 17 -10 30
0 13 -4 26 -10 30 -5 3 -7 12 -3 20 3 8 0 15 -5 15 -6 0 -9 9 -7 20 2 11 0 20
-6 20 -5 0 -9 9 -9 19 0 11 -5 23 -10 26 -6 4 -8 10 -5 15 3 5 1 17 -5 27 -14
26 -34 77 -32 86 1 4 -2 7 -8 7 -5 0 -10 7 -10 15 0 9 -11 37 -25 63 -14 26
-25 52 -25 59 0 6 -6 18 -12 25 -16 16 -68 121 -68 135 0 6 -7 13 -15 17 -8 3
-15 12 -15 21 0 8 -5 15 -12 15 -6 0 -8 3 -5 6 3 4 -3 18 -13 32 -11 13 -20
29 -20 34 0 5 -5 14 -10 21 -6 7 -27 35 -48 62 -20 28 -40 52 -44 53 -5 2 -8
8 -8 14 0 37 -373 420 -476 489 -13 8 -22 18 -19 21 3 2 -7 11 -23 18 -15 8
-37 25 -49 39 -13 13 -23 21 -23 16 0 -4 -20 9 -44 29 -24 20 -49 36 -54 36
-5 0 -12 7 -16 15 -3 8 -9 14 -13 13 -12 -3 -63 24 -63 34 0 4 -7 8 -15 8 -8
0 -15 5 -15 10 0 6 -4 10 -10 10 -5 0 -43 20 -85 45 -41 24 -75 42 -75 39 0
-3 -13 4 -30 16 -16 12 -30 18 -30 13 0 -4 -4 -3 -8 2 -10 14 -64 39 -79 36
-7 -1 -13 3 -13 9 0 5 -3 9 -7 8 -5 -1 -23 6 -40 15 -18 10 -33 15 -33 11 0
-4 -7 -1 -15 6 -8 7 -15 10 -15 6 0 -4 -17 2 -39 13 -21 11 -49 22 -62 25 -13
2 -37 9 -54 16 -16 6 -38 14 -47 16 -10 2 -26 6 -35 8 -56 13 -79 19 -88 25
-5 3 -21 7 -35 9 -82 10 -154 24 -165 30 -15 10 -106 14 -395 18 -146 2 -271
0 -278 -4z"/>
<path d="M3224 6009 c-2 -4 -23 -8 -47 -9 -79 -2 -157 -12 -157 -20 0 -5 -11
-7 -25 -4 -14 2 -25 0 -25 -7 0 -6 -10 -9 -22 -8 -22 2 -66 -6 -98 -18 -8 -3
-24 -7 -35 -8 -11 -1 -30 -7 -42 -13 -12 -7 -33 -12 -47 -12 -14 0 -26 -5 -26
-11 0 -5 -5 -7 -10 -4 -6 4 -17 1 -25 -5 -8 -6 -19 -9 -24 -6 -5 4 -12 2 -16
-4 -3 -5 -15 -10 -26 -10 -10 0 -19 -5 -19 -11 0 -5 -4 -8 -9 -4 -5 3 -12 1
-16 -5 -3 -5 -15 -10 -26 -10 -10 0 -19 -4 -19 -10 0 -5 -7 -7 -15 -4 -8 4
-15 1 -15 -5 0 -6 -3 -10 -7 -9 -14 4 -83 -26 -83 -35 0 -4 -4 -5 -10 -2 -5 3
-10 2 -10 -4 0 -5 -13 -12 -30 -16 -16 -4 -30 -11 -30 -16 0 -6 -4 -7 -10 -4
-5 3 -10 2 -10 -4 0 -5 -13 -12 -30 -16 -16 -4 -33 -12 -37 -18 -5 -7 -19 -18
-33 -25 -62 -32 -80 -44 -80 -53 0 -5 -6 -9 -14 -9 -8 0 -30 -15 -49 -33 -19
-18 -40 -31 -46 -29 -6 2 -14 -3 -17 -12 -3 -9 -12 -16 -18 -16 -7 0 -25 -13
-41 -30 -16 -16 -30 -28 -32 -26 -5 4 -285 -281 -328 -334 -19 -25 -44 -56
-55 -68 -11 -13 -20 -26 -20 -29 0 -3 -14 -22 -30 -42 -46 -55 -50 -60 -50
-67 0 -3 -24 -43 -53 -87 -54 -84 -92 -156 -89 -169 1 -5 -2 -8 -7 -8 -8 0
-64 -101 -67 -122 -1 -5 -3 -11 -4 -15 -1 -5 -2 -11 -1 -15 0 -5 -3 -8 -9 -8
-5 0 -10 -4 -10 -9 0 -5 -12 -35 -27 -67 -14 -33 -27 -63 -28 -69 -1 -5 -5
-19 -9 -30 -19 -47 -38 -100 -37 -102 1 -3 1 -6 -4 -20 -1 -5 -5 -25 -9 -45
-5 -21 -12 -38 -16 -38 -4 0 -6 -12 -5 -27 1 -16 -1 -32 -4 -38 -7 -12 -8 -19
-16 -70 -4 -22 -9 -47 -12 -55 -4 -8 -7 -35 -8 -60 -1 -25 -5 -52 -8 -60 -3
-8 -5 -50 -4 -93 1 -42 -1 -78 -6 -80 -10 -3 -14 -186 -4 -190 4 -1 8 -42 9
-90 0 -48 4 -87 8 -87 4 0 6 -23 5 -50 -1 -28 2 -53 7 -56 5 -3 8 -20 7 -37 0
-18 6 -57 14 -88 7 -31 13 -63 11 -72 -1 -10 1 -17 6 -17 4 0 10 -22 14 -48 3
-27 10 -52 14 -56 4 -4 7 -17 8 -29 1 -12 7 -35 14 -52 7 -16 14 -34 14 -40 2
-12 24 -82 37 -112 5 -13 13 -33 18 -45 19 -51 66 -153 73 -158 3 -3 10 -19
13 -35 4 -17 13 -34 19 -40 7 -5 18 -26 26 -45 7 -19 24 -49 36 -66 13 -17 20
-34 17 -38 -4 -3 -1 -6 5 -6 7 0 12 -5 12 -10 0 -6 5 -16 10 -23 25 -29 80
-106 80 -111 0 -7 20 -32 69 -88 18 -21 31 -38 28 -38 -3 0 61 -67 143 -150
82 -82 153 -150 158 -150 5 0 21 -14 37 -30 16 -17 34 -30 39 -30 6 0 17 -9
24 -20 7 -11 19 -20 27 -20 8 0 15 -3 15 -7 0 -5 24 -24 53 -43 28 -19 54 -38
55 -43 2 -4 8 -7 13 -7 5 0 28 -13 51 -30 22 -16 47 -30 55 -30 7 0 13 -3 13
-7 0 -5 10 -13 23 -19 12 -6 78 -40 147 -75 69 -35 128 -62 133 -61 4 1 7 -3
7 -8 0 -6 7 -10 16 -10 8 0 25 -5 37 -12 12 -7 27 -13 32 -14 6 -1 31 -9 56
-18 25 -8 55 -17 67 -19 12 -2 25 -6 28 -10 4 -4 16 -7 26 -7 10 0 18 -4 18
-10 0 -5 7 -7 15 -4 8 3 20 2 27 -2 7 -5 20 -9 28 -10 17 -1 68 -13 90 -21 8
-3 26 -7 40 -8 14 -1 30 -3 35 -5 6 -2 21 -4 35 -6 14 -1 63 -7 110 -14 91
-12 440 -19 440 -9 0 4 37 9 83 13 112 9 120 10 133 19 7 4 23 7 35 7 45 -1
129 13 129 21 0 4 11 6 25 3 14 -2 25 0 25 5 0 5 8 10 18 10 38 1 92 14 92 21
0 5 9 6 20 3 11 -3 20 -1 20 5 0 6 18 13 40 17 22 4 40 11 40 16 0 6 5 7 10 4
6 -4 16 -2 23 3 7 5 26 12 42 16 17 4 44 13 60 20 42 19 78 33 89 34 5 0 12 4
15 9 9 14 124 67 139 65 6 -2 12 1 12 7 0 5 13 12 29 16 22 5 28 11 24 23 -15
43 -67 148 -77 154 -6 5 -7 8 -1 8 6 0 3 6 -5 13 -8 7 -15 17 -15 22 0 21 -41
94 -52 95 -7 0 -13 -5 -13 -12 0 -6 -3 -8 -6 -5 -7 7 -64 -22 -76 -38 -4 -5
-8 -6 -8 -1 0 5 -7 3 -15 -4 -9 -7 -18 -10 -21 -7 -4 3 -23 -5 -44 -18 -20
-13 -56 -29 -78 -36 -23 -7 -42 -16 -42 -22 0 -5 -7 -7 -15 -4 -8 4 -17 2 -19
-2 -3 -5 -20 -12 -38 -16 -18 -4 -35 -9 -38 -10 -3 -1 -12 -4 -20 -8 -28 -10
-95 -32 -105 -33 -5 0 -18 -4 -27 -8 -9 -4 -21 -5 -27 -2 -5 4 -12 2 -16 -4
-3 -5 -16 -10 -29 -10 -12 0 -26 -3 -30 -7 -3 -4 -19 -8 -34 -9 -15 -1 -54 -7
-87 -14 -33 -7 -80 -14 -105 -16 -84 -8 -450 -10 -450 -3 0 4 -21 8 -47 8 -27
0 -68 5 -93 11 -86 20 -95 22 -122 23 -16 1 -28 5 -28 10 0 4 -9 7 -19 7 -11
0 -23 5 -26 11 -4 6 -13 8 -21 5 -7 -3 -16 -1 -19 4 -4 6 -15 10 -25 10 -10 0
-31 5 -47 12 -15 6 -32 12 -38 13 -5 0 -23 7 -40 15 -16 7 -36 12 -42 11 -7
-1 -13 3 -13 9 0 6 -4 8 -10 5 -5 -3 -10 -1 -10 4 0 6 -5 11 -11 11 -26 0
-250 118 -310 163 -19 13 -48 32 -66 41 -18 9 -42 26 -53 38 -11 12 -20 18
-20 13 0 -4 -11 4 -25 19 -13 14 -29 26 -36 26 -6 0 -20 11 -31 25 -11 14 -23
25 -28 25 -9 0 -249 241 -292 294 -16 19 -28 38 -28 43 0 5 -9 15 -20 23 -11
8 -20 20 -20 27 0 7 -3 13 -7 13 -8 0 -43 56 -42 67 0 3 -3 9 -8 12 -12 9 -55
79 -83 136 -14 28 -28 52 -31 55 -3 3 -12 22 -20 43 -7 20 -17 37 -21 37 -4 0
-8 11 -8 24 0 14 -7 31 -15 39 -8 8 -12 17 -9 19 2 3 -9 36 -25 75 -16 39 -32
89 -36 112 -4 22 -10 41 -14 41 -4 0 -7 14 -6 30 1 17 -1 30 -5 30 -4 0 -11
21 -16 48 -4 26 -8 49 -8 52 -1 3 -4 10 -7 15 -3 6 -5 24 -4 40 2 17 -1 35 -5
40 -31 41 -44 617 -14 644 4 3 9 0 11 -7 3 -6 9 -10 14 -7 5 4 6 -1 3 -9 -3
-9 -1 -16 4 -16 6 0 15 -19 20 -42 6 -25 10 -33 11 -20 2 36 35 24 39 -13 2
-17 16 -68 32 -115 27 -79 32 -107 44 -218 8 -73 39 -110 125 -149 41 -19 80
-35 85 -36 11 -2 66 -65 66 -76 0 -4 24 -15 53 -26 28 -10 58 -23 65 -28 10
-8 16 -7 24 4 8 11 9 11 5 -3 -6 -19 15 -42 28 -30 5 4 5 1 1 -5 -12 -21 11
-50 69 -89 54 -36 85 -39 85 -10 0 21 30 9 53 -21 10 -13 24 -20 30 -16 7 3 9
3 5 -1 -3 -4 0 -23 8 -42 14 -35 14 -43 -17 -152 -14 -53 -1 -95 28 -86 13 4
14 3 5 -3 -7 -6 -12 -15 -10 -20 2 -6 -7 -20 -20 -31 l-23 -20 22 -39 c23 -42
50 -75 56 -69 2 2 25 -16 51 -40 34 -31 53 -42 70 -39 12 2 20 0 17 -6 -4 -5
-12 -7 -18 -3 -7 3 2 -7 18 -22 18 -17 29 -36 27 -47 -8 -38 115 -120 145 -96
11 9 12 8 7 -5 -3 -9 -1 -17 5 -17 57 -7 95 -42 111 -104 6 -22 14 -47 17 -55
3 -8 8 -24 10 -35 2 -10 9 -23 16 -27 6 -4 9 -8 4 -8 -4 0 3 -17 16 -37 33
-54 60 -114 65 -143 2 -13 6 -27 10 -30 4 -3 8 -22 10 -43 3 -42 33 -102 66
-130 11 -10 39 -35 62 -55 65 -58 82 -71 88 -65 3 4 6 1 6 -5 0 -17 59 -42 99
-42 36 1 36 1 11 14 -14 8 -29 12 -34 9 -5 -4 -6 -1 -3 4 4 6 -6 16 -22 23
-31 12 -73 55 -64 64 3 3 -6 11 -21 17 -28 13 -33 28 -14 47 9 9 10 15 2 20
-6 4 -13 21 -16 38 -4 27 -1 30 25 32 38 3 47 9 47 31 0 25 -23 44 -37 30 -6
-6 -10 -5 -10 5 0 8 4 13 9 10 4 -3 8 5 8 17 0 16 3 19 13 11 20 -17 78 -24
93 -11 8 6 14 26 14 44 0 29 19 64 58 104 13 14 12 44 -3 83 -5 11 2 26 19 43
14 14 26 30 26 35 0 6 5 10 11 10 5 0 7 -5 3 -12 -4 -6 -3 -8 3 -5 6 4 28 9
48 12 57 7 79 16 95 39 8 12 15 23 16 26 0 3 6 19 13 35 7 17 13 63 14 102 1
40 7 73 12 74 6 1 15 2 21 3 40 5 120 121 109 157 -4 11 -9 18 -12 15 -4 -3
-12 -1 -20 5 -7 6 -13 8 -13 4 0 -4 -16 7 -36 25 -20 17 -42 29 -50 26 -8 -3
-14 -2 -14 3 0 5 -26 15 -57 23 -57 14 -98 13 -89 -1 3 -4 -4 -7 -15 -7 -17 0
-20 3 -19 21 1 3 -6 12 -14 20 -21 21 -69 18 -100 -6 l-26 -20 0 30 c0 24 -4
31 -19 31 -11 0 -21 -3 -23 -7 -6 -15 -67 -43 -72 -34 -10 16 5 39 44 66 21
14 37 32 36 38 -1 7 -13 30 -28 52 -19 30 -37 44 -76 58 -28 10 -56 16 -62 12
-5 -3 -10 -2 -10 3 0 6 -24 13 -52 17 -29 4 -64 12 -78 17 -14 5 -27 9 -28 8
-2 -1 -9 6 -16 16 -7 9 -18 14 -25 10 -6 -4 -11 -4 -10 1 4 24 -2 53 -11 48
-6 -3 -7 1 -4 9 4 12 0 16 -15 16 -12 0 -24 7 -27 15 -7 18 -34 20 -34 3 0 -9
-3 -9 -8 -3 -5 7 -17 7 -40 0 -18 -6 -29 -15 -25 -20 5 -5 1 -4 -7 1 -8 6 -32
14 -54 17 -21 3 -46 13 -56 22 -10 9 -24 13 -35 8 -18 -6 -18 -7 1 -14 16 -6
16 -8 2 -8 -9 -1 -18 -11 -20 -23 -2 -14 -11 -22 -28 -25 -14 -1 -20 0 -15 4
9 7 18 103 10 103 -2 0 -16 -11 -31 -25 -15 -14 -33 -25 -40 -25 -8 0 -14 -4
-14 -10 0 -5 -6 -7 -12 -5 -7 3 -21 -9 -31 -26 -15 -28 -21 -31 -50 -25 -17 3
-60 9 -95 12 -55 6 -63 10 -68 30 -4 13 -9 24 -13 24 -3 0 -5 27 -4 60 1 53
-2 64 -23 83 -14 13 -40 24 -59 25 -29 2 -34 0 -28 -15 6 -17 6 -17 -12 1 -17
16 -30 90 -14 80 16 -9 29 67 20 119 -2 17 -46 2 -45 -15 1 -10 -4 -14 -11
-11 -13 4 -42 -34 -37 -50 1 -5 -2 -6 -7 -3 -5 4 -15 0 -23 -7 -20 -19 -59
-13 -80 13 -15 19 -24 62 -19 93 0 4 -3 7 -7 7 -5 0 -8 10 -7 23 1 12 -4 33
-11 47 -22 46 -11 124 27 179 19 27 36 49 39 49 21 -1 30 4 25 13 -5 7 -1 7
14 0 12 -6 31 -16 42 -22 18 -9 26 -6 55 22 18 18 30 37 27 42 -3 6 -1 7 5 3
6 -4 9 -13 5 -21 -6 -18 18 -20 37 -2 12 10 12 9 1 -5 -11 -15 -9 -18 13 -24
14 -3 32 -4 40 -1 20 8 36 -13 36 -46 0 -22 4 -28 15 -24 8 4 17 1 21 -5 4 -6
3 -8 -4 -4 -16 9 -21 -6 -11 -32 5 -13 13 -21 18 -17 5 3 13 0 17 -6 4 -8 3
-9 -4 -5 -19 11 -14 -9 6 -27 25 -23 42 -21 42 4 0 13 -4 18 -12 13 -7 -4 -8
-3 -4 4 4 6 -5 34 -19 62 -17 34 -25 63 -23 90 2 22 6 40 9 40 3 0 43 36 88
80 l83 81 -8 47 c-9 62 -8 81 7 98 14 17 36 18 41 3 2 -7 12 0 21 15 17 25 13
32 -16 27 -5 -1 -6 3 -2 9 4 7 12 7 25 0 25 -13 49 -3 43 18 -4 15 2 17 37 14
38 -4 41 -2 51 27 7 21 20 33 37 38 15 3 37 16 48 29 13 13 32 21 47 21 21 -2
24 -6 21 -31 -2 -21 5 -39 26 -66 28 -35 29 -40 30 -156 4 -272 3 -276 -30
-312 -39 -43 -38 -58 5 -72 45 -15 208 -19 260 -7 22 5 45 10 51 10 13 0 13
15 1 34 -4 6 -3 14 3 18 9 6 14 -1 11 -17 0 -4 7 -4 17 -1 15 6 15 5 3 -10 -8
-10 -11 -20 -7 -24 3 -3 6 -1 6 6 0 7 5 9 13 5 6 -4 9 -3 4 1 -4 5 0 16 8 25
17 18 16 18 -42 22 -16 1 -38 13 -49 26 -22 25 -24 37 -11 60 5 6 4 12 -1 12
-11 0 -10 49 1 67 4 6 2 13 -4 15 -5 2 -7 10 -4 19 4 12 25 16 95 18 85 2 90
1 91 -19 1 -26 1 -104 0 -132 -1 -13 -17 -41 -36 -62 -23 -26 -32 -43 -25 -50
25 -25 176 -36 326 -23 29 3 26 45 -6 87 -24 32 -35 80 -17 80 5 0 6 -7 3 -16
-3 -9 -2 -12 4 -9 6 4 10 3 9 -2 -1 -4 0 -11 1 -15 1 -5 3 -14 4 -20 1 -7 9
-12 19 -12 9 1 15 -2 12 -6 -3 -5 -1 -11 4 -14 5 -4 8 -21 6 -39 -2 -17 -1
-26 2 -19 4 10 8 10 21 0 15 -11 15 -11 5 3 -10 12 -10 18 -1 27 13 13 21 45
9 38 -10 -7 -32 9 -34 25 -2 8 -6 20 -10 27 -5 7 -3 12 5 12 17 1 -16 20 -44
25 -24 5 -37 15 -19 15 7 0 9 5 4 13 -18 28 -3 75 20 60 4 -3 0 -12 -10 -20
-10 -8 -12 -11 -4 -7 10 5 12 3 6 -6 -6 -9 -4 -11 5 -5 8 5 11 4 6 -3 -3 -6
-2 -13 4 -17 6 -4 8 -11 5 -16 -4 -5 -1 -9 4 -9 6 0 11 7 11 15 0 8 -5 15 -11
15 -5 0 -7 5 -4 10 4 6 10 8 13 6 4 -2 7 15 8 39 0 30 -4 41 -12 38 -8 -3 -11
3 -9 14 2 10 4 20 4 23 1 3 5 -1 10 -9 6 -9 11 -10 15 -2 6 10 -6 15 -19 9 -2
-2 -10 6 -18 16 -12 17 -14 14 -13 -29 1 -35 -3 -49 -14 -52 -13 -4 -13 -3 0
6 13 10 13 11 0 11 -13 0 -13 1 0 10 13 9 13 10 0 10 -13 0 -13 1 0 10 8 5 10
10 5 10 -6 0 -11 11 -11 24 0 14 3 23 7 20 4 -2 7 5 6 16 -1 11 -6 20 -11 20
-5 0 -2 6 9 13 11 9 15 19 10 27 -6 9 -4 11 5 5 9 -5 11 -4 6 3 -5 8 -2 10 8
6 22 -8 21 20 -1 37 -14 12 -16 12 -8 0 5 -10 4 -12 -3 -7 -8 4 -10 2 -6 -7 3
-8 1 -18 -5 -21 -6 -4 -8 -13 -4 -21 3 -8 1 -15 -4 -15 -5 0 -9 11 -9 25 0 14
5 25 11 25 5 0 3 5 -5 10 -9 6 -11 10 -3 10 7 0 10 6 7 14 -3 7 6 22 20 33 27
22 43 72 23 74 -69 7 -90 12 -99 24 -5 6 -8 5 -8 -3 0 -8 -5 -10 -12 -6 -10 7
-63 9 -70 4 -2 -1 -19 -3 -38 -5 -19 -2 -51 -7 -70 -11 -19 -4 -38 -7 -42 -6
-16 4 -7 -39 11 -57 33 -33 43 -61 43 -126 1 -68 -8 -97 -23 -74 -7 12 -9 12
-9 0 0 -10 -3 -11 -13 -2 -8 6 -17 8 -21 4 -10 -10 -56 -11 -56 -1 0 4 6 8 13
8 6 0 4 5 -5 11 -21 12 -24 35 -5 43 6 3 3 4 -9 1 -14 -4 -21 0 -21 10 0 9 6
14 14 11 8 -3 11 -1 8 5 -4 5 -1 16 5 24 9 11 9 15 1 15 -6 0 -11 -5 -11 -11
0 -5 -4 -8 -9 -5 -5 4 -8 14 -6 24 2 9 4 19 4 22 1 3 6 -2 11 -10 7 -11 10
-11 10 -2 0 7 5 10 10 7 6 -3 10 -1 10 4 0 6 -4 11 -9 11 -8 0 -8 8 -2 39 1 2
8 -2 16 -9 13 -11 14 -10 9 4 -3 9 -10 16 -16 16 -5 0 -7 4 -3 10 3 5 12 7 20
3 8 -3 15 0 15 5 0 16 -18 24 -25 12 -4 -6 -10 -8 -15 -5 -5 3 -7 -4 -5 -15 2
-11 0 -18 -5 -15 -4 3 -7 16 -6 29 2 17 -1 23 -11 19 -8 -3 -12 0 -10 8 2 8 2
11 0 7 -7 -13 -78 -9 -91 4 -9 9 -12 9 -12 0 0 -8 -7 -9 -25 -2 -14 5 -25 6
-25 2 0 -4 -19 -8 -43 -9 -23 -1 -59 -4 -80 -7 -37 -6 -38 -6 -25 16 7 13 11
26 11 29 -1 4 15 3 37 -2 44 -10 125 14 113 34 -4 6 0 8 10 4 12 -5 17 -1 17
13 0 28 -11 31 -66 16 -59 -16 -80 -9 -78 24 2 39 -13 70 -35 70 -28 0 -71
-21 -65 -31 3 -5 -1 -6 -9 -3 -8 3 -17 -2 -20 -10 -4 -10 -16 -15 -31 -14 -21
2 -28 13 -8 13 15 0 32 17 27 25 -3 5 0 12 6 16 8 4 9 3 5 -4 -10 -17 -2 -15
38 9 20 12 34 24 32 28 -5 7 43 6 92 -3 19 -4 31 -3 29 1 -3 5 9 8 26 7 44 -1
68 6 60 19 -3 5 -1 7 4 4 14 -9 95 27 85 38 -4 5 -2 5 5 1 20 -11 85 21 81 41
-4 20 -47 45 -62 36 -6 -4 -20 -8 -32 -9 -17 -2 -22 3 -21 16 1 10 4 18 7 18
3 -1 13 2 23 6 21 10 23 31 2 23 -8 -4 -17 -2 -20 3 -4 6 -14 10 -23 10 -9 0
-28 9 -42 20 -20 16 -22 22 -11 29 18 12 9 76 -15 102 -17 19 -40 16 -28 -3 4
-6 2 -8 -3 -5 -6 4 -22 -3 -37 -14 -34 -27 -70 -33 -102 -16 l-27 14 28 26
c18 16 26 31 22 41 -6 16 -96 61 -104 52 -3 -2 -18 0 -34 4 -26 8 -31 6 -45
-22 -8 -16 -13 -36 -10 -44 3 -8 2 -13 -3 -10 -5 3 -17 -6 -26 -20 -16 -24
-16 -30 -2 -65 9 -22 11 -37 6 -34 -5 4 -9 0 -9 -8 0 -8 -12 -23 -27 -32 -42
-27 -61 -50 -69 -82 -12 -47 -43 -113 -53 -113 -5 0 -16 7 -24 15 -8 8 -17 12
-20 9 -3 -3 -5 1 -4 8 1 40 -4 59 -15 53 -7 -4 -6 0 3 7 15 12 44 88 34 88 -2
0 -15 -5 -28 -11 -19 -9 -30 -8 -49 5 -14 9 -27 14 -30 11 -3 -3 -17 8 -31 25
-14 16 -31 30 -37 30 -7 0 -8 6 -1 18 5 9 9 34 9 55 0 28 6 43 21 54 12 8 19
19 15 24 -3 5 -2 9 3 7 14 -3 83 44 77 53 -3 5 2 6 10 3 9 -3 17 2 21 15 3 12
16 21 33 23 16 2 26 8 24 16 -1 8 2 11 8 7 16 -10 40 14 40 41 0 17 6 23 28
26 15 2 26 8 25 14 -2 12 26 12 45 0 18 -11 38 4 21 16 -10 7 -8 8 7 3 31 -8
51 3 75 42 26 41 15 62 -22 41 -31 -17 -49 -34 -49 -46 0 -5 -11 -14 -25 -20
-21 -10 -27 -9 -31 3 -4 8 -1 22 5 29 9 11 9 15 0 18 -9 3 -5 18 13 51 15 26
22 47 17 47 -18 0 -71 -59 -63 -71 4 -7 3 -9 -2 -6 -6 3 -18 -7 -29 -23 -11
-16 -27 -31 -37 -33 -17 -5 -110 -1 -138 5 -8 2 -14 -3 -13 -9 2 -7 -3 -12
-10 -10 -6 1 -11 -6 -11 -15 1 -10 -2 -18 -7 -18 -5 0 -9 7 -9 16 0 8 -5 12
-10 9 -6 -4 -9 -1 -8 7 2 7 -2 12 -8 11 -20 -4 -3 35 22 52 24 16 33 8 13 -12
-12 -12 39 -6 56 7 6 4 19 4 30 0 23 -8 47 -2 39 11 -3 5 2 6 10 3 9 -3 16 -1
16 5 0 6 6 10 13 8 6 -1 11 4 10 11 -2 6 2 12 8 12 5 0 7 5 4 10 -3 6 -1 10 4
10 6 0 11 9 11 21 0 11 4 18 9 14 5 -3 17 5 25 17 9 12 16 18 16 13 0 -6 5 -3
10 5 9 13 10 13 11 0 1 -8 1 -18 0 -22 -2 -13 37 -9 45 4 5 7 2 8 -7 3 -8 -4
-4 2 8 14 12 11 29 21 38 21 8 0 15 8 14 18 0 10 -3 12 -6 4 -2 -6 -9 -9 -15
-6 -5 3 -21 -5 -35 -17 -21 -20 -25 -21 -20 -6 6 15 3 17 -16 11 -34 -11 -67
-35 -61 -45 3 -5 -2 -6 -11 -2 -12 4 -13 8 -5 13 7 5 9 13 5 20 -5 7 -4 11 1
8 9 -6 36 16 29 23 -2 2 7 11 18 20 15 11 28 13 42 7 18 -8 18 -8 -2 -4 -13 2
-23 0 -23 -5 0 -11 34 -12 44 -2 4 4 19 9 34 11 38 5 61 29 56 58 -3 18 -1 22
11 18 9 -4 15 -1 15 7 0 12 2 12 9 0 7 -10 10 -10 16 -1 6 9 12 7 25 -10 13
-17 17 -18 17 -6 0 9 -4 16 -9 16 -5 0 -6 5 -3 10 3 6 1 10 -5 10 -6 0 -9 4
-5 9 3 6 14 8 25 6 11 -2 20 0 20 5 0 5 15 12 33 15 17 4 34 11 37 15 7 9 155
57 205 66 22 3 45 11 52 16 7 5 17 7 23 3 6 -4 16 -2 23 3 7 5 35 13 62 17 28
4 55 10 60 13 6 4 30 7 55 8 25 0 52 4 60 7 34 14 410 27 410 15 0 -5 34 -8
75 -8 41 0 75 -4 75 -10 0 -5 14 -7 32 -5 18 2 38 -1 45 -7 7 -6 13 -8 13 -6
0 3 30 -1 68 -9 67 -13 73 -15 102 -25 12 -5 93 -29 110 -34 33 -10 50 -18 50
-26 0 -5 5 -6 10 -3 6 4 17 2 24 -4 8 -7 18 -11 22 -10 5 1 27 -6 49 -15 22
-10 57 -25 78 -34 20 -9 37 -20 37 -25 0 -5 7 -7 15 -3 8 3 15 1 15 -4 0 -6 7
-10 15 -10 8 0 15 -5 15 -12 0 -6 3 -9 6 -5 4 3 21 -5 38 -18 17 -13 34 -23
37 -22 3 1 43 -23 88 -53 46 -30 90 -59 99 -65 9 -5 22 -17 28 -25 7 -8 16
-15 21 -15 10 0 41 -25 102 -82 25 -24 49 -43 52 -43 11 0 161 -151 155 -157
-3 -3 -12 2 -21 11 -9 9 -21 14 -26 11 -5 -4 -6 2 -2 11 4 12 3 15 -6 10 -7
-5 -10 -2 -9 6 2 7 -3 12 -10 10 -8 -1 -11 1 -8 6 5 9 -47 62 -62 62 -14 0 -2
-49 17 -63 25 -19 23 -35 -4 -32 -14 1 -25 -3 -25 -9 0 -6 -10 4 -21 22 -12
17 -27 32 -35 32 -8 0 -14 5 -14 10 0 6 -11 16 -25 22 -34 15 -31 26 7 30 l32
3 -42 33 c-32 26 -41 29 -37 15 4 -12 2 -11 -6 4 -12 23 -53 38 -71 27 -7 -4
-8 -3 -4 4 5 8 0 12 -13 12 -12 0 -22 -1 -24 -2 -1 -2 -13 7 -27 20 -30 27
-47 28 -55 2 -8 -25 3 -82 15 -75 10 6 8 -15 -4 -34 -5 -7 -10 -46 -11 -85 -1
-49 -8 -81 -20 -99 -13 -21 -14 -27 -4 -27 11 0 11 -2 1 -8 -7 -5 -10 -16 -6
-25 3 -9 10 -14 15 -11 5 3 6 10 3 16 -4 7 -2 8 4 4 6 -4 9 -13 6 -21 -7 -16
31 -39 48 -29 7 4 8 3 4 -4 -4 -7 -1 -12 9 -12 10 0 15 6 13 13 -3 6 3 21 13
31 19 19 19 19 19 -5 0 -13 4 -29 8 -35 11 -17 98 -64 106 -57 3 4 6 1 6 -6 0
-7 4 -10 8 -7 15 9 12 -53 -4 -68 -8 -9 -11 -16 -5 -16 18 0 41 43 41 77 0 59
-40 123 -80 126 -10 1 -17 3 -15 5 2 3 -7 19 -20 37 -14 17 -22 34 -19 38 9 9
13 87 5 87 -9 0 -8 31 2 48 17 27 82 -13 70 -44 -9 -24 18 -91 53 -132 40 -45
61 -50 137 -33 24 6 39 5 44 -2 3 -6 1 -7 -5 -3 -7 4 -12 3 -12 -2 0 -4 -10
-19 -22 -32 -27 -29 -31 -47 -12 -54 8 -3 14 -14 14 -24 0 -10 6 -24 13 -32 6
-7 -3 -3 -20 9 -37 25 -44 16 -13 -17 31 -33 25 -45 -40 -75 -33 -15 -58 -31
-56 -36 9 -14 -94 6 -112 22 -18 16 -32 14 -32 -5 0 -5 5 -6 12 -2 7 4 8 3 4
-5 -4 -6 -12 -9 -17 -6 -17 11 -51 -6 -44 -22 4 -13 3 -13 -9 -4 -18 15 -30
-11 -13 -29 8 -8 8 -11 1 -7 -6 4 -16 -5 -22 -18 -9 -19 -9 -25 1 -25 6 0 4
-5 -5 -11 -10 -5 -18 -16 -18 -24 0 -8 -12 -26 -27 -42 -16 -15 -27 -31 -26
-35 2 -4 -4 -5 -11 -2 -18 7 -59 -14 -51 -25 2 -5 21 -12 40 -15 23 -5 41 -16
52 -34 10 -15 21 -30 26 -33 5 -4 4 -10 -3 -14 -6 -4 -9 -13 -6 -20 7 -18 -16
-25 -85 -25 -45 0 -58 -3 -53 -12 5 -10 4 -10 -5 -2 -18 17 -62 4 -71 -20 -4
-11 -6 -23 -5 -26 2 -3 6 -25 10 -50 4 -25 10 -49 13 -55 4 -5 7 -14 7 -20 2
-25 19 -46 32 -41 8 3 11 1 8 -4 -3 -6 3 -10 15 -10 14 0 19 4 14 13 -4 6 6
-3 22 -21 l29 -33 47 16 c25 9 49 23 52 31 4 10 2 13 -7 8 -6 -4 0 5 16 21 15
15 28 32 28 36 2 13 6 29 9 32 1 1 3 10 5 21 2 10 12 28 23 40 24 27 35 56 20
56 -6 0 -1 8 10 19 12 10 18 21 14 26 -4 4 10 0 30 -8 31 -13 39 -13 55 -1 27
20 36 18 89 -28 47 -42 48 -42 25 -10 -20 28 -40 104 -24 88 3 -3 15 -1 26 5
10 6 17 7 14 2 -5 -9 41 -43 53 -40 15 5 82 -47 103 -80 42 -66 81 -137 83
-152 4 -22 20 -33 45 -29 22 3 21 5 -19 42 -23 22 -42 42 -42 45 1 17 20 32
46 37 41 7 47 16 41 66 -19 161 -19 158 3 158 11 0 20 -3 21 -7 4 -44 13 -58
28 -48 8 4 8 12 1 25 -14 26 -13 30 8 30 20 0 125 -154 120 -177 -2 -10 -14
-17 -30 -17 -14 -1 -25 1 -22 5 2 4 -5 9 -16 12 -19 5 -37 -23 -26 -41 3 -5
-12 -16 -34 -26 -33 -15 -38 -20 -34 -43 6 -34 13 -45 24 -38 5 3 12 0 16 -6
4 -8 3 -9 -4 -5 -8 5 -12 -2 -12 -18 0 -27 6 -30 52 -27 15 0 30 -4 33 -10 5
-6 12 -4 20 7 12 17 13 16 23 -3 6 -11 12 -51 13 -90 2 -71 -13 -113 -40 -113
-26 0 -90 -23 -86 -31 3 -4 0 -11 -6 -15 -7 -4 -9 -3 -6 2 3 6 -2 25 -11 44
-28 58 -81 92 -83 53 0 -10 -3 -27 -5 -38 -3 -11 -5 -31 -6 -45 0 -14 -3 -19
-5 -13 -3 9 -10 10 -23 3 -13 -7 -21 -7 -25 0 -4 6 -11 8 -16 5 -5 -4 -9 0 -9
8 0 7 -11 20 -25 27 -13 7 -27 21 -30 30 -3 9 -18 23 -33 30 -15 7 -39 19 -53
26 -14 7 -29 11 -32 8 -11 -11 -18 73 -7 100 6 16 8 31 6 34 -9 8 -58 5 -65
-4 -14 -20 -49 -31 -106 -33 -33 -2 -64 -5 -68 -8 -5 -3 -26 -7 -46 -8 -60 -5
-122 -25 -115 -37 4 -7 3 -8 -4 -4 -15 9 -84 -54 -77 -71 2 -8 1 -11 -4 -8
-10 5 -15 -7 -26 -62 -5 -23 -14 -34 -38 -44 -40 -15 -88 -59 -80 -72 3 -6 1
-7 -5 -3 -30 18 -124 -136 -116 -189 11 -77 12 -95 3 -101 -5 -3 -7 -9 -4 -14
3 -5 1 -11 -5 -15 -13 -8 -51 -81 -44 -87 2 -3 6 -26 8 -51 4 -56 44 -159 59
-150 6 3 7 1 3 -5 -4 -6 3 -19 15 -29 12 -10 33 -30 47 -45 14 -15 33 -30 44
-34 10 -3 16 -9 13 -14 -5 -7 20 -22 30 -17 2 1 11 -7 18 -18 13 -17 17 -18
33 -5 17 14 18 13 6 -2 -17 -21 -2 -26 54 -18 24 4 41 3 38 -1 -2 -4 4 -10 13
-12 32 -9 83 -6 89 5 5 7 2 8 -6 3 -9 -5 -11 -4 -6 4 4 6 11 9 16 6 13 -8 41
6 33 18 -3 6 -1 7 6 3 6 -4 18 -2 26 4 8 7 15 10 15 6 0 -3 10 -2 23 3 31 12
67 -4 67 -29 0 -16 6 -20 33 -20 21 0 36 -7 44 -20 11 -16 10 -18 -2 -14 -9 4
-17 -5 -23 -28 -13 -48 -4 -116 22 -173 12 -28 21 -56 18 -64 -3 -10 0 -12 11
-8 9 3 19 2 22 -4 4 -5 3 -9 -2 -8 -20 3 -29 -2 -30 -18 -1 -10 -7 -31 -14
-48 -7 -16 -12 -33 -11 -37 1 -5 -2 -8 -7 -8 -5 0 -11 -8 -15 -18 -3 -9 -24
-41 -45 -71 -22 -30 -38 -58 -35 -63 3 -5 1 -7 -4 -6 -6 2 -11 -1 -12 -7 0 -5
-9 -19 -19 -30 -21 -23 -59 -103 -73 -153 -1 -4 -8 -13 -15 -21 -11 -11 -11
-16 -1 -29 9 -11 10 -14 1 -9 -8 5 -24 -15 -47 -61 -19 -38 -51 -90 -70 -115
-32 -42 -33 -53 -3 -48 5 1 6 -3 3 -7 -3 -5 -17 -7 -32 -4 -21 4 -25 1 -22
-14 2 -13 13 -20 37 -22 21 -2 31 0 27 7 -4 7 -1 8 8 5 8 -3 23 3 34 13 10 10
24 19 31 21 26 5 131 85 124 94 -3 7 -1 8 6 4 11 -7 59 18 108 57 61 50 143
142 138 154 -2 8 -1 12 4 9 4 -3 21 13 37 34 16 22 33 40 37 40 18 0 108 102
103 116 -3 7 -2 13 2 11 4 -1 8 2 9 7 1 5 6 12 11 15 5 3 19 24 30 47 11 22
41 63 66 91 25 27 42 54 38 58 -4 5 -2 5 4 2 7 -4 19 4 27 17 9 13 23 31 32
40 9 9 14 16 10 16 -4 0 1 7 9 16 9 8 14 20 11 25 -4 5 -1 9 5 9 7 0 9 7 6 16
-3 8 -2 13 3 10 8 -5 36 53 47 94 2 8 12 41 24 74 11 32 17 62 14 67 -3 5 0 9
7 9 11 0 10 14 -7 85 -4 17 -16 36 -26 43 -15 11 -18 24 -16 67 2 29 6 51 11
48 12 -7 14 91 4 218 -8 108 -18 170 -26 165 -4 -3 -8 4 -9 15 -1 10 -2 26 -3
34 -1 8 -11 18 -22 21 -14 4 -16 8 -7 14 8 5 9 13 4 21 -22 36 -6 72 30 67 12
-1 28 2 36 7 13 8 13 7 1 -8 -12 -15 -10 -32 14 -125 30 -112 41 -136 58 -125
6 3 7 1 3 -6 -4 -6 -11 -9 -16 -6 -5 3 -4 -11 4 -32 7 -21 11 -56 8 -78 -2
-22 -5 -94 -7 -160 -2 -66 -7 -130 -10 -142 -5 -16 -3 -23 6 -24 17 -2 32 -5
39 -9 3 -1 14 -4 25 -5 11 -2 49 -8 85 -15 36 -6 83 -12 105 -13 22 0 43 -5
46 -10 9 -12 31 29 28 51 -1 9 1 24 4 32 6 17 17 80 20 125 1 17 5 35 8 40 4
6 6 40 5 78 0 37 3 68 7 70 11 3 13 319 2 337 -4 7 -8 43 -8 79 1 36 -2 71 -5
76 -4 6 -7 26 -7 45 0 19 -3 40 -7 45 -3 6 -9 40 -13 78 -4 37 -11 67 -15 67
-4 0 -7 8 -7 18 1 17 -10 64 -20 92 -4 8 -5 19 -4 24 1 5 -1 16 -5 25 -4 9 -8
21 -10 26 -1 6 -8 24 -15 40 -6 17 -13 35 -13 40 -3 19 -45 143 -55 162 -5 10
-22 47 -38 83 -15 36 -31 67 -35 68 -4 2 -8 8 -8 14 0 16 -74 158 -82 158 -4
0 -8 6 -8 13 0 8 -9 24 -20 37 -11 13 -20 27 -20 32 0 5 -5 14 -10 21 -6 7
-24 30 -40 52 -16 22 -34 45 -40 52 -5 7 -10 16 -10 21 0 5 -10 18 -22 30 -13
12 -43 47 -68 77 -56 68 -210 229 -210 219 0 -4 -24 15 -53 42 -30 27 -65 57
-78 67 -13 10 -37 29 -54 43 -16 14 -46 34 -65 46 -19 12 -39 28 -43 35 -4 7
-15 13 -22 13 -8 0 -15 5 -15 11 0 5 -4 8 -9 5 -5 -3 -14 1 -21 9 -7 8 -19 15
-26 15 -8 0 -14 5 -14 10 0 6 -11 15 -25 20 -14 5 -25 14 -25 20 0 5 -3 9 -7
8 -5 -1 -24 6 -43 17 -19 11 -37 20 -40 20 -15 4 -66 31 -71 38 -3 5 -10 9
-15 8 -5 0 -35 13 -67 30 -32 16 -64 29 -72 29 -8 0 -15 4 -15 10 0 5 -3 9 -7
8 -8 -1 -18 2 -97 33 -27 10 -55 19 -62 19 -8 0 -14 5 -14 11 0 5 -4 8 -8 5
-5 -3 -38 4 -73 15 -35 11 -76 20 -91 21 -16 0 -28 4 -28 8 0 4 -8 7 -17 7
-21 -1 -91 12 -113 20 -26 10 -107 13 -393 16 -153 2 -280 0 -283 -4z m-727
-573 c0 -8 -6 -12 -15 -8 -11 4 -13 2 -7 -9 7 -12 6 -12 -9 1 -17 13 -17 14 1
21 27 11 30 10 30 -5z m-287 -197 c0 -5 -4 -9 -8 -9 -5 0 -9 7 -9 15 0 8 4 12
9 9 4 -3 8 -9 8 -15z m-40 -9 c12 -7 10 -9 -8 -7 -12 0 -22 5 -22 9 0 11 12
10 30 -2z m297 -85 c0 -8 -4 -12 -9 -9 -5 3 -6 10 -3 15 9 13 12 11 12 -6z
m-300 -30 c0 -8 -4 -12 -9 -9 -5 3 -6 10 -3 15 9 13 12 11 12 -6z m2583 5 c0
-5 -2 -10 -4 -10 -3 0 -8 5 -11 10 -3 6 -1 10 4 10 6 0 11 -4 11 -10z m-44
-35 c-1 -13 -4 -27 -7 -30 -5 -4 -4 41 0 53 4 10 8 -2 7 -23z m-2639 -14 c0
-11 -5 -18 -9 -15 -4 3 -5 11 -1 19 7 21 12 19 10 -4z m39 -36 c-1 -8 -5 -17
-8 -21 -5 -4 -4 16 1 34 3 9 9 -1 7 -13z m-122 -13 c3 -5 -1 -9 -9 -9 -8 0
-12 4 -9 9 3 4 7 8 9 8 2 0 6 -4 9 -8z m2706 3 c0 -7 -30 -13 -34 -7 -3 4 4 9
15 9 10 1 19 0 19 -2z m-2544 -61 c1 -9 0 -13 -4 -10 -3 4 -7 14 -8 22 -1 9 0
13 4 10 3 -4 7 -14 8 -22z m2764 -4 c0 -5 -5 -10 -11 -10 -5 0 -7 5 -4 10 3 6
8 10 11 10 2 0 4 -4 4 -10z m-2923 -15 c0 -8 -4 -12 -9 -9 -5 3 -6 10 -3 15 9
13 12 11 12 -6z m123 -1 c0 -8 -19 -13 -24 -6 -3 5 1 9 9 9 8 0 15 -2 15 -3z
m2936 -6 c3 -4 -1 -5 -10 -4 -8 1 -18 5 -22 8 -3 4 1 5 10 4 8 -1 18 -5 22 -8z
m-3121 -7 c3 -5 2 -12 -3 -15 -5 -3 -9 1 -9 9 0 17 3 19 12 6z m3243 -39 c24
-26 50 -54 58 -63 8 -9 14 -21 14 -28 0 -6 7 -14 15 -17 8 -3 17 -14 20 -25 4
-10 13 -26 21 -34 9 -8 11 -15 5 -15 -6 0 -18 12 -28 28 -24 38 -106 146 -118
154 -5 4 -13 4 -19 1 -5 -3 -6 -1 -2 5 3 6 -1 18 -10 26 -8 9 -12 16 -7 16 4
0 27 -21 51 -48z m-501 19 c0 -11 -5 -18 -9 -15 -4 3 -5 11 -1 19 7 21 12 19
10 -4z m-2600 -23 c2 -17 0 -19 -7 -8 -5 8 -6 18 -4 22 8 12 10 10 11 -14z
m2693 16 c0 -8 -19 -13 -24 -6 -3 5 1 9 9 9 8 0 15 -2 15 -3z m-2890 -24 c0
-5 -2 -10 -4 -10 -3 0 -8 5 -11 10 -3 6 -1 10 4 10 6 0 11 -4 11 -10z m600 6
c0 -3 -4 -8 -10 -11 -5 -3 -10 -1 -10 4 0 6 5 11 10 11 6 0 10 -2 10 -4z
m-636 -24 c3 -5 -1 -9 -9 -9 -8 0 -12 4 -9 9 3 4 7 8 9 8 2 0 6 -4 9 -8z m753
-14 c2 -17 0 -19 -7 -8 -5 8 -6 18 -4 22 8 12 10 10 11 -14z m-637 -8 c0 -5
-5 -10 -11 -10 -5 0 -7 5 -4 10 3 6 8 10 11 10 2 0 4 -4 4 -10z m-140 -20 c0
-5 -5 -10 -11 -10 -5 0 -7 5 -4 10 3 6 8 10 11 10 2 0 4 -4 4 -10z m3000 -5
c0 -2 -9 -3 -19 -2 -11 0 -18 5 -15 9 4 6 34 0 34 -7z m350 9 c0 -8 -19 -13
-24 -6 -3 5 1 9 9 9 8 0 15 -2 15 -3z m-3175 -43 c-9 -8 -36 -10 -30 -2 2 4
11 8 20 8 8 0 13 -3 10 -6z m55 3 c0 -8 -19 -13 -24 -6 -3 5 1 9 9 9 8 0 15
-2 15 -3z m383 -19 c-7 -21 -12 -19 -10 4 0 11 5 18 9 15 4 -3 5 -11 1 -19z
m2402 16 c3 -5 2 -12 -3 -15 -5 -3 -9 1 -9 9 0 17 3 19 12 6z m-2982 -16 c-3
-9 -8 -14 -10 -11 -3 3 -2 9 2 15 9 16 15 13 8 -4z m3282 6 c3 -5 2 -12 -3
-15 -5 -3 -9 1 -9 9 0 17 3 19 12 6z m-2659 -27 c1 -9 0 -13 -4 -10 -3 4 -7
14 -8 22 -1 9 0 13 4 10 3 -4 7 -14 8 -22z m-716 0 c0 -8 -19 -13 -24 -6 -3 5
1 9 9 9 8 0 15 -2 15 -3z m164 -2 c3 -5 -1 -9 -9 -9 -8 0 -12 4 -9 9 3 4 7 8
9 8 2 0 6 -4 9 -8z m86 2 c0 -8 -19 -13 -24 -6 -3 5 1 9 9 9 8 0 15 -2 15 -3z
m585 -3 c3 -5 2 -12 -3 -15 -5 -3 -9 1 -9 9 0 17 3 19 12 6z m122 -6 c0 -8 -4
-12 -9 -9 -5 3 -6 10 -3 15 9 13 12 11 12 -6z m38 6 c3 -5 2 -12 -3 -15 -5 -3
-9 1 -9 9 0 17 3 19 12 6z m-878 -30 c0 -11 -5 -18 -9 -15 -4 3 -5 11 -1 19 7
21 12 19 10 -4z m639 4 c-1 -8 -5 -17 -8 -21 -5 -4 -4 16 1 34 3 9 9 -1 7 -13z
m2724 5 c0 -5 -5 -10 -11 -10 -5 0 -7 5 -4 10 3 6 8 10 11 10 2 0 4 -4 4 -10z
m-3205 -19 c3 -5 2 -12 -3 -15 -5 -3 -9 1 -9 9 0 17 3 19 12 6z m3079 1 c3 -5
-1 -9 -9 -9 -8 0 -12 4 -9 9 3 4 7 8 9 8 2 0 6 -4 9 -8z m227 -31 c16 -27 16
-28 -1 -24 -11 3 -16 11 -13 19 3 8 2 14 -3 13 -18 -3 -25 1 -19 11 10 16 19
12 36 -19z m-2741 9 c0 -5 -5 -10 -11 -10 -5 0 -7 5 -4 10 3 6 8 10 11 10 2 0
4 -4 4 -10z m115 0 c3 -5 1 -10 -4 -10 -6 0 -11 5 -11 10 0 6 2 10 4 10 3 0 8
-4 11 -10z m41 -5 c-1 -8 -5 -17 -8 -21 -5 -4 -4 16 1 34 3 9 9 -1 7 -13z
m-941 -15 c3 -5 1 -10 -4 -10 -6 0 -11 5 -11 10 0 6 2 10 4 10 3 0 8 -4 11
-10z m245 0 c0 -5 -5 -10 -11 -10 -5 0 -7 5 -4 10 3 6 8 10 11 10 2 0 4 -4 4
-10z m455 1 c3 -5 2 -12 -3 -15 -5 -3 -9 1 -9 9 0 17 3 19 12 6z m2665 -6 c0
-2 -9 -3 -19 -2 -11 0 -18 5 -15 9 4 6 34 0 34 -7z m-2365 -14 c3 -5 2 -12 -3
-15 -5 -3 -9 1 -9 9 0 17 3 19 12 6z m-1115 -15 c0 -3 -4 -8 -10 -11 -5 -3
-10 -1 -10 4 0 6 5 11 10 11 6 0 10 -2 10 -4z m134 -5 c3 -5 -2 -15 -12 -22
-15 -12 -16 -12 -5 2 7 9 10 19 6 22 -3 4 -4 7 0 7 3 0 8 -4 11 -9z m3362 -27
c0 -13 -2 -22 -5 -19 -3 3 -6 17 -7 31 0 13 2 22 5 19 3 -3 6 -17 7 -31z m184
14 c0 -6 -3 -8 -7 -5 -3 4 -13 1 -21 -6 -13 -11 -14 -9 -2 10 14 22 30 22 30
1z m-3631 -12 c9 -11 9 -16 -1 -22 -7 -4 -10 -4 -6 1 4 4 3 14 -3 22 -6 7 -9
13 -6 13 2 0 10 -6 16 -14z m121 10 c0 -2 -8 -10 -17 -17 -16 -13 -17 -12 -4
4 13 16 21 21 21 13z m46 -11 c-1 -8 -5 -17 -8 -21 -5 -4 -4 16 1 34 3 9 9 -1
7 -13z m41 -4 c0 -11 -5 -18 -9 -15 -4 3 -5 11 -1 19 7 21 12 19 10 -4z m159
-7 c1 -9 0 -13 -4 -10 -3 4 -7 14 -8 22 -1 9 0 13 4 10 3 -4 7 -14 8 -22z m49
16 c3 -6 -1 -7 -9 -4 -18 7 -21 14 -7 14 6 0 13 -4 16 -10z m325 0 c8 -5 11
-10 5 -10 -5 0 -17 5 -25 10 -8 5 -10 10 -5 10 6 0 17 -5 25 -10z m307 -15 c0
-8 -4 -12 -9 -9 -5 3 -6 10 -3 15 9 13 12 11 12 -6z m-141 -7 c3 -4 -1 -5 -10
-4 -8 1 -18 5 -22 8 -3 4 1 5 10 4 8 -1 18 -5 22 -8z m59 3 c-9 -8 -36 -10
-30 -2 2 4 11 8 20 8 8 0 13 -3 10 -6z m2241 -6 c-1 -8 -5 -17 -8 -21 -5 -4
-4 16 1 34 3 9 9 -1 7 -13z m99 5 c3 -5 1 -10 -4 -10 -6 0 -11 5 -11 10 0 6 2
10 4 10 3 0 8 -4 11 -10z m65 4 c0 -8 -19 -13 -24 -6 -3 5 1 9 9 9 8 0 15 -2
15 -3z m277 -1 c-4 -3 -2 -11 3 -18 7 -8 6 -12 -3 -12 -7 0 -14 9 -14 19 -1
10 3 18 9 18 6 0 8 -3 5 -7z m-2439 -28 c-3 -3 -9 2 -12 12 -6 14 -5 15 5 6 7
-7 10 -15 7 -18z m-122 0 c-1 -8 -5 -17 -8 -21 -5 -4 -4 16 1 34 3 9 9 -1 7
-13z m1960 -11 c1 -9 0 -13 -4 -10 -3 4 -7 14 -8 22 -1 9 0 13 4 10 3 -4 7
-14 8 -22z m444 16 c0 -5 -5 -10 -11 -10 -5 0 -7 5 -4 10 3 6 8 10 11 10 2 0
4 -4 4 -10z m-3500 -14 c0 -3 -4 -8 -10 -11 -5 -3 -10 -1 -10 4 0 6 5 11 10
11 6 0 10 -2 10 -4z m160 0 c0 -3 -4 -8 -10 -11 -5 -3 -10 -1 -10 4 0 6 5 11
10 11 6 0 10 -2 10 -4z m94 -8 c-3 -4 -11 -5 -19 -1 -21 7 -19 12 4 10 11 0
18 -5 15 -9z m146 2 c0 -5 -2 -10 -4 -10 -3 0 -8 5 -11 10 -3 6 -1 10 4 10 6
0 11 -4 11 -10z m174 2 c3 -5 -1 -9 -9 -9 -8 0 -12 4 -9 9 3 4 7 8 9 8 2 0 6
-4 9 -8z m162 -4 c3 -4 -1 -5 -10 -4 -8 1 -18 5 -22 8 -3 4 1 5 10 4 8 -1 18
-5 22 -8z m48 4 c3 -5 -1 -9 -9 -9 -8 0 -12 4 -9 9 3 4 7 8 9 8 2 0 6 -4 9 -8z
m2310 0 c3 -5 -1 -9 -9 -9 -8 0 -12 4 -9 9 3 4 7 8 9 8 2 0 6 -4 9 -8z m482
-4 c4 -7 3 -10 -1 -5 -5 4 -18 -1 -29 -10 -21 -18 -21 -18 -2 5 22 26 23 26
32 10z m102 -23 c-3 -3 -9 2 -12 12 -6 14 -5 15 5 6 7 -7 10 -15 7 -18z
m-2792 3 c3 -4 -1 -5 -10 -4 -8 1 -18 5 -22 8 -3 4 1 5 10 4 8 -1 18 -5 22 -8z
m2330 -14 c1 -9 0 -13 -4 -10 -3 4 -7 14 -8 22 -1 9 0 13 4 10 3 -4 7 -14 8
-22z m-3320 -6 c4 -7 4 -10 -1 -6 -4 4 -15 2 -24 -5 -14 -11 -14 -10 -2 6 16
20 18 21 27 5z m158 4 c3 -5 -1 -9 -9 -9 -8 0 -12 4 -9 9 3 4 7 8 9 8 2 0 6
-4 9 -8z m290 0 c3 -5 -1 -9 -9 -9 -8 0 -12 4 -9 9 3 4 7 8 9 8 2 0 6 -4 9 -8z
m350 -1 c-9 -9 -34 -9 -34 -1 0 5 9 8 20 7 10 -1 17 -3 14 -6z m141 -1 c3 -5
1 -10 -4 -10 -6 0 -11 5 -11 10 0 6 2 10 4 10 3 0 8 -4 11 -10z m2285 0 c0 -5
-5 -10 -11 -10 -5 0 -7 5 -4 10 3 6 8 10 11 10 2 0 4 -4 4 -10z m315 1 c-9 -8
-36 -10 -30 -2 2 4 11 8 20 8 8 0 13 -3 10 -6z m180 0 c-9 -8 -36 -10 -30 -2
2 4 11 8 20 8 8 0 13 -3 10 -6z m-3682 -26 c4 -8 3 -16 -1 -19 -4 -3 -9 4 -9
15 -2 23 3 25 10 4z m162 5 c3 -5 1 -10 -4 -10 -6 0 -11 5 -11 10 0 6 2 10 4
10 3 0 8 -4 11 -10z m205 0 c0 -5 -5 -10 -11 -10 -5 0 -7 5 -4 10 3 6 8 10 11
10 2 0 4 -4 4 -10z m157 -9 c0 -11 -5 -18 -9 -15 -4 3 -5 11 -1 19 7 21 12 19
10 -4z m159 -7 c1 -9 0 -13 -4 -10 -3 4 -7 14 -8 22 -1 9 0 13 4 10 3 -4 7
-14 8 -22z m2360 -19 c1 -8 -2 -15 -6 -15 -5 0 -8 9 -7 20 1 21 10 18 13 -5z
m344 21 c0 -3 -4 -8 -10 -11 -5 -3 -10 -1 -10 4 0 6 5 11 10 11 6 0 10 -2 10
-4z m54 -4 c3 -5 -1 -9 -9 -9 -8 0 -12 4 -9 9 3 4 7 8 9 8 2 0 6 -4 9 -8z
m306 4 c0 -3 -4 -8 -10 -11 -5 -3 -10 -1 -10 4 0 6 5 11 10 11 6 0 10 -2 10
-4z m-3115 -25 c-9 -8 -36 -10 -30 -2 2 4 11 8 20 8 8 0 13 -3 10 -6z m160 0
c-9 -8 -36 -10 -30 -2 2 4 11 8 20 8 8 0 13 -3 10 -6z m2430 -1 c3 -5 1 -10
-4 -10 -6 0 -11 5 -11 10 0 6 2 10 4 10 3 0 8 -4 11 -10z m305 6 c0 -2 -7 -7
-16 -10 -8 -3 -12 -2 -9 4 6 10 25 14 25 6z m125 -6 c-3 -5 -12 -10 -18 -10
-7 0 -6 4 3 10 19 12 23 12 15 0z m-3729 -25 c-1 -8 -5 -17 -8 -21 -5 -4 -4
16 1 34 3 9 9 -1 7 -13z m201 -7 c2 -17 0 -19 -7 -8 -5 8 -6 18 -4 22 8 12 10
10 11 -14z m240 0 c2 -17 0 -19 -7 -8 -5 8 -6 18 -4 22 8 12 10 10 11 -14z
m159 7 c-1 -8 -5 -17 -8 -21 -5 -4 -4 16 1 34 3 9 9 -1 7 -13z m160 -11 c1 -9
0 -13 -4 -10 -3 4 -7 14 -8 22 -1 9 0 13 4 10 3 -4 7 -14 8 -22z m3021 1 c0
-8 -4 -12 -9 -9 -5 3 -6 10 -3 15 9 13 12 11 12 -6z m-3737 -5 c0 -5 -2 -10
-4 -10 -3 0 -8 5 -11 10 -3 6 -1 10 4 10 6 0 11 -4 11 -10z m956 -5 c-1 -8 -5
-17 -8 -21 -5 -4 -4 16 1 34 3 9 9 -1 7 -13z m2441 -10 c0 -8 -4 -12 -9 -9 -5
3 -6 10 -3 15 9 13 12 11 12 -6z m-3347 -1 c0 -8 -19 -13 -24 -6 -3 5 1 9 9 9
8 0 15 -2 15 -3z m160 0 c0 -8 -19 -13 -24 -6 -3 5 1 9 9 9 8 0 15 -2 15 -3z
m265 -5 c3 -3 -6 -5 -19 -5 -14 1 -28 4 -31 7 -3 3 6 5 19 5 14 -1 28 -4 31
-7z m139 -5 c3 -8 2 -12 -4 -9 -6 3 -10 10 -10 16 0 14 7 11 14 -7z m70 8 c3
-5 -1 -9 -9 -9 -8 0 -12 4 -9 9 3 4 7 8 9 8 2 0 6 -4 9 -8z m2552 -4 c3 -4 -1
-5 -10 -4 -8 1 -18 5 -22 8 -3 4 1 5 10 4 8 -1 18 -5 22 -8z m48 4 c3 -5 -1
-9 -9 -9 -8 0 -12 4 -9 9 3 4 7 8 9 8 2 0 6 -4 9 -8z m256 4 c0 -3 -4 -8 -10
-11 -5 -3 -10 -1 -10 4 0 6 5 11 10 11 6 0 10 -2 10 -4z m175 -5 c-9 -8 -36
-10 -30 -2 2 4 11 8 20 8 8 0 13 -3 10 -6z m-3759 -37 c1 -9 0 -13 -4 -10 -3
4 -7 14 -8 22 -1 9 0 13 4 10 3 -4 7 -14 8 -22z m160 11 c-1 -8 -5 -17 -8 -21
-5 -4 -4 16 1 34 3 9 9 -1 7 -13z m3215 -12 c-12 -20 -14 -14 -5 12 4 9 9 14
11 11 3 -2 0 -13 -6 -23z m469 23 c0 -3 -4 -8 -10 -11 -5 -3 -10 -1 -10 4 0 6
5 11 10 11 6 0 10 -2 10 -4z m-725 -15 c3 -5 2 -12 -3 -15 -5 -3 -9 1 -9 9 0
17 3 19 12 6z m482 -6 c0 -8 -4 -12 -9 -9 -5 3 -6 10 -3 15 9 13 12 11 12 -6z
m100 0 c0 -8 -4 -12 -9 -9 -5 3 -6 10 -3 15 9 13 12 11 12 -6z m-3317 -5 c0
-5 -5 -10 -11 -10 -5 0 -7 5 -4 10 3 6 8 10 11 10 2 0 4 -4 4 -10z m160 0 c0
-5 -5 -10 -11 -10 -5 0 -7 5 -4 10 3 6 8 10 11 10 2 0 4 -4 4 -10z m336 -2 c3
-4 -1 -5 -10 -4 -8 1 -18 5 -22 8 -3 4 1 5 10 4 8 -1 18 -5 22 -8z m2364 6 c0
-8 -19 -13 -24 -6 -3 5 1 9 9 9 8 0 15 -2 15 -3z m196 -9 c-1 -8 -5 -17 -8
-21 -5 -4 -4 16 1 34 3 9 9 -1 7 -13z m200 0 c-1 -8 -5 -17 -8 -21 -5 -4 -4
16 1 34 3 9 9 -1 7 -13z m-100 -21 c1 -9 0 -13 -4 -10 -3 4 -7 14 -8 22 -1 9
0 13 4 10 3 -4 7 -14 8 -22z m-3599 1 c0 -8 -4 -12 -9 -9 -5 3 -6 10 -3 15 9
13 12 11 12 -6z m3263 11 c0 -3 -4 -8 -10 -11 -5 -3 -10 -1 -10 4 0 6 5 11 10
11 6 0 10 -2 10 -4z m675 -18 c5 4 5 1 1 -6 -6 -10 -11 -10 -22 -1 -8 6 -14
14 -14 16 0 3 6 0 13 -6 8 -6 18 -7 22 -3z m-3735 -2 c0 -3 -4 -8 -10 -11 -5
-3 -10 -1 -10 4 0 6 5 11 10 11 6 0 10 -2 10 -4z m160 0 c0 -3 -4 -8 -10 -11
-5 -3 -10 -1 -10 4 0 6 5 11 10 11 6 0 10 -2 10 -4z m56 -11 c-1 -8 -5 -17 -8
-21 -5 -4 -4 16 1 34 3 9 9 -1 7 -13z m744 5 c0 -5 -2 -10 -4 -10 -3 0 -8 5
-11 10 -3 6 -1 10 4 10 6 0 11 -4 11 -10z m2055 1 c-9 -8 -36 -10 -30 -2 2 4
11 8 20 8 8 0 13 -3 10 -6z m320 0 c3 -5 2 -12 -3 -15 -5 -3 -9 1 -9 9 0 17 3
19 12 6z m219 -7 c3 -8 2 -12 -4 -9 -6 3 -10 10 -10 16 0 14 7 11 14 -7z
m-3274 2 c0 -2 -8 -10 -17 -17 -16 -13 -17 -12 -4 4 13 16 21 21 21 13z m147
-14 c-10 -10 -14 -22 -10 -27 5 -4 2 -5 -5 -1 -11 6 -10 12 4 27 9 10 19 19
22 19 3 0 -2 -8 -11 -18z m-126 -5 c-6 -8 -7 -18 -3 -22 4 -5 1 -5 -6 -1 -10
6 -10 11 -1 22 6 8 14 14 16 14 3 0 0 -6 -6 -13z m239 3 c0 -5 -2 -10 -4 -10
-3 0 -8 5 -11 10 -3 6 -1 10 4 10 6 0 11 -4 11 -10z m160 6 c0 -3 -4 -8 -10
-11 -5 -3 -10 -1 -10 4 0 6 5 11 10 11 6 0 10 -2 10 -4z m40 -6 c0 -5 -5 -10
-11 -10 -5 0 -7 5 -4 10 3 6 8 10 11 10 2 0 4 -4 4 -10z m-990 -16 c0 -8 -19
-13 -24 -6 -3 5 1 9 9 9 8 0 15 -2 15 -3z m50 -4 c0 -5 -5 -10 -11 -10 -5 0
-7 5 -4 10 3 6 8 10 11 10 2 0 4 -4 4 -10z m160 -5 c0 -2 -9 -3 -19 -2 -11 0
-18 5 -15 9 4 6 34 0 34 -7z m115 6 c-9 -8 -36 -10 -30 -2 2 4 11 8 20 8 8 0
13 -3 10 -6z m115 3 c0 -8 -19 -13 -24 -6 -3 5 1 9 9 9 8 0 15 -2 15 -3z
m3190 0 c0 -8 -19 -13 -24 -6 -3 5 1 9 9 9 8 0 15 -2 15 -3z m396 -6 c3 -4 -1
-5 -10 -4 -8 1 -18 5 -22 8 -3 4 1 5 10 4 8 -1 18 -5 22 -8z m-3879 -27 c0
-11 -5 -18 -9 -15 -4 3 -5 11 -1 19 7 21 12 19 10 -4z m559 4 c-1 -8 -5 -17
-8 -21 -5 -4 -4 16 1 34 3 9 9 -1 7 -13z m2684 11 c0 -3 -4 -8 -10 -11 -5 -3
-10 -1 -10 4 0 6 5 11 10 11 6 0 10 -2 10 -4z m-2605 -15 c3 -5 2 -12 -3 -15
-5 -3 -9 1 -9 9 0 17 3 19 12 6z m-215 -11 c0 -5 -2 -10 -4 -10 -3 0 -8 5 -11
10 -3 6 -1 10 4 10 6 0 11 -4 11 -10z m334 2 c3 -5 -1 -9 -9 -9 -8 0 -12 4 -9
9 3 4 7 8 9 8 2 0 6 -4 9 -8z m2786 2 c0 -8 -19 -13 -24 -6 -3 5 1 9 9 9 8 0
15 -2 15 -3z m-2925 -24 c3 -5 1 -10 -4 -10 -6 0 -11 5 -11 10 0 6 2 10 4 10
3 0 8 -4 11 -10z m3065 0 c0 -5 -5 -10 -11 -10 -5 0 -7 5 -4 10 3 6 8 10 11
10 2 0 4 -4 4 -10z m-3724 -36 c1 -9 0 -13 -4 -10 -3 4 -7 14 -8 22 -1 9 0 13
4 10 3 -4 7 -14 8 -22z m320 11 c-1 -8 -5 -17 -8 -21 -5 -4 -4 16 1 34 3 9 9
-1 7 -13z m77 -10 c-7 -21 -12 -19 -10 4 0 11 5 18 9 15 4 -3 5 -11 1 -19z
m202 16 c3 -5 2 -12 -3 -15 -5 -3 -9 1 -9 9 0 17 3 19 12 6z m122 -6 c0 -8 -4
-12 -9 -9 -5 3 -6 10 -3 15 9 13 12 11 12 -6z m2413 9 c0 -8 -19 -13 -24 -6
-3 5 1 9 9 9 8 0 15 -2 15 -3z m546 -20 c1 -9 0 -13 -4 -10 -3 4 -7 14 -8 22
-1 9 0 13 4 10 3 -4 7 -14 8 -22z m-2350 -18 c0 -14 -3 -23 -7 -20 -8 5 -22
-14 -25 -33 -1 -7 2 -15 7 -19 5 -3 6 -11 2 -17 -11 -18 -12 -36 -2 -43 11 -7
2 -24 -13 -24 -6 0 -7 8 -3 18 5 14 4 15 -7 4 -11 -11 -10 -16 6 -28 11 -8 14
-14 7 -14 -7 0 -9 -5 -5 -12 6 -10 5 -10 -7 -1 -16 13 -20 97 -6 120 4 6 2 13
-4 15 -9 3 -9 10 0 27 7 13 18 20 27 17 9 -3 14 1 14 14 0 11 4 20 8 20 4 0 8
-11 8 -24z m1594 14 c0 -5 -5 -10 -11 -10 -5 0 -7 5 -4 10 3 6 8 10 11 10 2 0
4 -4 4 -10z m-3086 -18 c3 -5 -1 -9 -9 -9 -8 0 -12 4 -9 9 3 4 7 8 9 8 2 0 6
-4 9 -8z m106 -2 c0 -5 -2 -10 -4 -10 -3 0 -8 5 -11 10 -3 6 -1 10 4 10 6 0
11 -4 11 -10z m144 2 c3 -5 -1 -9 -9 -9 -8 0 -12 4 -9 9 3 4 7 8 9 8 2 0 6 -4
9 -8z m56 -2 c0 -5 -2 -10 -4 -10 -3 0 -8 5 -11 10 -3 6 -1 10 4 10 6 0 11 -4
11 -10z m220 4 c0 -8 -19 -13 -24 -6 -3 5 1 9 9 9 8 0 15 -2 15 -3z m-44 -40
c1 -9 0 -13 -4 -10 -3 4 -7 14 -8 22 -1 9 0 13 4 10 3 -4 7 -14 8 -22z m157
11 c4 -8 3 -16 -1 -19 -4 -3 -9 4 -9 15 -2 23 3 25 10 4z m87 5 c0 -5 -2 -10
-4 -10 -3 0 -8 5 -11 10 -3 6 -1 10 4 10 6 0 11 -4 11 -10z m2546 -2 c3 -4 -1
-5 -10 -4 -8 1 -18 5 -22 8 -3 4 1 5 10 4 8 -1 18 -5 22 -8z m-3171 -18 c3 -5
1 -10 -4 -10 -6 0 -11 5 -11 10 0 6 2 10 4 10 3 0 8 -4 11 -10z m241 -2 c3 -4
-1 -5 -10 -4 -8 1 -18 5 -22 8 -3 4 1 5 10 4 8 -1 18 -5 22 -8z m59 3 c-9 -8
-36 -10 -30 -2 2 4 11 8 20 8 8 0 13 -3 10 -6z m2722 -6 c0 -8 -4 -12 -9 -9
-5 3 -6 10 -3 15 9 13 12 11 12 -6z m-3081 -31 c1 -9 0 -13 -4 -10 -3 4 -7 14
-8 22 -1 9 0 13 4 10 3 -4 7 -14 8 -22z m584 1 c0 -7 -30 -13 -34 -7 -3 4 4 9
15 9 10 1 19 0 19 -2z m2614 -3 c3 -5 -1 -9 -9 -9 -8 0 -12 4 -9 9 3 4 7 8 9
8 2 0 6 -4 9 -8z m886 2 c0 -8 -19 -13 -24 -6 -3 5 1 9 9 9 8 0 15 -2 15 -3z
m-3910 -40 c0 -8 -19 -13 -24 -6 -3 5 1 9 9 9 8 0 15 -2 15 -3z m107 -9 c0 -8
-4 -12 -9 -9 -5 3 -6 10 -3 15 9 13 12 11 12 -6z m197 7 c3 -5 -1 -9 -9 -9 -8
0 -12 4 -9 9 3 4 7 8 9 8 2 0 6 -4 9 -8z m3490 0 c3 -5 -1 -9 -9 -9 -8 0 -12
4 -9 9 3 4 7 8 9 8 2 0 6 -4 9 -8z m-3528 -27 c-1 -8 -5 -17 -8 -21 -5 -4 -4
16 1 34 3 9 9 -1 7 -13z m79 5 c3 -5 1 -10 -4 -10 -6 0 -11 5 -11 10 0 6 2 10
4 10 3 0 8 -4 11 -10z m-460 -19 c-9 -8 -36 -10 -30 -2 2 4 11 8 20 8 8 0 13
-3 10 -6z m61 -3 c3 -4 -1 -5 -10 -4 -8 1 -18 5 -22 8 -3 4 1 5 10 4 8 -1 18
-5 22 -8z m1328 4 c2 -4 1 -14 -5 -22 -5 -8 -9 -13 -10 -10 0 3 -2 13 -4 23
-3 17 10 24 19 9z m1713 -14 c2 -17 0 -19 -7 -8 -5 8 -6 18 -4 22 8 12 10 10
11 -14z m863 12 c0 -5 -2 -10 -4 -10 -3 0 -8 5 -11 10 -3 6 -1 10 4 10 6 0 11
-4 11 -10z m80 5 c0 -7 -30 -13 -34 -7 -3 4 4 9 15 9 10 1 19 0 19 -2z m-4204
-17 c-7 -37 -28 -98 -32 -98 -4 0 -3 12 1 28 4 15 8 34 9 42 2 16 14 40 21 40
2 0 2 -6 1 -12z m817 -13 c4 -8 3 -16 -1 -19 -4 -3 -9 4 -9 15 -2 23 3 25 10
4z m-757 -20 c-1 -8 -5 -17 -8 -21 -5 -4 -4 16 1 34 3 9 9 -1 7 -13z m99 5 c3
-5 1 -10 -4 -10 -6 0 -11 5 -11 10 0 6 2 10 4 10 3 0 8 -4 11 -10z m65 4 c0
-8 -19 -13 -24 -6 -3 5 1 9 9 9 8 0 15 -2 15 -3z m175 -4 c3 -5 1 -10 -4 -10
-6 0 -11 5 -11 10 0 6 2 10 4 10 3 0 8 -4 11 -10z m105 -20 c0 -5 -2 -10 -4
-10 -3 0 -8 5 -11 10 -3 6 -1 10 4 10 6 0 11 -4 11 -10z m160 0 c0 -5 -2 -10
-4 -10 -3 0 -8 5 -11 10 -3 6 -1 10 4 10 6 0 11 -4 11 -10z m116 -16 c1 -9 0
-13 -4 -10 -3 4 -7 14 -8 22 -1 9 0 13 4 10 3 -4 7 -14 8 -22z m2840 0 c1 -9
0 -13 -4 -10 -3 4 -7 14 -8 22 -1 9 0 13 4 10 3 -4 7 -14 8 -22z m-3319 -9 c0
-8 -4 -12 -9 -9 -5 3 -6 10 -3 15 9 13 12 11 12 -6z m167 7 c3 -5 -1 -9 -9 -9
-8 0 -12 4 -9 9 3 4 7 8 9 8 2 0 6 -4 9 -8z m246 2 c0 -8 -19 -13 -24 -6 -3 5
1 9 9 9 8 0 15 -2 15 -3z m3504 -2 c3 -5 -1 -9 -9 -9 -8 0 -12 4 -9 9 3 4 7 8
9 8 2 0 6 -4 9 -8z m-2264 -22 c-9 -6 -9 -9 0 -12 11 -3 11 -8 1 -24 -9 -13
-11 -14 -7 -2 2 9 2 19 -2 22 -13 14 -10 35 5 29 11 -4 12 -8 3 -13z m-1894
-16 c1 -9 0 -13 -4 -10 -3 4 -7 14 -8 22 -1 9 0 13 4 10 3 -4 7 -14 8 -22z
m3520 11 c-1 -8 -5 -17 -8 -21 -5 -4 -4 16 1 34 3 9 9 -1 7 -13z m-3300 -17
c3 -4 -1 -5 -10 -4 -8 1 -18 5 -22 8 -3 4 1 5 10 4 8 -1 18 -5 22 -8z m180 0
c3 -4 -1 -5 -10 -4 -8 1 -18 5 -22 8 -3 4 1 5 10 4 8 -1 18 -5 22 -8z m158 4
c2 -4 -5 -9 -17 -9 -17 -2 -19 0 -7 7 18 12 18 12 24 2z m121 -1 c3 -5 2 -12
-3 -15 -5 -3 -9 1 -9 9 0 17 3 19 12 6z m2685 -15 c0 -3 -4 -8 -10 -11 -5 -3
-10 -1 -10 4 0 6 5 11 10 11 6 0 10 -2 10 -4z m-3260 -20 c0 -3 -4 -8 -10 -11
-5 -3 -10 -1 -10 4 0 6 5 11 10 11 6 0 10 -2 10 -4z m54 -4 c3 -5 -1 -9 -9 -9
-8 0 -12 4 -9 9 3 4 7 8 9 8 2 0 6 -4 9 -8z m363 -7 c0 -8 -4 -12 -9 -9 -5 3
-6 10 -3 15 9 13 12 11 12 -6z m2798 6 c-9 -8 -36 -10 -30 -2 2 4 11 8 20 8 8
0 13 -3 10 -6z m185 5 c0 -3 -4 -8 -10 -11 -5 -3 -10 -1 -10 4 0 6 5 11 10 11
6 0 10 -2 10 -4z m-3486 -24 c3 -5 -1 -9 -9 -9 -8 0 -12 4 -9 9 3 4 7 8 9 8 2
0 6 -4 9 -8z m181 -10 c-3 -3 -11 0 -18 7 -9 10 -8 11 6 5 10 -3 15 -9 12 -12z
m2962 -7 c0 -8 -4 -12 -9 -9 -5 3 -6 10 -3 15 9 13 12 11 12 -6z m358 6 c3 -5
2 -12 -3 -15 -5 -3 -9 1 -9 9 0 17 3 19 12 6z m-3225 -7 c0 -8 -19 -13 -24 -6
-3 5 1 9 9 9 8 0 15 -2 15 -3z m50 -4 c0 -5 -5 -10 -11 -10 -5 0 -7 5 -4 10 3
6 8 10 11 10 2 0 4 -4 4 -10z m3035 1 c-9 -8 -36 -10 -30 -2 2 4 11 8 20 8 8
0 13 -3 10 -6z m835 3 c0 -8 -19 -13 -24 -6 -3 5 1 9 9 9 8 0 15 -2 15 -3z
m-2315 -34 c-3 -5 -1 -11 4 -15 12 -7 3 -35 -10 -35 -5 0 -8 3 -8 8 1 4 1 9
-1 12 -1 3 -3 15 -6 27 -3 17 0 21 11 17 8 -4 13 -10 10 -14z m1425 10 c0 -5
-5 -10 -11 -10 -5 0 -7 5 -4 10 3 6 8 10 11 10 2 0 4 -4 4 -10z m-3163 -15 c0
-8 -4 -12 -9 -9 -5 3 -6 10 -3 15 9 13 12 11 12 -6z m-113 -3 c3 -5 -1 -9 -9
-9 -8 0 -12 4 -9 9 3 4 7 8 9 8 2 0 6 -4 9 -8z m3150 -4 c-3 -4 -11 -5 -19 -1
-21 7 -19 12 4 10 11 0 18 -5 15 -9z m306 7 c0 -7 -30 -13 -34 -7 -3 4 4 9 15
9 10 1 19 0 19 -2z m135 -4 c3 -5 2 -12 -3 -15 -5 -3 -9 1 -9 9 0 17 3 19 12
6z m240 0 c3 -5 2 -12 -3 -15 -5 -3 -9 1 -9 9 0 17 3 19 12 6z m-495 -5 c0 -2
-8 -10 -17 -17 -16 -13 -17 -12 -4 4 13 16 21 21 21 13z m-120 -41 c0 -2 -9
-3 -19 -2 -11 0 -18 5 -15 9 4 6 34 0 34 -7z m136 3 c4 -7 4 -10 -1 -6 -4 4
-15 2 -24 -5 -14 -11 -14 -10 -2 6 16 20 18 21 27 5z m264 2 c0 -5 -5 -10 -11
-10 -5 0 -7 5 -4 10 3 6 8 10 11 10 2 0 4 -4 4 -10z m377 -12 c2 -17 0 -19 -7
-8 -5 8 -6 18 -4 22 8 12 10 10 11 -14z m123 16 c0 -8 -19 -13 -24 -6 -3 5 1
9 9 9 8 0 15 -2 15 -3z m-2215 -45 c-4 -5 -12 -9 -18 -8 -8 0 -8 2 1 6 10 4 9
9 -5 20 -17 13 -16 13 5 3 12 -6 20 -15 17 -21z m1175 27 c0 -3 -4 -8 -10 -11
-5 -3 -10 -1 -10 4 0 6 5 11 10 11 6 0 10 -2 10 -4z m315 -6 c3 -5 1 -10 -4
-10 -6 0 -11 5 -11 10 0 6 2 10 4 10 3 0 8 -4 11 -10z m445 0 c0 -5 -5 -10
-11 -10 -5 0 -7 5 -4 10 3 6 8 10 11 10 2 0 4 -4 4 -10z m-3716 -18 c3 -5 -1
-9 -9 -9 -8 0 -12 4 -9 9 3 4 7 8 9 8 2 0 6 -4 9 -8z m3110 -1 c3 -5 -2 -15
-12 -22 -15 -12 -16 -12 -5 2 7 9 10 19 6 22 -3 4 -4 7 0 7 3 0 8 -4 11 -9z
m521 0 c-9 -8 -36 -10 -30 -2 2 4 11 8 20 8 8 0 13 -3 10 -6z m-664 -34 c-10
-9 -11 -8 -5 6 3 10 9 15 12 12 3 -3 0 -11 -7 -18z m-2995 -9 c3 -4 -1 -5 -10
-4 -8 1 -18 5 -22 8 -3 4 1 5 10 4 8 -1 18 -5 22 -8z m2858 4 c3 -5 -1 -9 -9
-9 -8 0 -12 4 -9 9 3 4 7 8 9 8 2 0 6 -4 9 -8z m439 -17 c-7 -21 -12 -19 -10
4 0 11 5 18 9 15 4 -3 5 -11 1 -19z m121 17 c2 -4 -5 -9 -17 -9 -17 -2 -19 0
-7 7 18 12 18 12 24 2z m182 -4 c3 -4 -1 -5 -10 -4 -8 1 -18 5 -22 8 -3 4 1 5
10 4 8 -1 18 -5 22 -8z m59 3 c-9 -8 -36 -10 -30 -2 2 4 11 8 20 8 8 0 13 -3
10 -6z m-760 -21 c3 -5 1 -10 -4 -10 -6 0 -11 5 -11 10 0 6 2 10 4 10 3 0 8
-4 11 -10z m558 -5 c4 -8 3 -16 -1 -19 -4 -3 -9 4 -9 15 -2 23 3 25 10 4z
m287 5 c0 -5 -2 -10 -4 -10 -3 0 -8 5 -11 10 -3 6 -1 10 4 10 6 0 11 -4 11
-10z m150 4 c0 -8 -19 -13 -24 -6 -3 5 1 9 9 9 8 0 15 -2 15 -3z m-635 -16 c5
4 5 1 1 -6 -6 -10 -11 -10 -22 -1 -8 6 -14 14 -14 16 0 3 6 0 13 -6 8 -6 18
-7 22 -3z m-215 -2 c0 -3 -4 -8 -10 -11 -5 -3 -10 -1 -10 4 0 6 5 11 10 11 6
0 10 -2 10 -4z m160 0 c0 -3 -4 -8 -10 -11 -5 -3 -10 -1 -10 4 0 6 5 11 10 11
6 0 10 -2 10 -4z m-355 -26 c3 -6 -1 -7 -9 -4 -18 7 -21 14 -7 14 6 0 13 -4
16 -10z m1008 -5 c4 -8 3 -16 -1 -19 -4 -3 -9 4 -9 15 -2 23 3 25 10 4z m-118
-4 c3 -5 2 -12 -3 -15 -5 -3 -9 1 -9 9 0 17 3 19 12 6z m-940 -11 c3 -5 1 -10
-4 -10 -6 0 -11 5 -11 10 0 6 2 10 4 10 3 0 8 -4 11 -10z m116 -13 c-10 -9
-11 -8 -5 6 3 10 9 15 12 12 3 -3 0 -11 -7 -18z m184 12 c3 -3 -6 -5 -19 -5
-14 1 -28 4 -31 7 -3 3 6 5 19 5 14 -1 28 -4 31 -7z m260 1 c3 -5 1 -10 -4
-10 -6 0 -11 5 -11 10 0 6 2 10 4 10 3 0 8 -4 11 -10z m165 0 c0 -5 -5 -10
-11 -10 -5 0 -7 5 -4 10 3 6 8 10 11 10 2 0 4 -4 4 -10z m176 -16 c1 -9 0 -13
-4 -10 -3 4 -7 14 -8 22 -1 9 0 13 4 10 3 -4 7 -14 8 -22z m204 20 c0 -8 -19
-13 -24 -6 -3 5 1 9 9 9 8 0 15 -2 15 -3z m-924 -29 c-1 -8 -5 -17 -8 -21 -5
-4 -4 16 1 34 3 9 9 -1 7 -13z m157 0 c4 -8 3 -16 -1 -19 -4 -3 -9 4 -9 15 -2
23 3 25 10 4z m924 -4 c0 -11 -5 -18 -9 -15 -4 3 -5 11 -1 19 7 21 12 19 10
-4z m-1243 -10 c3 -5 -2 -15 -12 -22 -15 -12 -16 -12 -5 2 7 9 10 19 6 22 -3
4 -4 7 0 7 3 0 8 -4 11 -9z m561 0 c3 -5 2 -12 -3 -15 -5 -3 -9 1 -9 9 0 17 3
19 12 6z m121 -16 c-1 -13 -4 -27 -7 -30 -5 -4 -4 41 0 53 4 10 8 -2 7 -23z
m144 15 c0 -5 -2 -10 -4 -10 -3 0 -8 5 -11 10 -3 6 -1 10 4 10 6 0 11 -4 11
-10z m200 5 c0 -7 -30 -13 -34 -7 -3 4 4 9 15 9 10 1 19 0 19 -2z m-524 -31
c1 -9 0 -13 -4 -10 -3 4 -7 14 -8 22 -1 9 0 13 4 10 3 -4 7 -14 8 -22z m-466
12 c0 -2 -8 -10 -17 -17 -16 -13 -17 -12 -4 4 13 16 21 21 21 13z m46 -11 c-1
-8 -5 -17 -8 -21 -5 -4 -4 16 1 34 3 9 9 -1 7 -13z m121 -27 c2 -17 0 -19 -7
-8 -5 8 -6 18 -4 22 8 12 10 10 11 -14z m160 0 c2 -17 0 -19 -7 -8 -5 8 -6 18
-4 22 8 12 10 10 11 -14z m423 7 c0 -2 -9 -3 -19 -2 -11 0 -18 5 -15 9 4 6 34
0 34 -7z m160 5 c0 -5 -5 -10 -11 -10 -5 0 -7 5 -4 10 3 6 8 10 11 10 2 0 4
-4 4 -10z m-305 -20 c3 -5 1 -10 -4 -10 -6 0 -11 5 -11 10 0 6 2 10 4 10 3 0
8 -4 11 -10z m-215 -4 c0 -2 -6 -9 -14 -15 -11 -9 -16 -9 -22 0 -4 7 -3 9 4 5
6 -3 13 -2 17 4 6 10 15 14 15 6z m-360 -10 c0 -3 -4 -8 -10 -11 -5 -3 -10 -1
-10 4 0 6 5 11 10 11 6 0 10 -2 10 -4z m215 -7 c3 -3 -6 -5 -19 -5 -14 1 -28
4 -31 7 -3 3 6 5 19 5 14 -1 28 -4 31 -7z m185 1 c0 -5 -2 -10 -4 -10 -3 0 -8
5 -11 10 -3 6 -1 10 4 10 6 0 11 -4 11 -10z m335 1 c3 -5 2 -12 -3 -15 -5 -3
-9 1 -9 9 0 17 3 19 12 6z m121 -6 c-1 -8 -5 -17 -8 -21 -5 -4 -4 16 1 34 3 9
9 -1 7 -13z m160 -31 c1 -9 0 -13 -4 -10 -3 4 -7 14 -8 22 -1 9 0 13 4 10 3
-4 7 -14 8 -22z m55 9 c13 -16 12 -17 -3 -4 -10 7 -18 15 -18 17 0 8 8 3 21
-13z m-1177 -11 c2 -4 -5 -9 -17 -9 -17 -2 -19 0 -7 7 18 12 18 12 24 2z m186
-2 c0 -5 -5 -10 -11 -10 -5 0 -7 5 -4 10 3 6 8 10 11 10 2 0 4 -4 4 -10z m160
0 c0 -5 -5 -10 -11 -10 -5 0 -7 5 -4 10 3 6 8 10 11 10 2 0 4 -4 4 -10z m264
2 c3 -5 -1 -9 -9 -9 -8 0 -12 4 -9 9 3 4 7 8 9 8 2 0 6 -4 9 -8z m152 -4 c3
-4 -1 -5 -10 -4 -8 1 -18 5 -22 8 -3 4 1 5 10 4 8 -1 18 -5 22 -8z m278 4 c3
-5 -1 -9 -9 -9 -8 0 -12 4 -9 9 3 4 7 8 9 8 2 0 6 -4 9 -8z m-3754 -22 c0 -5
-5 -10 -11 -10 -5 0 -7 5 -4 10 3 6 8 10 11 10 2 0 4 -4 4 -10z m2753 -5 c4
-8 3 -16 -1 -19 -4 -3 -9 4 -9 15 -2 23 3 25 10 4z m524 -4 c0 -11 -5 -18 -9
-15 -4 3 -5 11 -1 19 7 21 12 19 10 -4z m363 15 c0 -3 -4 -8 -10 -11 -5 -3
-10 -1 -10 4 0 6 5 11 10 11 6 0 10 -2 10 -4z m155 -6 c3 -5 1 -10 -4 -10 -6
0 -11 5 -11 10 0 6 2 10 4 10 3 0 8 -4 11 -10z m-3860 -19 c-9 -8 -36 -10 -30
-2 2 4 11 8 20 8 8 0 13 -3 10 -6z m2941 -6 c-1 -8 -5 -17 -8 -21 -5 -4 -4 16
1 34 3 9 9 -1 7 -13z m984 5 c0 -5 -2 -10 -4 -10 -3 0 -8 5 -11 10 -3 6 -1 10
4 10 6 0 11 -4 11 -10z m-920 -4 c0 -2 -8 -10 -17 -17 -16 -13 -17 -12 -4 4
13 16 21 21 21 13z m147 -14 c-10 -10 -14 -22 -10 -27 5 -4 2 -5 -5 -1 -11 6
-10 12 4 27 9 10 19 19 22 19 3 0 -2 -8 -11 -18z m-126 -5 c-6 -8 -7 -18 -3
-22 4 -5 1 -5 -6 -1 -10 6 -10 11 -1 22 6 8 14 14 16 14 3 0 0 -6 -6 -13z
m475 -2 c-3 -23 -12 -26 -13 -5 -1 11 2 20 7 20 4 0 7 -7 6 -15z m-3456 -10
c0 -7 -30 -13 -34 -7 -3 4 4 9 15 9 10 1 19 0 19 -2z m3555 -4 c-9 -8 -36 -10
-30 -2 2 4 11 8 20 8 8 0 13 -3 10 -6z m115 3 c0 -8 -19 -13 -24 -6 -3 5 1 9
9 9 8 0 15 -2 15 -3z m26 -9 c-1 -8 -5 -17 -8 -21 -5 -4 -4 16 1 34 3 9 9 -1
7 -13z m-1001 -15 c3 -5 1 -10 -4 -10 -6 0 -11 5 -11 10 0 6 2 10 4 10 3 0 8
-4 11 -10z m125 0 c0 -5 -2 -10 -4 -10 -3 0 -8 5 -11 10 -3 6 -1 10 4 10 6 0
11 -4 11 -10z m320 0 c0 -5 -5 -10 -11 -10 -5 0 -7 5 -4 10 3 6 8 10 11 10 2
0 4 -4 4 -10z m276 -16 c1 -9 0 -13 -4 -10 -3 4 -7 14 -8 22 -1 9 0 13 4 10 3
-4 7 -14 8 -22z m99 17 c3 -5 2 -12 -3 -15 -5 -3 -9 1 -9 9 0 17 3 19 12 6z
m-3501 -19 c2 -4 -5 -9 -17 -9 -17 -2 -19 0 -7 7 18 12 18 12 24 2z m2770 0
c3 -5 -1 -9 -9 -9 -8 0 -12 4 -9 9 3 4 7 8 9 8 2 0 6 -4 9 -8z m216 -2 c0 -5
-2 -10 -4 -10 -3 0 -8 5 -11 10 -3 6 -1 10 4 10 6 0 11 -4 11 -10z m216 -2 c4
-7 3 -10 -1 -5 -5 4 -18 -1 -29 -10 -21 -18 -21 -18 -2 5 22 26 23 26 32 10z
m144 -23 c0 -5 -5 -3 -10 5 -5 8 -10 20 -10 25 0 6 5 3 10 -5 5 -8 10 -19 10
-25z m-3166 7 c3 -5 -1 -9 -9 -9 -8 0 -12 4 -9 9 3 4 7 8 9 8 2 0 6 -4 9 -8z
m2582 -24 c3 -4 -1 -5 -10 -4 -8 1 -18 5 -22 8 -3 4 1 5 10 4 8 -1 18 -5 22
-8z m157 -13 c-7 -21 -12 -19 -10 4 0 11 5 18 9 15 4 -3 5 -11 1 -19z m142 16
c-9 -8 -36 -10 -30 -2 2 4 11 8 20 8 8 0 13 -3 10 -6z m180 0 c-9 -8 -36 -10
-30 -2 2 4 11 8 20 8 8 0 13 -3 10 -6z m55 3 c0 -8 -19 -13 -24 -6 -3 5 1 9 9
9 8 0 15 -2 15 -3z m107 -9 c0 -8 -4 -12 -9 -9 -5 3 -6 10 -3 15 9 13 12 11
12 -6z m239 0 c-1 -8 -5 -17 -8 -21 -5 -4 -4 16 1 34 3 9 9 -1 7 -13z m-3432
-33 c3 -5 -1 -9 -9 -9 -8 0 -12 4 -9 9 3 4 7 8 9 8 2 0 6 -4 9 -8z m2670 -4
c-3 -4 -11 -5 -19 -1 -21 7 -19 12 4 10 11 0 18 -5 15 -9z m802 -13 c1 -8 -2
-15 -6 -15 -5 0 -8 9 -7 20 1 21 10 18 13 -5z m99 16 c-9 -8 -36 -10 -30 -2 2
4 11 8 20 8 8 0 13 -3 10 -6z m61 -3 c3 -4 -1 -5 -10 -4 -8 1 -18 5 -22 8 -3
4 1 5 10 4 8 -1 18 -5 22 -8z m-751 -18 c3 -6 -1 -7 -9 -4 -18 7 -21 14 -7 14
6 0 13 -4 16 -10z m180 0 c3 -6 -1 -7 -9 -4 -18 7 -21 14 -7 14 6 0 13 -4 16
-10z m50 -8 c-3 -3 -11 0 -18 7 -9 10 -8 11 6 5 10 -3 15 -9 12 -12z m130 8
c3 -6 -1 -7 -9 -4 -18 7 -21 14 -7 14 6 0 13 -4 16 -10z m50 -8 c-3 -3 -11 0
-18 7 -9 10 -8 11 6 5 10 -3 15 -9 12 -12z m-658 -7 c0 -8 -4 -12 -9 -9 -5 3
-6 10 -3 15 9 13 12 11 12 -6z m-2542 -4 c-9 -8 -36 -10 -30 -2 2 4 11 8 20 8
8 0 13 -3 10 -6z m2395 3 c0 -8 -19 -13 -24 -6 -3 5 1 9 9 9 8 0 15 -2 15 -3z
m50 -4 c0 -5 -5 -10 -11 -10 -5 0 -7 5 -4 10 3 6 8 10 11 10 2 0 4 -4 4 -10z
m435 0 c3 -5 1 -10 -4 -10 -6 0 -11 5 -11 10 0 6 2 10 4 10 3 0 8 -4 11 -10z
m645 0 c0 -5 -5 -10 -11 -10 -5 0 -7 5 -4 10 3 6 8 10 11 10 2 0 4 -4 4 -10z
m-3487 -15 c-3 -9 -8 -14 -10 -11 -3 3 -2 9 2 15 9 16 15 13 8 -4z m-93 -5 c0
-5 -5 -10 -11 -10 -5 0 -7 5 -4 10 3 6 8 10 11 10 2 0 4 -4 4 -10z m2640 0 c0
-5 -5 -10 -11 -10 -5 0 -7 5 -4 10 3 6 8 10 11 10 2 0 4 -4 4 -10z m236 -16
c1 -9 0 -13 -4 -10 -3 4 -7 14 -8 22 -1 9 0 13 4 10 3 -4 7 -14 8 -22z m760
11 c-1 -8 -5 -17 -8 -21 -5 -4 -4 16 1 34 3 9 9 -1 7 -13z m-521 -4 c3 -5 2
-12 -3 -15 -5 -3 -9 1 -9 9 0 17 3 19 12 6z m282 -6 c0 -8 -4 -12 -9 -9 -5 3
-6 10 -3 15 9 13 12 11 12 -6z m-560 -10 c0 -8 -4 -12 -9 -9 -5 3 -6 10 -3 15
9 13 12 11 12 -6z m399 3 c3 -4 -1 -5 -10 -4 -8 1 -18 5 -22 8 -3 4 1 5 10 4
8 -1 18 -5 22 -8z m48 4 c3 -5 -1 -9 -9 -9 -8 0 -12 4 -9 9 3 4 7 8 9 8 2 0 6
-4 9 -8z m-864 -18 c0 -8 -19 -13 -24 -6 -3 5 1 9 9 9 8 0 15 -2 15 -3z m297
-19 c0 -8 -4 -12 -9 -9 -5 3 -6 10 -3 15 9 13 12 11 12 -6z m478 6 c3 -5 2
-12 -3 -15 -5 -3 -9 1 -9 9 0 17 3 19 12 6z m-759 -27 c1 -9 0 -13 -4 -10 -3
4 -7 14 -8 22 -1 9 0 13 4 10 3 -4 7 -14 8 -22z m118 18 c3 -5 -1 -9 -9 -9 -8
0 -12 4 -9 9 3 4 7 8 9 8 2 0 6 -4 9 -8z m261 -2 c3 -5 1 -10 -4 -10 -6 0 -11
5 -11 10 0 6 2 10 4 10 3 0 8 -4 11 -10z m225 4 c0 -8 -19 -13 -24 -6 -3 5 1
9 9 9 8 0 15 -2 15 -3z m450 0 c0 -8 -19 -13 -24 -6 -3 5 1 9 9 9 8 0 15 -2
15 -3z m-897 -29 c4 -8 3 -16 -1 -19 -4 -3 -9 4 -9 15 -2 23 3 25 10 4z m403
-11 c1 -9 0 -13 -4 -10 -3 4 -7 14 -8 22 -1 9 0 13 4 10 3 -4 7 -14 8 -22z
m520 11 c-1 -8 -5 -17 -8 -21 -5 -4 -4 16 1 34 3 9 9 -1 7 -13z m-762 -17 c-3
-4 -11 -5 -19 -1 -21 7 -19 12 4 10 11 0 18 -5 15 -9z m650 4 c3 -5 -1 -9 -9
-9 -8 0 -12 4 -9 9 3 4 7 8 9 8 2 0 6 -4 9 -8z m192 -4 c4 -7 4 -10 -1 -6 -4
4 -15 2 -24 -5 -14 -11 -14 -10 -2 6 16 20 18 21 27 5z m-683 -23 c4 -8 3 -16
-1 -19 -4 -3 -9 4 -9 15 -2 23 3 25 10 4z m-438 -14 c3 -5 2 -12 -3 -15 -5 -3
-9 1 -9 9 0 17 3 19 12 6z m122 -6 c0 -8 -4 -12 -9 -9 -5 3 -6 10 -3 15 9 13
12 11 12 -6z m63 5 c0 -5 -5 -10 -11 -10 -5 0 -7 5 -4 10 3 6 8 10 11 10 2 0
4 -4 4 -10z m174 2 c2 -4 -5 -9 -17 -9 -17 -2 -19 0 -7 7 18 12 18 12 24 2z
m122 -7 c-1 -8 -5 -17 -8 -21 -5 -4 -4 16 1 34 3 9 9 -1 7 -13z m597 -10 c-7
-21 -12 -19 -10 4 0 11 5 18 9 15 4 -3 5 -11 1 -19z m82 16 c-9 -8 -36 -10
-30 -2 2 4 11 8 20 8 8 0 13 -3 10 -6z m-239 -37 c1 -9 0 -13 -4 -10 -3 4 -7
14 -8 22 -1 9 0 13 4 10 3 -4 7 -14 8 -22z m-281 7 c3 -5 2 -12 -3 -15 -5 -3
-9 1 -9 9 0 17 3 19 12 6z m-2905 -11 c8 -5 11 -10 5 -10 -5 0 -17 5 -25 10
-8 5 -10 10 -5 10 6 0 17 -5 25 -10z m206 -2 c3 -4 -1 -5 -10 -4 -8 1 -18 5
-22 8 -3 4 1 5 10 4 8 -1 18 -5 22 -8z m144 6 c0 -8 -19 -13 -24 -6 -3 5 1 9
9 9 8 0 15 -2 15 -3z m237 -9 c0 -8 -4 -12 -9 -9 -5 3 -6 10 -3 15 9 13 12 11
12 -6z m1839 0 c-1 -8 -5 -17 -8 -21 -5 -4 -4 16 1 34 3 9 9 -1 7 -13z m161
-7 c2 -17 0 -19 -7 -8 -5 8 -6 18 -4 22 8 12 10 10 11 -14z m103 17 c0 -7 -30
-13 -34 -7 -3 4 4 9 15 9 10 1 19 0 19 -2z m334 -3 c3 -5 -1 -9 -9 -9 -8 0
-12 4 -9 9 3 4 7 8 9 8 2 0 6 -4 9 -8z m286 2 c0 -8 -19 -13 -24 -6 -3 5 1 9
9 9 8 0 15 -2 15 -3z m-2749 -31 c13 -16 12 -17 -3 -4 -17 13 -22 21 -14 21 2
0 10 -8 17 -17z m1824 7 c3 -5 1 -10 -4 -10 -6 0 -11 5 -11 10 0 6 2 10 4 10
3 0 8 -4 11 -10z m119 -18 c3 -5 -1 -9 -9 -9 -8 0 -12 4 -9 9 3 4 7 8 9 8 2 0
6 -4 9 -8z m-2234 -22 c0 -5 -2 -10 -4 -10 -3 0 -8 5 -11 10 -3 6 -1 10 4 10
6 0 11 -4 11 -10z m240 0 c0 -5 -2 -10 -4 -10 -3 0 -8 5 -11 10 -3 6 -1 10 4
10 6 0 11 -4 11 -10z m2035 0 c3 -5 1 -10 -4 -10 -6 0 -11 5 -11 10 0 6 2 10
4 10 3 0 8 -4 11 -10z m-2318 -25 c0 -8 -4 -12 -9 -9 -5 3 -6 10 -3 15 9 13
12 11 12 -6z m339 3 c3 -4 -1 -5 -10 -4 -8 1 -18 5 -22 8 -3 4 1 5 10 4 8 -1
18 -5 22 -8z m2279 3 c-9 -8 -36 -10 -30 -2 2 4 11 8 20 8 8 0 13 -3 10 -6z
m61 -3 c3 -4 -1 -5 -10 -4 -8 1 -18 5 -22 8 -3 4 1 5 10 4 8 -1 18 -5 22 -8z
m180 0 c3 -4 -1 -5 -10 -4 -8 1 -18 5 -22 8 -3 4 1 5 10 4 8 -1 18 -5 22 -8z
m108 4 c3 -5 -1 -9 -9 -9 -8 0 -12 4 -9 9 3 4 7 8 9 8 2 0 6 -4 9 -8z m56 -2
c0 -5 -2 -10 -4 -10 -3 0 -8 5 -11 10 -3 6 -1 10 4 10 6 0 11 -4 11 -10z m130
-16 c0 -8 -19 -13 -24 -6 -3 5 1 9 9 9 8 0 15 -2 15 -3z m-3135 -24 c3 -5 1
-10 -4 -10 -6 0 -11 5 -11 10 0 6 2 10 4 10 3 0 8 -4 11 -10z m65 4 c0 -8 -19
-13 -24 -6 -3 5 1 9 9 9 8 0 15 -2 15 -3z m116 -6 c3 -4 -1 -5 -10 -4 -8 1
-18 5 -22 8 -3 4 1 5 10 4 8 -1 18 -5 22 -8z m179 2 c3 -5 1 -10 -4 -10 -6 0
-11 5 -11 10 0 6 2 10 4 10 3 0 8 -4 11 -10z m65 4 c0 -8 -19 -13 -24 -6 -3 5
1 9 9 9 8 0 15 -2 15 -3z m116 -6 c3 -4 -1 -5 -10 -4 -8 1 -18 5 -22 8 -3 4 1
5 10 4 8 -1 18 -5 22 -8z m2124 6 c0 -8 -19 -13 -24 -6 -3 5 1 9 9 9 8 0 15
-2 15 -3z m116 -6 c3 -4 -1 -5 -10 -4 -8 1 -18 5 -22 8 -3 4 1 5 10 4 8 -1 18
-5 22 -8z m120 0 c3 -4 -1 -5 -10 -4 -8 1 -18 5 -22 8 -3 4 1 5 10 4 8 -1 18
-5 22 -8z m179 2 c3 -5 1 -10 -4 -10 -6 0 -11 5 -11 10 0 6 2 10 4 10 3 0 8
-4 11 -10z m101 -5 c-1 -8 -5 -17 -8 -21 -5 -4 -4 16 1 34 3 9 9 -1 7 -13z
m-2961 -15 c3 -5 1 -10 -4 -10 -6 0 -11 5 -11 10 0 6 2 10 4 10 3 0 8 -4 11
-10z m2720 0 c3 -5 1 -10 -4 -10 -6 0 -11 5 -11 10 0 6 2 10 4 10 3 0 8 -4 11
-10z m-2335 -14 c0 -3 -4 -8 -10 -11 -5 -3 -10 -1 -10 4 0 6 5 11 10 11 6 0
10 -2 10 -4z m-523 -21 c0 -8 -4 -15 -9 -15 -10 0 -11 14 -1 23 9 10 10 9 10
-8z m58 -14 c3 -5 2 -12 -3 -15 -5 -3 -9 1 -9 9 0 17 3 19 12 6z m482 -6 c0
-8 -4 -12 -9 -9 -5 3 -6 10 -3 15 9 13 12 11 12 -6z m2238 6 c3 -5 2 -12 -3
-15 -5 -3 -9 1 -9 9 0 17 3 19 12 6z m-2551 -9 c3 -5 -1 -9 -9 -9 -8 0 -12 4
-9 9 3 4 7 8 9 8 2 0 6 -4 9 -8z m112 -18 c1 -9 0 -13 -4 -10 -3 4 -7 14 -8
22 -1 9 0 13 4 10 3 -4 7 -14 8 -22z m240 11 c-1 -8 -5 -17 -8 -21 -5 -4 -4
16 1 34 3 9 9 -1 7 -13z m2000 -11 c1 -9 0 -13 -4 -10 -3 4 -7 14 -8 22 -1 9
0 13 4 10 3 -4 7 -14 8 -22z m368 18 c3 -5 -1 -9 -9 -9 -8 0 -12 4 -9 9 3 4 7
8 9 8 2 0 6 -4 9 -8z m-2767 -31 c0 -11 -5 -18 -9 -15 -4 3 -5 11 -1 19 7 21
12 19 10 -4z m2720 0 c0 -11 -5 -18 -9 -15 -4 3 -5 11 -1 19 7 21 12 19 10 -4z
m-2977 -5 c0 -3 -4 -8 -10 -11 -5 -3 -10 -1 -10 4 0 6 5 11 10 11 6 0 10 -2
10 -4z m54 -4 c3 -5 -1 -9 -9 -9 -8 0 -12 4 -9 9 3 4 7 8 9 8 2 0 6 -4 9 -8z
m66 4 c0 -3 -4 -8 -10 -11 -5 -3 -10 -1 -10 4 0 6 5 11 10 11 6 0 10 -2 10 -4z
m590 -2 c0 -8 -19 -13 -24 -6 -3 5 1 9 9 9 8 0 15 -2 15 -3z m2130 2 c0 -3 -4
-8 -10 -11 -5 -3 -10 -1 -10 4 0 6 5 11 10 11 6 0 10 -2 10 -4z m334 -4 c3 -5
-1 -9 -9 -9 -8 0 -12 4 -9 9 3 4 7 8 9 8 2 0 6 -4 9 -8z m-3139 -41 c-9 -8
-36 -10 -30 -2 2 4 11 8 20 8 8 0 13 -3 10 -6z m165 -6 c0 -2 -9 -3 -19 -2
-11 0 -18 5 -15 9 4 6 34 0 34 -7z m96 0 c-1 -8 -5 -17 -8 -21 -5 -4 -4 16 1
34 3 9 9 -1 7 -13z m124 9 c0 -8 -19 -13 -24 -6 -3 5 1 9 9 9 8 0 15 -2 15 -3z
m2240 0 c0 -8 -19 -13 -24 -6 -3 5 1 9 9 9 8 0 15 -2 15 -3z m234 -2 c2 -4 -5
-9 -17 -9 -17 -2 -19 0 -7 7 18 12 18 12 24 2z m202 -7 c-1 -8 -5 -17 -8 -21
-5 -4 -4 16 1 34 3 9 9 -1 7 -13z m-163 -20 c4 -8 3 -16 -1 -19 -4 -3 -9 4 -9
15 -2 23 3 25 10 4z m-2997 -31 c1 -9 0 -13 -4 -10 -3 4 -7 14 -8 22 -1 9 0
13 4 10 3 -4 7 -14 8 -22z m159 17 c3 -5 2 -12 -3 -15 -5 -3 -9 1 -9 9 0 17 3
19 12 6z m118 -16 c-7 -21 -12 -19 -10 4 0 11 5 18 9 15 4 -3 5 -11 1 -19z
m121 17 c3 -5 -1 -9 -9 -9 -8 0 -12 4 -9 9 3 4 7 8 9 8 2 0 6 -4 9 -8z m283
-7 c0 -8 -4 -12 -9 -9 -5 3 -6 10 -3 15 9 13 12 11 12 -6z m-557 -9 c0 -3 -4
-8 -10 -11 -5 -3 -10 -1 -10 4 0 6 5 11 10 11 6 0 10 -2 10 -4z m796 -11 c-1
-8 -5 -17 -8 -21 -5 -4 -4 16 1 34 3 9 9 -1 7 -13z m44 5 c0 -5 -5 -10 -11
-10 -5 0 -7 5 -4 10 3 6 8 10 11 10 2 0 4 -4 4 -10z m2080 0 c0 -5 -5 -10 -11
-10 -5 0 -7 5 -4 10 3 6 8 10 11 10 2 0 4 -4 4 -10z m116 -16 c1 -9 0 -13 -4
-10 -3 4 -7 14 -8 22 -1 9 0 13 4 10 3 -4 7 -14 8 -22z m-2681 -3 c3 -5 2 -12
-3 -15 -5 -3 -9 1 -9 9 0 17 3 19 12 6z m125 3 c0 -8 -19 -13 -24 -6 -3 5 1 9
9 9 8 0 15 -2 15 -3z m56 -6 c3 -4 -1 -5 -10 -4 -8 1 -18 5 -22 8 -3 4 1 5 10
4 8 -1 18 -5 22 -8z m180 0 c3 -4 -1 -5 -10 -4 -8 1 -18 5 -22 8 -3 4 1 5 10
4 8 -1 18 -5 22 -8z m1879 3 c3 -5 2 -12 -3 -15 -5 -3 -9 1 -9 9 0 17 3 19 12
6z m125 3 c0 -8 -19 -13 -24 -6 -3 5 1 9 9 9 8 0 15 -2 15 -3z m-2844 -29 c-1
-8 -5 -17 -8 -21 -5 -4 -4 16 1 34 3 9 9 -1 7 -13z m164 5 c0 -5 -5 -10 -11
-10 -5 0 -7 5 -4 10 3 6 8 10 11 10 2 0 4 -4 4 -10z m736 -22 c3 -4 -1 -5 -10
-4 -8 1 -18 5 -22 8 -3 4 1 5 10 4 8 -1 18 -5 22 -8z m2004 8 c0 -3 -4 -8 -10
-11 -5 -3 -10 -1 -10 4 0 6 5 11 10 11 6 0 10 -2 10 -4z m54 -4 c3 -5 -1 -9
-9 -9 -8 0 -12 4 -9 9 3 4 7 8 9 8 2 0 6 -4 9 -8z m121 -1 c-9 -8 -36 -10 -30
-2 2 4 11 8 20 8 8 0 13 -3 10 -6z m-3010 -20 c-9 -8 -36 -10 -30 -2 2 4 11 8
20 8 8 0 13 -3 10 -6z m160 0 c-9 -8 -36 -10 -30 -2 2 4 11 8 20 8 8 0 13 -3
10 -6z m291 -6 c-1 -8 -5 -17 -8 -21 -5 -4 -4 16 1 34 3 9 9 -1 7 -13z m104
11 c0 -2 -7 -7 -16 -10 -8 -3 -12 -2 -9 4 6 10 25 14 25 6z m255 -15 c3 -5 2
-12 -3 -15 -5 -3 -9 1 -9 9 0 17 3 19 12 6z m225 -16 c0 -2 -9 -3 -19 -2 -11
0 -18 5 -15 9 4 6 34 0 34 -7z m1755 -4 c3 -5 2 -12 -3 -15 -5 -3 -9 1 -9 9 0
17 3 19 12 6z m-2735 -5 c0 -3 -4 -8 -10 -11 -5 -3 -10 -1 -10 4 0 6 5 11 10
11 6 0 10 -2 10 -4z m160 0 c0 -3 -4 -8 -10 -11 -5 -3 -10 -1 -10 4 0 6 5 11
10 11 6 0 10 -2 10 -4z m556 -22 c1 -9 0 -13 -4 -10 -3 4 -7 14 -8 22 -1 9 0
13 4 10 3 -4 7 -14 8 -22z m201 7 c0 -11 -5 -18 -9 -15 -4 3 -5 11 -1 19 7 21
12 19 10 -4z m1719 4 c-1 -8 -5 -17 -8 -21 -5 -4 -4 16 1 34 3 9 9 -1 7 -13z
m199 -4 c3 -5 2 -12 -3 -15 -5 -3 -9 1 -9 9 0 17 3 19 12 6z m-2560 -10 c3 -5
2 -12 -3 -15 -5 -3 -9 1 -9 9 0 17 3 19 12 6z m105 4 c0 -7 -30 -13 -34 -7 -3
4 4 9 15 9 10 1 19 0 19 -2z m160 -5 c0 -5 -2 -10 -4 -10 -3 0 -8 5 -11 10 -3
6 -1 10 4 10 6 0 11 -4 11 -10z m556 -2 c3 -4 -1 -5 -10 -4 -8 1 -18 5 -22 8
-3 4 1 5 10 4 8 -1 18 -5 22 -8z m1579 3 c3 -5 2 -12 -3 -15 -5 -3 -9 1 -9 9
0 17 3 19 12 6z m281 -3 c3 -4 -1 -5 -10 -4 -8 1 -18 5 -22 8 -3 4 1 5 10 4 8
-1 18 -5 22 -8z m-2919 -27 c0 -11 -5 -18 -9 -15 -4 3 -5 11 -1 19 7 21 12 19
10 -4z m476 -4 c4 3 7 4 7 0 0 -17 -20 -14 -36 6 -19 22 -19 22 2 4 11 -9 24
-14 27 -10z m2382 13 c3 -5 1 -10 -4 -10 -6 0 -11 5 -11 10 0 6 2 10 4 10 3 0
8 -4 11 -10z m-2898 -15 c0 -8 -4 -12 -9 -9 -5 3 -6 10 -3 15 9 13 12 11 12
-6z m160 0 c0 -8 -4 -12 -9 -9 -5 3 -6 10 -3 15 9 13 12 11 12 -6z m-237 -1
c0 -8 -19 -13 -24 -6 -3 5 1 9 9 9 8 0 15 -2 15 -3z m395 -3 c-9 -8 -36 -10
-30 -2 2 4 11 8 20 8 8 0 13 -3 10 -6z m481 -3 c3 -4 -1 -5 -10 -4 -8 1 -18 5
-22 8 -3 4 1 5 10 4 8 -1 18 -5 22 -8z m59 2 c3 -5 1 -10 -4 -10 -6 0 -11 5
-11 10 0 6 2 10 4 10 3 0 8 -4 11 -10z m225 4 c0 -8 -19 -13 -24 -6 -3 5 1 9
9 9 8 0 15 -2 15 -3z m1620 -4 c0 -5 -5 -10 -11 -10 -5 0 -7 5 -4 10 3 6 8 10
11 10 2 0 4 -4 4 -10z m136 -16 c1 -9 0 -13 -4 -10 -3 4 -7 14 -8 22 -1 9 0
13 4 10 3 -4 7 -14 8 -22z m-2396 -4 c0 -5 -2 -10 -4 -10 -3 0 -8 5 -11 10 -3
6 -1 10 4 10 6 0 11 -4 11 -10z m156 -16 c1 -9 0 -13 -4 -10 -3 4 -7 14 -8 22
-1 9 0 13 4 10 3 -4 7 -14 8 -22z m439 16 c3 -5 1 -10 -4 -10 -6 0 -11 5 -11
10 0 6 2 10 4 10 3 0 8 -4 11 -10z m125 0 c0 -5 -2 -10 -4 -10 -3 0 -8 5 -11
10 -3 6 -1 10 4 10 6 0 11 -4 11 -10z m-1086 -22 c-3 -4 -11 -5 -19 -1 -21 7
-19 12 4 10 11 0 18 -5 15 -9z m426 7 c0 -7 -30 -13 -34 -7 -3 4 4 9 15 9 10
1 19 0 19 -2z m375 -4 c3 -5 2 -12 -3 -15 -5 -3 -9 1 -9 9 0 17 3 19 12 6z
m1922 2 c-4 -3 -1 -13 6 -22 11 -14 10 -14 -5 -2 -16 12 -16 31 -1 31 4 0 3
-3 0 -7z m-2597 -23 c0 -5 -5 -10 -11 -10 -5 0 -7 5 -4 10 3 6 8 10 11 10 2 0
4 -4 4 -10z m157 -9 c0 -11 -5 -18 -9 -15 -4 3 -5 11 -1 19 7 21 12 19 10 -4z
m399 4 c-3 -23 -12 -26 -13 -5 -1 11 2 20 7 20 4 0 7 -7 6 -15z m-656 -15 c0
-5 -5 -10 -11 -10 -5 0 -7 5 -4 10 3 6 8 10 11 10 2 0 4 -4 4 -10z m880 -5 c0
-2 -9 -3 -19 -2 -11 0 -18 5 -15 9 4 6 34 0 34 -7z m1614 7 c2 -4 -5 -9 -17
-9 -17 -2 -19 0 -7 7 18 12 18 12 24 2z m-2438 -27 c-1 -8 -5 -17 -8 -21 -5
-4 -4 16 1 34 3 9 9 -1 7 -13z m560 -11 c1 -9 0 -13 -4 -10 -3 4 -7 14 -8 22
-1 9 0 13 4 10 3 -4 7 -14 8 -22z m204 16 c0 -5 -5 -10 -11 -10 -5 0 -7 5 -4
10 3 6 8 10 11 10 2 0 4 -4 4 -10z m1713 -5 c4 -8 3 -16 -1 -19 -4 -3 -9 4 -9
15 -2 23 3 25 10 4z m-2398 -14 c-9 -8 -36 -10 -30 -2 2 4 11 8 20 8 8 0 13
-3 10 -6z m159 -3 c-3 -4 -11 -5 -19 -1 -21 7 -19 12 4 10 11 0 18 -5 15 -9z
m120 4 c2 -4 -5 -9 -17 -9 -17 -2 -19 0 -7 7 18 12 18 12 24 2z m146 -27 c0
-5 -5 -3 -10 5 -5 8 -10 20 -10 25 0 6 5 3 10 -5 5 -8 10 -19 10 -25z m336 23
c4 -7 3 -10 -1 -5 -5 4 -18 -1 -29 -10 -21 -18 -21 -18 -2 5 22 26 23 26 32
10z m1801 -3 c0 -8 -4 -12 -9 -9 -5 3 -6 10 -3 15 9 13 12 11 12 -6z m-2547
-31 c0 -8 -19 -13 -24 -6 -3 5 1 9 9 9 8 0 15 -2 15 -3z m250 -9 c0 -2 -9 -3
-19 -2 -11 0 -18 5 -15 9 4 6 34 0 34 -7z m55 6 c-9 -8 -36 -10 -30 -2 2 4 11
8 20 8 8 0 13 -3 10 -6z m55 3 c0 -8 -19 -13 -24 -6 -3 5 1 9 9 9 8 0 15 -2
15 -3z m107 -9 c0 -8 -4 -12 -9 -9 -5 3 -6 10 -3 15 9 13 12 11 12 -6z m143 0
c0 -2 -9 -3 -19 -2 -11 0 -18 5 -15 9 4 6 34 0 34 -7z m160 5 c0 -5 -5 -10
-11 -10 -5 0 -7 5 -4 10 3 6 8 10 11 10 2 0 4 -4 4 -10z m1515 0 c3 -5 1 -10
-4 -10 -6 0 -11 5 -11 10 0 6 2 10 4 10 3 0 8 -4 11 -10z m165 0 c0 -5 -5 -10
-11 -10 -5 0 -7 5 -4 10 3 6 8 10 11 10 2 0 4 -4 4 -10z m76 -2 c3 -4 -1 -5
-10 -4 -8 1 -18 5 -22 8 -3 4 1 5 10 4 8 -1 18 -5 22 -8z m-2496 -18 c0 -5 -5
-10 -11 -10 -5 0 -7 5 -4 10 3 6 8 10 11 10 2 0 4 -4 4 -10z m160 0 c0 -5 -5
-10 -11 -10 -5 0 -7 5 -4 10 3 6 8 10 11 10 2 0 4 -4 4 -10z m-326 -18 c3 -5
-1 -9 -9 -9 -8 0 -12 4 -9 9 3 4 7 8 9 8 2 0 6 -4 9 -8z m762 -28 c0 -13 -2
-22 -5 -19 -3 3 -6 17 -7 31 0 13 2 22 5 19 3 -3 6 -17 7 -31z m1679 27 c3 -5
2 -12 -3 -15 -5 -3 -9 1 -9 9 0 17 3 19 12 6z m122 -6 c0 -8 -4 -12 -9 -9 -5
3 -6 10 -3 15 9 13 12 11 12 -6z m-2342 -14 c3 -5 2 -12 -3 -15 -5 -3 -9 1 -9
9 0 17 3 19 12 6z m245 0 c0 -6 -4 -12 -8 -15 -5 -3 -9 1 -9 9 0 8 4 15 9 15
4 0 8 -4 8 -9z m177 -11 c-1 -21 -10 -18 -13 5 -1 8 2 15 6 15 5 0 8 -9 7 -20z
m-481 -15 c-1 -8 -5 -17 -8 -21 -5 -4 -4 16 1 34 3 9 9 -1 7 -13z m2380 3 c3
-4 -1 -5 -10 -4 -8 1 -18 5 -22 8 -3 4 1 5 10 4 8 -1 18 -5 22 -8z m64 6 c0
-8 -19 -13 -24 -6 -3 5 1 9 9 9 8 0 15 -2 15 -3z m-2320 -18 c0 -3 -4 -8 -10
-11 -5 -3 -10 -1 -10 4 0 6 5 11 10 11 6 0 10 -2 10 -4z m516 -11 c-1 -8 -5
-17 -8 -21 -5 -4 -4 16 1 34 3 9 9 -1 7 -13z m-583 -10 c-3 -9 -8 -14 -10 -11
-3 3 -2 9 2 15 9 16 15 13 8 -4z m101 -3 c3 -5 -1 -9 -9 -9 -8 0 -12 4 -9 9 3
4 7 8 9 8 2 0 6 -4 9 -8z m186 4 c0 -3 -4 -8 -10 -11 -5 -3 -10 -1 -10 4 0 6
5 11 10 11 6 0 10 -2 10 -4z m174 -8 c-3 -4 -11 -5 -19 -1 -21 7 -19 12 4 10
11 0 18 -5 15 -9z m1881 3 c3 -5 2 -12 -3 -15 -5 -3 -9 1 -9 9 0 17 3 19 12 6z
m-2005 -14 c0 -2 -9 -12 -19 -21 -14 -13 -21 -14 -27 -5 -4 7 -3 10 3 6 6 -4
16 0 23 8 12 14 20 19 20 12z m1726 -12 c-1 -8 -5 -17 -8 -21 -5 -4 -4 16 1
34 3 9 9 -1 7 -13z m44 5 c0 -5 -2 -10 -4 -10 -3 0 -8 5 -11 10 -3 6 -1 10 4
10 6 0 11 -4 11 -10z m120 6 c0 -3 -4 -8 -10 -11 -5 -3 -10 -1 -10 4 0 6 5 11
10 11 6 0 10 -2 10 -4z m-2105 -25 c-9 -8 -36 -10 -30 -2 2 4 11 8 20 8 8 0
13 -3 10 -6z m36 -14 c-10 -9 -11 -8 -5 6 3 10 9 15 12 12 3 -3 0 -11 -7 -18z
m465 8 c-1 -8 -5 -17 -8 -21 -5 -4 -4 16 1 34 3 9 9 -1 7 -13z m-400 -20 c-1
-8 -5 -17 -8 -21 -5 -4 -4 16 1 34 3 9 9 -1 7 -13z m164 11 c0 -3 -4 -8 -10
-11 -5 -3 -10 -1 -10 4 0 6 5 11 10 11 6 0 10 -2 10 -4z m1920 0 c0 -3 -4 -8
-10 -11 -5 -3 -10 -1 -10 4 0 6 5 11 10 11 6 0 10 -2 10 -4z m-205 -15 c3 -5
2 -12 -3 -15 -5 -3 -9 1 -9 9 0 17 3 19 12 6z m122 -6 c0 -8 -4 -12 -9 -9 -5
3 -6 10 -3 15 9 13 12 11 12 -6z m-2242 -4 c3 -5 2 -12 -3 -15 -5 -3 -9 1 -9
9 0 17 3 19 12 6z m359 -3 c-3 -4 -11 -5 -19 -1 -21 7 -19 12 4 10 11 0 18 -5
15 -9z m-194 -12 c0 -3 -4 -8 -10 -11 -5 -3 -10 -1 -10 4 0 6 5 11 10 11 6 0
10 -2 10 -4z m277 -21 c0 -8 -4 -12 -9 -9 -5 3 -6 10 -3 15 9 13 12 11 12 -6z
m1720 -10 c0 -8 -4 -12 -9 -9 -5 3 -6 10 -3 15 9 13 12 11 12 -6z m-1877 -15
c0 -5 -2 -10 -4 -10 -3 0 -8 5 -11 10 -3 6 -1 10 4 10 6 0 11 -4 11 -10z
m1756 -5 c-1 -8 -5 -17 -8 -21 -5 -4 -4 16 1 34 3 9 9 -1 7 -13z m-1696 1 c0
-2 -6 -9 -14 -15 -11 -9 -16 -9 -22 0 -4 7 -3 9 4 5 6 -3 13 -2 17 4 6 10 15
14 15 6z m-285 -15 c-9 -8 -36 -10 -30 -2 2 4 11 8 20 8 8 0 13 -3 10 -6z
m405 -1 c0 -5 -2 -10 -4 -10 -3 0 -8 5 -11 10 -3 6 -1 10 4 10 6 0 11 -4 11
-10z m-383 -35 c0 -8 -4 -12 -9 -9 -5 3 -6 10 -3 15 9 13 12 11 12 -6z m157
-3 c2 -4 -5 -9 -17 -9 -17 -2 -19 0 -7 7 18 12 18 12 24 2z m159 -17 c-7 -21
-12 -19 -10 4 0 11 5 18 9 15 4 -3 5 -11 1 -19z m-197 -30 c-1 -8 -5 -17 -8
-21 -5 -4 -4 16 1 34 3 9 9 -1 7 -13z m159 6 c-9 -8 -36 -10 -30 -2 2 4 11 8
20 8 8 0 13 -3 10 -6z m1740 0 c-9 -8 -36 -10 -30 -2 2 4 11 8 20 8 8 0 13 -3
10 -6z m61 -3 c3 -4 -1 -5 -10 -4 -8 1 -18 5 -22 8 -3 4 1 5 10 4 8 -1 18 -5
22 -8z m-2051 -18 c-3 -5 -12 -10 -18 -10 -7 0 -6 4 3 10 19 12 23 12 15 0z
m176 -3 c-6 -8 -7 -18 -3 -22 4 -5 1 -5 -6 -1 -10 6 -10 11 -1 22 6 8 14 14
16 14 3 0 0 -6 -6 -13z m139 -17 c0 -5 -5 -10 -11 -10 -5 0 -7 5 -4 10 3 6 8
10 11 10 2 0 4 -4 4 -10z m1635 0 c3 -5 1 -10 -4 -10 -6 0 -11 5 -11 10 0 6 2
10 4 10 3 0 8 -4 11 -10z m-1915 -34 c0 -3 -4 -8 -10 -11 -5 -3 -10 -1 -10 4
0 6 5 11 10 11 6 0 10 -2 10 -4z m174 -8 c-3 -4 -11 -5 -19 -1 -21 7 -19 12 4
10 11 0 18 -5 15 -9z m-59 -26 c-3 -3 -11 0 -18 7 -9 10 -8 11 6 5 10 -3 15
-9 12 -12z m-85 -8 c0 -8 -19 -13 -24 -6 -3 5 1 9 9 9 8 0 15 -2 15 -3z m26
-20 c1 -9 0 -13 -4 -10 -3 4 -7 14 -8 22 -1 9 0 13 4 10 3 -4 7 -14 8 -22z m0
-49 c-1 -8 -5 -17 -8 -21 -5 -4 -4 16 1 34 3 9 9 -1 7 -13z m104 -49 c0 -3 -4
-8 -10 -11 -5 -3 -10 -1 -10 4 0 6 5 11 10 11 6 0 10 -2 10 -4z m-46 -52 c3
-8 2 -12 -4 -9 -6 3 -10 10 -10 16 0 14 7 11 14 -7z m4 -59 c-3 -3 -9 2 -12
12 -6 14 -5 15 5 6 7 -7 10 -15 7 -18z"/>
<path d="M2867 4115 c-4 -8 -1 -17 6 -21 7 -4 9 -4 5 1 -4 4 -3 14 3 22 7 8 8
13 1 13 -5 0 -12 -7 -15 -15z"/>
<path d="M2869 4078 c-5 -14 -5 -57 0 -52 3 3 6 9 6 12 0 4 4 12 8 19 4 6 3
14 -3 18 -5 3 -10 5 -11 3z"/>
<path d="M3155 5620 c-3 -5 -30 -7 -60 -4 -35 3 -55 0 -55 -6 0 -6 6 -8 13 -4
9 5 9 3 -1 -7 -8 -9 -15 -10 -20 -4 -6 9 -26 12 -34 6 -2 -2 -14 -5 -28 -7
-14 -3 -26 -9 -28 -14 -2 -5 -9 -7 -17 -4 -7 3 -16 0 -21 -7 -4 -8 -3 -10 4
-5 7 4 12 2 12 -4 0 -6 4 -9 9 -5 5 3 12 1 15 -4 3 -5 -3 -11 -14 -14 -11 -3
-18 -1 -14 4 3 5 -2 9 -11 9 -10 0 -13 -5 -9 -12 4 -7 3 -8 -4 -4 -8 4 -16 -3
-22 -18 -5 -14 -12 -26 -15 -26 -4 0 -3 5 1 12 5 7 3 8 -7 2 -8 -4 -30 -9 -49
-11 -31 -2 -33 -1 -18 11 10 7 16 15 13 18 -3 2 2 5 10 5 8 0 12 -4 9 -9 -3
-4 0 -8 5 -8 6 0 11 5 11 11 0 6 6 9 14 6 21 -8 39 16 24 31 -15 15 -31 16
-23 1 4 -6 1 -9 -6 -7 -20 4 -80 -23 -73 -33 3 -5 0 -9 -6 -9 -6 0 -8 -11 -6
-25 3 -14 1 -23 -5 -20 -16 11 -10 -12 8 -26 9 -8 14 -9 10 -3 -3 6 0 11 7 11
8 0 12 -6 9 -14 -3 -7 -2 -13 2 -13 14 0 45 21 45 31 0 6 -5 7 -12 3 -6 -4 -8
-3 -5 2 3 6 22 11 42 12 35 3 115 36 115 48 0 3 -4 3 -9 -1 -5 -3 -13 -1 -16
5 -4 6 -3 10 2 9 25 -4 83 2 79 9 -2 4 0 14 6 22 8 12 9 12 4 -2 -7 -22 -5
-22 36 1 36 21 135 40 125 24 -3 -5 -25 -10 -48 -11 -30 -2 -48 -9 -64 -26
-13 -14 -22 -26 -20 -28 2 -2 -15 -4 -37 -6 -23 -1 -45 -5 -50 -8 -14 -9 -9
-24 10 -24 9 0 0 -8 -22 -18 -35 -16 -37 -19 -22 -31 17 -15 66 -24 66 -13 0
4 19 7 42 7 70 0 97 -49 63 -114 -12 -25 -12 -31 0 -47 22 -29 19 -47 -5 -34
-24 13 -40 5 -40 -19 0 -30 25 -45 44 -26 9 9 16 14 16 10 0 -4 7 0 15 9 19
19 41 12 41 -13 0 -13 -6 -17 -19 -13 -18 5 -49 -26 -41 -40 3 -5 -2 -8 -10
-8 -19 0 -31 -43 -20 -67 4 -10 7 -21 6 -25 -1 -4 7 -12 17 -18 11 -5 23 -24
26 -42 14 -64 54 -113 84 -105 12 3 21 2 21 -2 0 -4 11 -13 25 -19 44 -20 96
13 99 62 0 13 4 22 9 19 6 -4 11 12 8 30 0 4 4 6 11 5 7 -2 13 7 14 20 2 32
16 43 60 48 54 7 92 23 99 43 13 37 54 71 86 71 57 0 109 22 125 51 10 20 19
26 31 22 13 -5 15 -2 10 11 -4 10 -3 15 3 11 13 -8 13 1 0 26 -6 10 -17 19
-25 19 -8 0 -15 4 -15 9 0 5 -9 11 -20 14 -11 3 -20 12 -20 21 0 14 3 14 20 4
15 -10 22 -10 32 0 9 9 9 12 -4 12 -11 0 -15 6 -11 20 3 11 9 20 14 20 17 0 9
29 -11 40 -11 6 -18 15 -15 20 3 5 -4 14 -16 20 -13 7 -19 8 -15 2 3 -6 3 -13
-2 -16 -9 -5 -12 10 -12 53 0 13 -5 30 -11 37 -8 9 -5 15 11 24 30 16 17 26
-29 22 -23 -2 -39 -8 -36 -12 3 -5 -4 -6 -14 -3 -22 6 -36 32 -18 34 7 1 -1 5
-18 8 -50 12 -223 5 -240 -9 -9 -7 -38 -13 -65 -13 -28 1 -48 -3 -45 -7 3 -5
1 -12 -5 -15 -6 -4 -9 -1 -8 6 2 6 -3 14 -11 17 -9 3 -11 0 -6 -8 6 -9 2 -9
-16 0 -33 17 -38 24 -13 16 13 -4 21 -2 21 6 0 15 -64 22 -72 8z m-180 -60 c3
-6 -1 -7 -9 -4 -18 7 -21 14 -7 14 6 0 13 -4 16 -10z m415 6 c0 -3 -4 -8 -10
-11 -5 -3 -10 -1 -10 4 0 6 5 11 10 11 6 0 10 -2 10 -4z m36 -11 c-1 -8 -5
-17 -8 -21 -5 -4 -4 16 1 34 3 9 9 -1 7 -13z m-232 -13 c3 -5 -1 -9 -9 -9 -8
0 -12 4 -9 9 3 4 7 8 9 8 2 0 6 -4 9 -8z m91 -2 c3 -5 1 -10 -4 -10 -6 0 -11
5 -11 10 0 6 2 10 4 10 3 0 8 -4 11 -10z m65 4 c0 -8 -19 -13 -24 -6 -3 5 1 9
9 9 8 0 15 -2 15 -3z m194 -2 c3 -5 -1 -9 -9 -9 -8 0 -12 4 -9 9 3 4 7 8 9 8
2 0 6 -4 9 -8z m-394 -22 c0 -5 -5 -10 -11 -10 -5 0 -7 5 -4 10 3 6 8 10 11
10 2 0 4 -4 4 -10z m433 -5 c4 -8 3 -16 -1 -19 -4 -3 -9 4 -9 15 -2 23 3 25
10 4z m-173 -10 c0 -7 -30 -13 -34 -7 -3 4 4 9 15 9 10 1 19 0 19 -2z m-303
-40 c0 -8 -4 -12 -9 -9 -5 3 -6 10 -3 15 9 13 12 11 12 -6z m76 -20 c-7 -21
-12 -19 -10 4 0 11 5 18 9 15 4 -3 5 -11 1 -19z m467 15 c0 -5 -5 -10 -11 -10
-5 0 -7 5 -4 10 3 6 8 10 11 10 2 0 4 -4 4 -10z m-180 -20 c0 -5 -2 -10 -4
-10 -3 0 -8 5 -11 10 -3 6 -1 10 4 10 6 0 11 -4 11 -10z m-320 -16 c0 -8 -19
-13 -24 -6 -3 5 1 9 9 9 8 0 15 -2 15 -3z m140 2 c0 -3 -4 -8 -10 -11 -5 -3
-10 -1 -10 4 0 6 5 11 10 11 6 0 10 -2 10 -4z m54 -4 c3 -5 -1 -9 -9 -9 -8 0
-12 4 -9 9 3 4 7 8 9 8 2 0 6 -4 9 -8z m176 2 c0 -8 -19 -13 -24 -6 -3 5 1 9
9 9 8 0 15 -2 15 -3z m107 -9 c0 -8 -4 -12 -9 -9 -5 3 -6 10 -3 15 9 13 12 11
12 -6z m103 10 c0 -7 -30 -13 -34 -7 -3 4 4 9 15 9 10 1 19 0 19 -2z m-25 -34
c3 -5 2 -12 -3 -15 -5 -3 -9 1 -9 9 0 17 3 19 12 6z m-259 -13 c3 -4 -1 -5
-10 -4 -8 1 -18 5 -22 8 -3 4 1 5 10 4 8 -1 18 -5 22 -8z m59 3 c-9 -8 -36
-10 -30 -2 2 4 11 8 20 8 8 0 13 -3 10 -6z m161 -37 c1 -9 0 -13 -4 -10 -3 4
-7 14 -8 22 -1 9 0 13 4 10 3 -4 7 -14 8 -22z m-440 -20 c1 -9 0 -13 -4 -10
-3 4 -7 14 -8 22 -1 9 0 13 4 10 3 -4 7 -14 8 -22z m124 2 c0 -3 -4 -8 -10
-11 -5 -3 -10 -1 -10 4 0 6 5 11 10 11 6 0 10 -2 10 -4z m36 -31 c-1 -8 -5
-17 -8 -21 -5 -4 -4 16 1 34 3 9 9 -1 7 -13z m-160 -20 c-1 -8 -5 -17 -8 -21
-5 -4 -4 16 1 34 3 9 9 -1 7 -13z m521 -10 c0 -8 -4 -12 -9 -9 -5 3 -6 10 -3
15 9 13 12 11 12 -6z m-297 1 c0 -3 -4 -8 -10 -11 -5 -3 -10 -1 -10 4 0 6 5
11 10 11 6 0 10 -2 10 -4z m116 -8 c3 -4 -1 -5 -10 -4 -8 1 -18 5 -22 8 -3 4
1 5 10 4 8 -1 18 -5 22 -8z m124 -22 c0 -6 -5 -3 -11 7 -6 9 -15 14 -21 11 -7
-4 -8 -2 -4 5 9 14 36 -3 36 -23z m-395 5 c-9 -8 -36 -10 -30 -2 2 4 11 8 20
8 8 0 13 -3 10 -6z m145 -17 c0 -8 -19 -13 -24 -6 -3 5 1 9 9 9 8 0 15 -2 15
-3z m50 -4 c0 -5 -5 -10 -11 -10 -5 0 -7 5 -4 10 3 6 8 10 11 10 2 0 4 -4 4
-10z m-140 -14 c0 -3 -4 -8 -10 -11 -5 -3 -10 -1 -10 4 0 6 5 11 10 11 6 0 10
-2 10 -4z m315 -6 c3 -5 1 -10 -4 -10 -6 0 -11 5 -11 10 0 6 2 10 4 10 3 0 8
-4 11 -10z m85 6 c0 -3 -4 -8 -10 -11 -5 -3 -10 -1 -10 4 0 6 5 11 10 11 6 0
10 -2 10 -4z m-440 -22 c0 -8 -19 -13 -24 -6 -3 5 1 9 9 9 8 0 15 -2 15 -3z
m400 0 c0 -8 -19 -13 -24 -6 -3 5 1 9 9 9 8 0 15 -2 15 -3z m-484 -40 c1 -9 0
-13 -4 -10 -3 4 -7 14 -8 22 -1 9 0 13 4 10 3 -4 7 -14 8 -22z m359 7 c3 -5 2
-12 -3 -15 -5 -3 -9 1 -9 9 0 17 3 19 12 6z m-198 -23 c2 -17 0 -19 -7 -8 -5
8 -6 18 -4 22 8 12 10 10 11 -14z m-137 -28 c0 -5 -2 -10 -4 -10 -3 0 -8 5
-11 10 -3 6 -1 10 4 10 6 0 11 -4 11 -10z m200 5 c0 -7 -30 -13 -34 -7 -3 4 4
9 15 9 10 1 19 0 19 -2z m116 -7 c3 -4 -1 -5 -10 -4 -8 1 -18 5 -22 8 -3 4 1
5 10 4 8 -1 18 -5 22 -8z m-262 -36 c2 -4 -5 -9 -17 -9 -17 -2 -19 0 -7 7 18
12 18 12 24 2z m216 2 c0 -8 -19 -13 -24 -6 -3 5 1 9 9 9 8 0 15 -2 15 -3z
m-177 -29 c4 -8 3 -16 -1 -19 -4 -3 -9 4 -9 15 -2 23 3 25 10 4z m47 -35 c0
-5 -2 -10 -4 -10 -3 0 -8 5 -11 10 -3 6 -1 10 4 10 6 0 11 -4 11 -10z m-200
-16 c0 -8 -19 -13 -24 -6 -3 5 1 9 9 9 8 0 15 -2 15 -3z m60 -38 c0 -3 -4 -8
-10 -11 -5 -3 -10 -1 -10 4 0 6 5 11 10 11 6 0 10 -2 10 -4z m54 -4 c3 -5 -1
-9 -9 -9 -8 0 -12 4 -9 9 3 4 7 8 9 8 2 0 6 -4 9 -8z m-37 -37 c0 -8 -4 -12
-9 -9 -5 3 -6 10 -3 15 9 13 12 11 12 -6z"/>
<path d="M2870 5570 c0 -5 5 -10 10 -10 6 0 10 5 10 10 0 6 -4 10 -10 10 -5 0
-10 -4 -10 -10z"/>
<path d="M4052 5558 c-18 -18 -15 -41 4 -34 9 4 13 2 8 -5 -5 -8 4 -10 29 -7
20 2 33 0 31 -4 -3 -4 -1 -8 4 -8 5 0 21 -11 36 -25 38 -35 106 -31 91 6 -9
21 -79 72 -83 60 -2 -6 -8 -11 -13 -11 -6 0 -8 4 -5 9 7 10 -38 31 -67 31 -13
0 -28 -5 -35 -12z"/>
<path d="M2668 5509 c-21 -11 -38 -25 -37 -32 0 -9 2 -9 6 0 3 9 9 10 22 1 22
-13 55 -3 45 13 -4 7 -3 9 4 5 6 -3 13 -2 17 4 3 5 -1 10 -10 10 -9 0 -13 5
-10 10 8 13 7 13 -37 -11z m19 -14 c0 -8 -4 -12 -9 -9 -5 3 -6 10 -3 15 9 13
12 11 12 -6z"/>
<path d="M4271 5478 c1 -7 4 -23 7 -35 6 -18 10 -20 23 -10 12 9 14 18 8 35
-9 23 -40 31 -38 10z"/>
<path d="M2714 5463 c-3 -13 -11 -20 -16 -16 -6 3 -8 0 -6 -8 3 -8 14 -12 24
-11 26 5 26 6 15 33 l-10 24 -7 -22z"/>
<path d="M2615 5452 c-2 -3 0 -14 6 -25 7 -13 7 -17 1 -13 -6 3 -13 2 -17 -3
-3 -6 -12 -8 -19 -5 -8 3 -17 1 -21 -5 -9 -15 -22 -14 -22 3 0 8 6 12 15 8 10
-3 13 -1 8 6 -5 8 -1 10 11 5 15 -6 16 -4 5 9 -7 9 -18 15 -25 14 -21 -3 -38
-17 -32 -27 4 -5 1 -9 -4 -9 -20 0 -11 -15 15 -27 20 -9 26 -9 31 3 3 8 9 14
15 14 5 0 6 -5 2 -11 -3 -6 1 -10 12 -9 11 1 21 1 24 0 22 -8 46 -7 52 3 5 8
11 8 16 2 12 -17 52 -17 58 -1 3 9 10 13 15 10 5 -3 9 0 9 5 0 6 -6 11 -12 12
-7 0 -21 2 -30 4 -10 2 -21 -1 -24 -7 -3 -5 -14 4 -25 21 -16 26 -49 38 -64
23z m65 -43 c0 -4 -7 -6 -15 -3 -8 4 -15 10 -15 15 0 4 7 6 15 3 8 -4 15 -10
15 -15z"/>
<path d="M3827 5403 c-7 -36 0 -46 29 -40 13 2 21 0 18 -4 -3 -5 2 -9 10 -9 9
0 16 4 16 8 0 15 -36 42 -45 35 -4 -5 -5 -3 -2 3 4 7 1 17 -7 23 -11 9 -15 6
-19 -16z"/>
<path d="M2498 5356 c-10 -7 -15 -16 -11 -19 3 -4 -1 -7 -10 -7 -9 0 -17 -4
-17 -10 0 -13 33 -13 47 1 7 7 12 6 17 -6 3 -9 2 -14 -2 -11 -10 6 -42 -29
-42 -45 0 -5 -4 -7 -10 -4 -5 3 -10 2 -10 -4 0 -20 31 -29 129 -36 46 -3 56
-7 63 -25 7 -20 10 -21 26 -9 15 12 16 12 5 -2 -10 -12 -10 -18 -1 -27 7 -7 8
-12 4 -12 -5 0 -2 -8 5 -17 8 -9 9 -14 3 -10 -15 9 -74 -21 -82 -42 -8 -22
-32 -45 -32 -32 0 6 -14 11 -31 11 -25 0 -30 -3 -25 -16 5 -14 4 -15 -7 -5
-11 9 -17 8 -26 -3 -9 -11 -5 -15 20 -20 17 -3 39 -1 50 4 14 8 23 6 36 -7 10
-10 18 -24 19 -30 1 -7 2 -19 3 -27 0 -8 11 -14 24 -15 47 -2 67 -6 67 -13 0
-4 7 -8 15 -8 20 0 19 13 -5 40 -28 33 -25 35 14 10 l35 -21 20 20 c11 11 16
23 11 26 -5 3 -7 11 -4 19 3 7 -7 21 -21 32 -23 17 -37 42 -16 29 6 -3 14 2
19 12 9 15 13 12 33 -21 l23 -39 26 30 c14 16 31 28 37 26 6 -2 15 1 19 8 8
14 -24 42 -38 33 -5 -3 -7 0 -6 6 3 12 -13 24 -44 34 -10 3 -18 10 -18 16 0 6
4 9 9 5 6 -3 15 3 20 14 15 27 14 34 -4 28 -8 -4 -17 -1 -21 5 -4 7 -3 8 4 4
7 -4 12 -2 12 4 0 7 -9 14 -20 17 -11 3 -17 9 -14 14 3 5 0 10 -5 10 -6 1 -15
2 -19 3 -5 0 -16 9 -26 19 -10 9 -22 17 -28 17 -6 0 -8 3 -4 8 7 7 11 8 37 11
5 0 7 5 4 11 -10 16 -58 7 -63 -12 -2 -10 -13 -18 -24 -18 -18 0 -18 1 -3 16
9 9 14 19 11 21 -8 8 -80 -28 -89 -43 -11 -20 -28 -17 -20 3 5 12 3 14 -7 8
-9 -6 -11 -4 -5 5 6 10 4 12 -8 7 -10 -3 -17 -2 -17 3 0 5 10 12 22 16 19 6
20 7 4 16 -12 7 -22 5 -33 -4 -12 -9 -15 -9 -9 0 9 15 6 15 -16 -2z m142 -52
c0 -8 -19 -13 -24 -6 -3 5 1 9 9 9 8 0 15 -2 15 -3z m-79 -31 c13 -16 12 -17
-3 -4 -10 7 -18 15 -18 17 0 8 8 3 21 -13z m184 -2 c3 -5 2 -12 -3 -15 -5 -3
-9 1 -9 9 0 17 3 19 12 6z m-215 -6 c0 -7 -30 -13 -34 -7 -3 4 4 9 15 9 10 1
19 0 19 -2z m157 -290 c0 -8 -4 -12 -9 -9 -5 3 -6 10 -3 15 9 13 12 11 12 -6z"/>
<path d="M2600 5350 c0 -5 -3 -9 -7 -9 -24 4 -36 -2 -27 -11 8 -8 19 -7 37 1
29 13 36 29 12 29 -8 0 -15 -4 -15 -10z"/>
<path d="M2590 5185 c-11 -13 -10 -14 4 -9 9 3 16 10 16 15 0 13 -6 11 -20 -6z"/>
<path d="M2626 5164 c-4 -9 -9 -14 -13 -11 -9 9 -33 -12 -33 -29 0 -8 6 -14
14 -14 18 0 48 29 41 40 -3 5 0 10 7 12 8 3 9 6 1 11 -6 4 -14 0 -17 -9z"/>
<path d="M3864 5034 c0 -24 5 -44 10 -43 5 0 13 -5 17 -13 5 -7 9 -8 9 -2 0 7
11 9 25 6 21 -4 24 -1 18 14 -7 18 -6 18 11 2 21 -22 38 -22 75 -4 42 22 54
41 37 56 -9 6 -21 8 -27 4 -8 -5 -9 -3 -4 6 6 10 4 12 -11 6 -34 -13 -104 -18
-117 -9 -35 28 -44 23 -43 -23z"/>
<path d="M2332 5013 c-18 -19 -31 -37 -29 -40 3 -2 25 5 49 18 23 12 40 18 36
14 -9 -9 9 -35 23 -35 5 0 9 7 9 15 0 8 -4 15 -10 15 -5 0 -9 5 -7 11 1 6 -7
17 -18 24 -18 12 -23 10 -53 -22z"/>
<path d="M2340 4945 c-14 -8 -20 -14 -14 -15 5 0 19 7 30 15 24 18 16 19 -16
0z"/>
<path d="M2396 4925 c-10 -7 -16 -20 -13 -27 4 -10 6 -10 6 0 1 6 7 12 14 12
8 0 14 7 14 15 0 8 -1 15 -1 15 -1 0 -9 -7 -20 -15z"/>
<path d="M4346 4774 c-4 -9 -4 -19 -1 -22 2 -3 7 3 11 12 4 9 4 19 1 22 -2 3
-7 -3 -11 -12z"/>
<path d="M4392 4750 c-2 -30 25 -73 40 -64 7 5 12 -10 9 -28 0 -5 10 -8 22 -8
16 0 28 -9 35 -25 16 -35 15 -45 -5 -45 -13 0 -15 -2 -5 -8 7 -5 10 -16 6 -25
-4 -12 2 -20 20 -28 l26 -12 -27 -19 c-27 -17 -27 -18 -5 -18 12 0 22 4 22 8
0 4 25 7 55 5 46 -1 57 2 66 19 8 14 8 23 0 31 -11 11 -16 -1 -11 -33 1 -8 -1
-12 -6 -8 -4 4 -7 20 -8 35 -1 20 -6 28 -18 27 -10 -1 -22 10 -28 27 -12 27
-84 99 -100 99 -4 0 -6 16 -5 36 3 35 2 36 -27 32 -25 -4 -29 -2 -25 14 4 12
0 18 -12 18 -11 0 -17 -9 -19 -30z m175 -195 c0 -8 -4 -12 -9 -9 -5 3 -6 10
-3 15 9 13 12 11 12 -6z"/>
<path d="M4749 4740 c0 -8 -2 -23 -4 -32 -2 -10 5 -28 15 -40 l19 -23 -4 44
c-4 43 -24 82 -26 51z"/>
<path d="M4362 4653 c-6 -3 -10 -9 -6 -14 5 -8 -9 -13 -28 -10 -4 0 -6 -8 -5
-19 1 -11 5 -20 10 -20 4 0 7 -17 5 -37 -3 -32 0 -38 17 -39 57 -2 94 46 60
79 -13 13 -13 16 1 21 31 12 -21 49 -54 39z"/>
<path d="M2875 4620 c-3 -6 1 -7 9 -4 18 7 21 14 7 14 -6 0 -13 -4 -16 -10z"/>
<path d="M2913 4504 c-18 -9 -35 -24 -38 -33 -3 -9 -21 -34 -40 -54 -20 -21
-33 -42 -30 -47 3 -6 33 -9 66 -7 40 2 56 0 49 -7 -5 -5 -10 -14 -10 -18 0
-12 28 -10 32 3 2 7 16 4 38 -9 34 -21 56 -20 43 1 -4 7 -8 21 -8 32 -2 37
-17 75 -29 75 -7 0 -18 -6 -25 -12 -11 -11 -12 -10 -6 1 6 11 4 13 -11 7 -10
-4 -15 -4 -11 0 4 4 2 13 -4 20 -7 9 -6 20 6 38 20 30 20 30 -22 10z m-3 -44
c0 -5 -5 -10 -11 -10 -5 0 -7 5 -4 10 3 6 8 10 11 10 2 0 4 -4 4 -10z m-5 -29
c3 -5 2 -12 -3 -15 -5 -3 -9 1 -9 9 0 17 3 19 12 6z m95 -47 c0 -8 -19 -13
-24 -6 -3 5 1 9 9 9 8 0 15 -2 15 -3z"/>
<path d="M2933 4235 c0 -8 4 -12 9 -9 5 3 6 10 3 15 -9 13 -12 11 -12 -6z"/>
<path d="M3348 4213 c-2 -4 -4 -19 -4 -33 1 -28 20 -40 22 -13 1 10 3 24 5 32
4 15 -17 27 -23 14z"/>
<path d="M3302 4138 c-7 -7 -12 -17 -12 -22 0 -6 5 -3 11 7 5 9 15 17 22 17 7
0 6 -4 -3 -10 -13 -9 -13 -11 0 -20 8 -5 20 -9 25 -9 6 0 4 3 -2 6 -20 7 -15
23 5 16 14 -5 13 -3 -3 10 -24 20 -28 20 -43 5z"/>
<path d="M5120 4070 c4 -23 11 -44 15 -48 4 -4 4 8 0 27 -6 27 -4 32 6 26 8
-5 5 1 -5 13 -11 12 -20 22 -21 22 -1 0 1 -18 5 -40z"/>
<path d="M3304 4033 c-12 -28 -11 -37 4 -55 14 -17 42 -14 42 4 0 6 -6 6 -14
-1 -10 -8 -16 -9 -21 -1 -3 5 -2 10 3 10 11 0 20 30 15 48 -6 17 -20 15 -29
-5z m18 -10 c-6 -2 -10 -9 -7 -13 3 -5 1 -11 -4 -14 -7 -5 -8 11 -2 32 1 1 7
2 14 1 9 0 9 -2 -1 -6z"/>
<path d="M2864 3869 c-2 -4 0 -11 6 -14 7 -4 8 -11 2 -18 -11 -13 -10 -46 1
-64 4 -6 3 -14 -2 -17 -25 -16 18 -77 50 -69 10 3 19 9 19 14 0 5 -7 6 -16 2
-14 -5 -14 -2 2 23 11 15 14 25 7 21 -16 -10 -27 11 -14 27 7 9 5 16 -9 26
-22 16 -17 32 8 24 10 -4 13 -3 6 3 -6 4 -10 17 -9 29 1 15 -5 20 -22 20 -14
0 -26 -3 -29 -7z m40 -15 c3 -7 -2 -18 -10 -25 -13 -10 -12 -14 2 -30 9 -10
13 -23 9 -29 -4 -6 -1 -17 5 -25 9 -11 10 -19 1 -28 -6 -8 -7 -18 -3 -23 4 -5
-3 0 -16 10 -12 11 -20 22 -17 25 4 3 10 0 14 -8 7 -10 9 -9 14 3 4 9 3 15 -1
15 -4 -1 -14 -1 -22 0 -12 1 -13 3 -1 10 8 5 10 14 5 22 -12 20 -13 53 -1 61
7 4 7 11 -1 21 -9 11 -9 14 3 14 8 0 16 -6 19 -13z"/>
<path d="M3289 3807 c6 -8 7 -18 3 -22 -4 -5 -1 -5 6 -1 10 6 10 11 1 22 -6 8
-14 14 -16 14 -3 0 0 -6 6 -13z"/>
<path d="M3791 3648 c-73 -11 -131 -39 -184 -87 -149 -137 -111 -393 71 -485
54 -27 94 -35 172 -36 59 -1 79 2 97 13 6 4 19 4 29 0 12 -4 15 -3 10 5 -4 7
-1 13 6 13 27 3 34 4 54 16 12 7 25 9 29 5 5 -4 5 -1 1 6 -4 7 -13 9 -19 6 -7
-4 1 6 18 22 16 16 34 28 39 26 4 -2 6 4 2 13 -4 11 -2 14 6 9 8 -5 9 -2 5 10
-4 10 -3 15 3 11 6 -3 10 -3 11 2 4 42 14 61 27 48 4 -4 1 -10 -6 -12 -10 -4
-8 -9 5 -19 17 -13 17 -14 1 -8 -10 3 -18 1 -18 -4 0 -18 14 -21 35 -6 10 8
14 14 9 14 -5 0 -10 9 -11 21 -2 18 0 19 14 7 11 -8 14 -8 10 -1 -4 6 -3 14 3
18 6 4 8 11 4 16 -3 5 0 17 8 26 9 12 9 15 1 9 -9 -5 -13 -1 -13 11 0 11 6 25
13 32 9 11 9 12 0 7 -9 -5 -12 1 -9 23 2 17 1 30 -3 29 -22 -2 -23 5 -2 16
l24 14 -23 7 c-17 6 -20 9 -9 16 10 6 11 9 2 9 -7 0 -13 6 -13 13 0 8 -11 19
-25 25 -20 9 -23 9 -19 -3 3 -8 11 -13 17 -12 7 1 13 -9 13 -23 1 -14 3 -28 4
-32 1 -5 3 -17 4 -28 0 -12 8 -25 16 -30 8 -5 10 -10 4 -10 -6 0 -10 -16 -10
-35 1 -19 5 -35 10 -35 6 0 1 -7 -10 -16 -10 -8 -12 -12 -4 -8 13 7 13 5 2 -8
-8 -9 -20 -14 -29 -11 -8 3 -11 9 -6 12 13 8 11 144 -2 153 -6 5 -4 8 5 8 13
0 13 1 0 10 -8 5 -15 13 -15 17 -1 4 -6 17 -12 28 -6 11 -9 28 -7 38 1 12 -2
17 -11 13 -8 -3 -23 6 -33 19 -11 13 -23 21 -27 17 -5 -4 -5 -2 -1 5 3 6 1 15
-7 20 -7 4 -18 19 -25 33 l-12 25 5 -29 c6 -26 5 -27 -10 -12 -9 9 -20 16 -25
16 -5 0 -11 8 -13 18 -4 16 -5 16 -6 -1 0 -10 -6 -15 -11 -12 -6 4 -8 11 -5
16 4 5 1 9 -4 9 -6 0 -11 -4 -11 -10 0 -5 -6 -7 -12 -5 -26 10 -74 11 -127 3z
m40 -75 c56 -33 112 -173 125 -314 7 -85 -13 -156 -39 -136 -2 1 -11 -4 -20
-11 -10 -9 -17 -10 -22 -2 -3 6 -10 8 -14 5 -8 -5 -37 22 -43 40 -2 6 -7 8
-13 7 -5 -2 -7 0 -2 4 4 4 0 16 -10 26 -9 10 -13 18 -8 18 4 0 2 6 -4 13 -6 8
-13 24 -15 38 -3 13 -5 24 -6 24 -1 0 -3 7 -5 15 -2 8 -6 25 -9 38 -14 53 -14
62 -4 62 7 0 3 7 -8 15 -11 8 -14 15 -6 15 6 0 12 5 12 11 0 5 -4 8 -8 5 -4
-2 -8 6 -8 20 0 13 4 24 9 24 5 0 7 -6 4 -14 -4 -10 0 -14 13 -11 10 2 21 -3
24 -10 3 -9 0 -12 -8 -9 -9 3 -13 -6 -13 -29 0 -37 16 -43 40 -17 9 11 8 11
-7 0 -18 -13 -19 -13 -14 1 4 9 1 22 -5 28 -9 9 -8 11 5 6 13 -5 17 -2 15 14
-1 12 -4 21 -7 21 -4 0 -7 7 -7 15 0 10 6 14 16 10 12 -4 11 -2 -2 9 -12 9
-14 16 -7 21 5 3 8 11 5 16 -4 5 -2 9 3 9 6 0 13 7 16 16 4 10 2 13 -7 7 -6
-4 -16 -8 -22 -8 -5 -1 -9 -7 -7 -14 1 -8 -2 -10 -10 -5 -8 5 -7 1 2 -11 9
-11 10 -16 3 -11 -7 4 -13 2 -13 -3 0 -6 6 -11 13 -11 8 0 8 -3 -2 -9 -8 -5
-21 -7 -28 -4 -11 4 -12 8 -3 13 7 4 10 12 6 18 -3 6 0 17 8 25 8 8 12 18 8
22 -4 5 -2 6 3 2 6 -3 17 -2 25 4 19 11 17 12 51 -8z m-61 -87 c0 -3 -4 -8
-10 -11 -5 -3 -10 -1 -10 4 0 6 5 11 10 11 6 0 10 -2 10 -4z m435 -54 c-3 -3
-11 0 -18 7 -9 10 -8 11 6 5 10 -3 15 -9 12 -12z"/>
<path d="M3747 3363 c3 -7 9 -13 15 -13 5 0 6 5 2 12 -4 7 -3 8 4 4 6 -4 9
-13 6 -21 -4 -8 -11 -12 -16 -9 -6 4 -5 -3 1 -15 7 -11 9 -21 5 -21 -3 0 -1
-6 5 -13 6 -8 7 -18 3 -22 -4 -5 -1 -5 7 0 10 6 12 2 7 -13 -4 -11 -2 -23 4
-27 6 -3 8 -10 5 -14 -2 -5 7 -18 20 -31 13 -13 22 -26 20 -30 -3 -4 2 -13 10
-20 8 -7 15 -9 15 -5 0 4 6 2 14 -4 10 -9 16 -7 27 6 7 10 10 15 5 11 -10 -8
-45 21 -42 36 2 6 1 8 -1 3 -8 -14 -22 4 -16 20 5 12 2 15 -10 10 -11 -4 -14
-2 -10 8 3 8 10 12 16 8 6 -3 7 -1 3 5 -4 6 -13 9 -21 5 -8 -3 -15 0 -15 6 0
6 6 11 13 11 6 1 1 7 -12 14 -15 8 -20 16 -12 20 6 4 11 2 11 -3 0 -6 5 -11
11 -11 8 0 8 4 0 14 -9 11 -9 15 1 20 7 3 4 4 -6 3 -10 -1 -21 4 -24 12 -2 8
0 11 5 8 5 -3 10 0 10 8 0 8 -4 12 -9 9 -4 -3 -8 2 -8 11 0 10 5 13 13 9 6 -4
9 -3 4 1 -13 15 -66 13 -60 -2z m38 -33 c-4 -6 -1 -17 5 -25 7 -8 10 -15 6
-15 -3 0 -9 -1 -13 -2 -3 -2 -7 6 -9 16 -3 20 3 36 12 36 3 0 2 -5 -1 -10z
m20 -80 c-3 -5 -3 -16 2 -22 4 -7 8 -17 8 -23 1 -5 7 -8 15 -7 8 2 12 0 7 -4
-4 -4 7 -24 25 -43 18 -19 24 -29 14 -21 -11 8 -21 14 -23 13 -1 -2 -3 0 -2 3
1 3 -12 19 -27 35 -15 16 -24 29 -20 29 5 0 3 7 -4 15 -10 13 -7 35 6 35 3 0
2 -4 -1 -10z"/>
<path d="M4047 3623 c-3 -5 9 -25 27 -45 23 -26 36 -34 46 -28 8 5 11 12 7 17
-5 4 -13 1 -18 -7 -8 -11 -9 -10 -4 8 4 13 2 22 -5 22 -6 0 -8 5 -4 13 6 9 5
9 -7 1 -11 -9 -17 -9 -26 1 -10 11 -10 15 0 18 9 4 9 6 0 6 -6 1 -14 -2 -16
-6z"/>
<path d="M4142 3565 c4 -4 3 -15 -2 -24 -6 -13 -4 -17 11 -18 10 -1 19 3 19 8
0 6 -5 7 -12 3 -8 -5 -9 -2 -5 9 3 9 1 19 -6 23 -7 4 -9 4 -5 -1z"/>
<path d="M4146 3478 c3 -4 9 -8 15 -8 5 0 9 4 9 8 0 5 -7 9 -15 9 -8 0 -12 -4
-9 -9z"/>
<path d="M1952 3429 c-21 -8 -29 -29 -16 -42 8 -8 54 14 54 26 0 6 8 3 18 -5
29 -25 46 -33 37 -17 -8 12 -6 12 8 0 9 -7 24 -11 32 -7 9 3 13 2 10 -4 -3 -6
3 -10 13 -10 27 0 45 -23 30 -38 -17 -17 -1 -27 40 -25 54 3 75 8 79 20 5 14
-75 65 -89 57 -6 -4 -8 -3 -4 4 12 19 -15 25 -29 6 -7 -11 -17 -16 -21 -11 -4
4 -2 7 4 7 7 0 12 8 12 18 0 14 -2 15 -10 2 -8 -12 -10 -12 -10 -1 0 9 -8 12
-25 9 -13 -3 -22 -1 -19 3 3 5 -1 9 -8 10 -7 0 -29 2 -49 3 -19 2 -45 -1 -57
-5z m92 -7 c3 -5 -1 -9 -9 -9 -8 0 -12 4 -9 9 3 4 7 8 9 8 2 0 6 -4 9 -8z
m136 -58 c0 -8 -19 -13 -24 -6 -3 5 1 9 9 9 8 0 15 -2 15 -3z m-13 -39 c0 -8
-4 -12 -9 -9 -5 3 -6 10 -3 15 9 13 12 11 12 -6z"/>
<path d="M4174 3365 c0 -13 3 -22 7 -19 8 4 6 30 -2 38 -3 3 -5 -5 -5 -19z"/>
<path d="M2292 3322 c-9 -3 -9 -9 -1 -24 8 -15 8 -19 0 -14 -6 4 -20 5 -31 1
-31 -10 -13 -35 26 -35 19 0 34 -4 34 -10 0 -16 22 -11 45 10 11 11 31 21 43
23 12 2 24 6 27 9 10 10 -25 30 -57 34 -18 1 -33 3 -33 4 0 4 -42 6 -53 2z"/>
<path d="M4179 3323 c0 -5 -2 -16 -4 -26 -2 -11 -1 -16 3 -13 8 8 14 46 7 46
-3 0 -5 -3 -6 -7z"/>
<path d="M2110 3272 c0 -5 12 -17 28 -28 29 -21 57 -21 65 0 6 15 -47 31 -66
19 -6 -3 -7 -1 -3 5 4 7 1 12 -8 12 -9 0 -16 -4 -16 -8z"/>
<path d="M2475 3270 c-6 -9 44 -32 55 -25 5 3 7 12 3 21 -4 12 -8 12 -21 2 -9
-7 -13 -8 -9 -2 3 6 -1 11 -9 11 -8 0 -17 -3 -19 -7z"/>
<path d="M4130 3159 c-6 -11 -14 -18 -18 -16 -4 2 -15 -4 -24 -14 -14 -15 -14
-18 -2 -23 9 -3 12 -2 9 5 -4 6 2 13 14 16 12 3 21 10 21 15 0 5 4 6 10 3 6
-3 7 1 4 10 -5 11 -2 14 10 9 9 -3 16 -4 16 -1 0 16 -31 13 -40 -4z"/>
</g>
</svg>
